SplineFontDB: 3.2
FontName: Pretension-SemiBold
FullName: Pretension SemiBold
FamilyName: Pretension SemiBold
Weight: Demi
Copyright: Copyright 2016 The Inter Project Authors
Version: 4.000;git-a52131595
ItalicAngle: 0
UnderlinePosition: -337
UnderlineWidth: 178
Ascent: 1638
Descent: 410
InvalidEm: 0
sfntRevision: 0x00040000
LayerCount: 2
Layer: 0 1 "Back" 1
Layer: 1 1 "Fore" 0
XUID: [1021 89 -1234937351 14730296]
StyleMap: 0x0040
FSType: 0
OS2Version: 4
OS2_WeightWidthSlopeOnly: 0
OS2_UseTypoMetrics: 1
CreationTime: 1700438797
ModificationTime: 1707792781
PfmFamily: 17
TTFWeight: 600
TTFWidth: 5
LineGap: 0
VLineGap: 0
Panose: 2 0 5 3 0 0 0 2 0 4
OS2TypoAscent: 1984
OS2TypoAOffset: 0
OS2TypoDescent: -494
OS2TypoDOffset: 0
OS2TypoLinegap: 0
OS2WinAscent: 1984
OS2WinAOffset: 0
OS2WinDescent: 494
OS2WinDOffset: 0
HheadAscent: 1984
HheadAOffset: 0
HheadDescent: -494
HheadDOffset: 0
OS2SubXSize: 1331
OS2SubYSize: 1229
OS2SubXOff: 0
OS2SubYOff: 154
OS2SupXSize: 1331
OS2SupYSize: 1229
OS2SupXOff: 0
OS2SupYOff: 717
OS2StrikeYSize: 178
OS2StrikeYPos: 653
OS2CapHeight: 1490
OS2XHeight: 1087
OS2Vendor: 'RSMS'
OS2CodePages: 0000019f.00000000
OS2UnicodeRanges: e0000aff.5200a1ff.00000021.00000000
Lookup: 1 0 0 "'aalt' Access All Alternates in Latin lookup 0" { "'aalt' Access All Alternates in Latin lookup 0 subtable"  } ['aalt' ('DFLT' <'dflt' > 'latn' <'CAT ' 'MOL ' 'ROM ' 'dflt' > ) ]
Lookup: 3 0 0 "'aalt' Access All Alternates in Latin lookup 1" { "'aalt' Access All Alternates in Latin lookup 1 subtable"  } ['aalt' ('DFLT' <'dflt' > 'latn' <'CAT ' 'MOL ' 'ROM ' 'dflt' > ) ]
Lookup: 1 0 0 "Single Substitution lookup 2" { "Single Substitution lookup 2 subtable"  } []
Lookup: 4 0 0 "'ccmp' Glyph Composition/Decomposition in Latin lookup 3" { "'ccmp' Glyph Composition/Decomposition in Latin lookup 3 subtable"  } ['ccmp' ('DFLT' <'dflt' > 'latn' <'CAT ' 'MOL ' 'ROM ' 'dflt' > ) ]

StartChar: .notdef
Encoding: 1114112 -1 0
Width: 1344
Flags: W
LayerCount: 2
Fore
SplineSet
1016 -416 m 1,0,-1
 328 -416 l 1,1,-1
 328 1856 l 1,2,-1
 1016 1856 l 1,3,-1
 1016 -416 l 1,0,-1
512 -192 m 1,4,-1
 512 -256 l 1,5,-1
 832 -256 l 1,6,-1
 832 -192 l 1,7,-1
 617 -192 l 1,8,-1
 832 -65 l 1,9,-1
 832 0 l 1,10,-1
 512 0 l 1,11,-1
 512 -64 l 1,12,-1
 728 -64 l 1,13,-1
 512 -192 l 1,4,-1
512 320 m 1,14,-1
 512 64 l 1,15,-1
 832 64 l 1,16,-1
 832 320 l 1,17,-1
 512 320 l 1,14,-1
768 128 m 1,18,-1
 576 128 l 1,19,-1
 576 256 l 1,20,-1
 768 256 l 1,21,-1
 768 128 l 1,18,-1
512 704 m 1,22,-1
 512 448 l 1,23,-1
 832 448 l 1,24,-1
 832 704 l 1,25,-1
 640 704 l 1,26,-1
 640 576 l 1,27,-1
 704 576 l 1,28,-1
 704 640 l 1,29,-1
 768 640 l 1,30,-1
 768 512 l 1,31,-1
 576 512 l 1,32,-1
 576 704 l 1,33,-1
 512 704 l 1,22,-1
512 832 m 1,34,-1
 512 768 l 1,35,-1
 832 768 l 1,36,-1
 832 992 l 1,37,-1
 768 992 l 1,38,-1
 768 832 l 1,39,-1
 512 832 l 1,34,-1
512 960 m 1,40,-1
 512 896 l 1,41,-1
 704 896 l 1,42,-1
 704 1056 l 1,43,-1
 832 1056 l 1,44,-1
 832 1120 l 1,45,-1
 512 1120 l 1,46,-1
 512 1056 l 1,47,-1
 640 1056 l 1,48,-1
 640 960 l 1,49,-1
 512 960 l 1,40,-1
640 1248 m 1,50,-1
 576 1248 l 1,51,-1
 576 1344 l 1,52,-1
 640 1344 l 1,53,-1
 640 1248 l 1,50,-1
512 1408 m 1,54,-1
 512 1184 l 1,55,-1
 832 1184 l 1,56,-1
 832 1248 l 1,57,-1
 704 1248 l 1,58,-1
 704 1408 l 1,59,-1
 512 1408 l 1,54,-1
512 1536 m 1,60,-1
 512 1472 l 1,61,-1
 832 1472 l 1,62,-1
 832 1536 l 1,63,-1
 688 1536 l 1,64,-1
 688 1632 l 1,65,-1
 832 1632 l 1,66,-1
 832 1696 l 1,67,-1
 512 1696 l 1,68,-1
 512 1632 l 1,69,-1
 624 1632 l 1,70,-1
 624 1536 l 1,71,-1
 512 1536 l 1,60,-1
EndSplineSet
EndChar

StartChar: A
Encoding: 65 65 2
Width: 1456
GlyphClass: 2
Flags: W
AnchorPoint: "Anchor-4" 1424 0 basechar 0
AnchorPoint: "Anchor-1" 728 1490 basechar 0
AnchorPoint: "Anchor-0" 728 0 basechar 0
LayerCount: 2
Fore
SplineSet
31 0 m 1,0,-1
 558 1490 l 1,1,-1
 894 1490 l 1,2,-1
 1424 0 l 1,3,-1
 1132 0 l 1,4,-1
 869 778 l 2,5,6
 830 901 830 901 787.5 1046.5 c 128,-1,7
 745 1192 745 1192 692 1384 c 1,8,-1
 757 1384 l 1,9,10
 704 1191 704 1191 662 1045 c 128,-1,11
 620 899 620 899 582 778 c 2,12,-1
 320 0 l 1,13,-1
 31 0 l 1,0,-1
341 363 m 1,14,-1
 341 579 l 1,15,-1
 1115 579 l 1,16,-1
 1115 363 l 1,17,-1
 341 363 l 1,14,-1
EndSplineSet
Substitution2: "'c2sc' Capitals to Small Capitals in Latin lookup 68 subtable" a.sc
Substitution2: "'ss06' Style Set 6 in Latin lookup 52 subtable" A.squared
Substitution2: "'ss05' Style Set 5 in Latin lookup 51 subtable" uni24B6
Substitution2: "Single Substitution lookup 44 subtable" ordfeminine
AlternateSubs2: "'aalt' Access All Alternates in Latin lookup 1 subtable" ordfeminine a.sc
Position2: "'cpsp' Capital Spacing in Latin lookup 0 subtable" dx=0 dy=0 dh=0 dv=0
EndChar

StartChar: uni023A
Encoding: 570 570 46
Width: 1456
GlyphClass: 2
Flags: W
AnchorPoint: "Anchor-4" 1424 0 basechar 0
AnchorPoint: "Anchor-1" 728 1490 basechar 0
AnchorPoint: "Anchor-0" 728 0 basechar 0
LayerCount: 2
Fore
SplineSet
1131 1678 m 1,0,-1
 503 -190 l 1,1,-1
 369 -190 l 1,2,-1
 997 1678 l 1,3,-1
 1131 1678 l 1,0,-1
31 0 m 1,4,-1
 558 1490 l 1,5,-1
 894 1490 l 1,6,-1
 1424 0 l 1,7,-1
 1132 0 l 1,8,-1
 869 778 l 2,9,10
 830 901 830 901 787.5 1046.5 c 128,-1,11
 745 1192 745 1192 692 1384 c 1,12,-1
 757 1384 l 1,13,14
 704 1191 704 1191 662 1045 c 128,-1,15
 620 899 620 899 582 778 c 2,16,-1
 320 0 l 1,17,-1
 31 0 l 1,4,-1
341 363 m 1,18,-1
 341 579 l 1,19,-1
 1115 579 l 1,20,-1
 1115 363 l 1,21,-1
 341 363 l 1,18,-1
EndSplineSet
Position2: "'cpsp' Capital Spacing in Latin lookup 0 subtable" dx=0 dy=0 dh=0 dv=0
EndChar

StartChar: Lambda
Encoding: 923 923 60
Width: 1456
GlyphClass: 2
Flags: W
AnchorPoint: "Anchor-1" 728 1490 basechar 0
AnchorPoint: "Anchor-0" 728 0 basechar 0
LayerCount: 2
Fore
SplineSet
31 0 m 1,0,-1
 558 1490 l 1,1,-1
 894 1490 l 1,2,-1
 1424 0 l 1,3,-1
 1132 0 l 1,4,-1
 869 778 l 2,5,6
 830 901 830 901 787.5 1046.5 c 128,-1,7
 745 1192 745 1192 692 1384 c 1,8,-1
 757 1384 l 1,9,10
 704 1191 704 1191 662 1045 c 128,-1,11
 620 899 620 899 582 778 c 2,12,-1
 320 0 l 1,13,-1
 31 0 l 1,0,-1
EndSplineSet
Position2: "'cpsp' Capital Spacing in Latin lookup 0 subtable" dx=0 dy=0 dh=0 dv=0
EndChar

StartChar: AE
Encoding: 198 198 61
Width: 2061
GlyphClass: 2
Flags: W
AnchorPoint: "Anchor-1" 1333 1490 basechar 0
LayerCount: 2
Fore
SplineSet
31 0 m 1,0,-1
 686 1490 l 1,1,-1
 1967 1490 l 1,2,-1
 1967 1263 l 1,3,-1
 1232 1263 l 1,4,-1
 1232 861 l 1,5,-1
 1913 861 l 1,6,-1
 1913 637 l 1,7,-1
 1232 637 l 1,8,-1
 1232 227 l 1,9,-1
 1969 227 l 1,10,-1
 1969 0 l 1,11,-1
 974 0 l 1,12,-1
 974 1291 l 1,13,-1
 867 1291 l 1,14,-1
 316 0 l 1,15,-1
 31 0 l 1,0,-1
377 381 m 1,16,-1
 377 586 l 1,17,-1
 1093 586 l 1,18,-1
 1093 381 l 1,19,-1
 377 381 l 1,16,-1
EndSplineSet
Position2: "'cpsp' Capital Spacing in Latin lookup 0 subtable" dx=0 dy=0 dh=0 dv=0
EndChar

StartChar: B
Encoding: 66 66 65
Width: 1333
GlyphClass: 2
Flags: W
AnchorPoint: "Anchor-1" 644 1490 basechar 0
AnchorPoint: "Anchor-0" 649 0 basechar 0
LayerCount: 2
Fore
SplineSet
137 0 m 1,0,-1
 137 1490 l 1,1,-1
 710 1490 l 2,2,3
 869 1490 869 1490 978 1440.5 c 128,-1,4
 1087 1391 1087 1391 1142.5 1304 c 128,-1,5
 1198 1217 1198 1217 1198 1104 c 0,6,7
 1198 1015 1198 1015 1164.5 950 c 128,-1,8
 1131 885 1131 885 1073.5 843.5 c 128,-1,9
 1016 802 1016 802 938 781 c 1,10,-1
 938 773 l 1,11,12
 1023 766 1023 766 1095 722 c 128,-1,13
 1167 678 1167 678 1211.5 600.5 c 128,-1,14
 1256 523 1256 523 1256 413 c 0,15,16
 1256 292 1256 292 1198.5 199 c 128,-1,17
 1141 106 1141 106 1025.5 53 c 128,-1,18
 910 0 910 0 739 0 c 2,19,-1
 137 0 l 1,0,-1
400 219 m 1,20,-1
 703 219 l 2,21,22
 846 219 846 219 915.5 275.5 c 128,-1,23
 985 332 985 332 985 427 c 0,24,25
 985 496 985 496 952 547.5 c 128,-1,26
 919 599 919 599 858 628 c 128,-1,27
 797 657 797 657 711 657 c 2,28,-1
 400 657 l 1,29,-1
 400 219 l 1,20,-1
400 857 m 1,30,-1
 688 857 l 2,31,32
 760 857 760 857 815.5 883 c 128,-1,33
 871 909 871 909 902 956.5 c 128,-1,34
 933 1004 933 1004 933 1068 c 0,35,36
 933 1160 933 1160 870.5 1216 c 128,-1,37
 808 1272 808 1272 691 1272 c 2,38,-1
 400 1272 l 1,39,-1
 400 857 l 1,30,-1
EndSplineSet
Substitution2: "'ss06' Style Set 6 in Latin lookup 52 subtable" B.squared
Substitution2: "'ss05' Style Set 5 in Latin lookup 51 subtable" uni24B7
Position2: "'cpsp' Capital Spacing in Latin lookup 0 subtable" dx=0 dy=0 dh=0 dv=0
EndChar

StartChar: uni0181
Encoding: 385 385 70
Width: 1685
GlyphClass: 2
Flags: W
AnchorPoint: "Anchor-1" 996 1490 basechar 0
AnchorPoint: "Anchor-0" 1001 0 basechar 0
LayerCount: 2
Fore
SplineSet
44 1060 m 1,0,-1
 44 1177 l 2,1,2
 44 1332 44 1332 128.5 1411 c 128,-1,3
 213 1490 213 1490 383 1490 c 2,4,-1
 489 1490 l 1,5,-1
 489 1266 l 1,6,-1
 408 1266 l 2,7,8
 347 1266 347 1266 318.5 1239.5 c 128,-1,9
 290 1213 290 1213 290 1158 c 2,10,-1
 290 1060 l 1,11,-1
 44 1060 l 1,0,-1
489 0 m 1,12,-1
 489 1490 l 1,13,-1
 1062 1490 l 2,14,15
 1221 1490 1221 1490 1330 1440.5 c 128,-1,16
 1439 1391 1439 1391 1494.5 1304 c 128,-1,17
 1550 1217 1550 1217 1550 1104 c 0,18,19
 1550 1015 1550 1015 1516.5 950 c 128,-1,20
 1483 885 1483 885 1425.5 843.5 c 128,-1,21
 1368 802 1368 802 1290 781 c 1,22,-1
 1290 773 l 1,23,24
 1375 766 1375 766 1447 722 c 128,-1,25
 1519 678 1519 678 1563.5 600.5 c 128,-1,26
 1608 523 1608 523 1608 413 c 0,27,28
 1608 292 1608 292 1550.5 199 c 128,-1,29
 1493 106 1493 106 1377.5 53 c 128,-1,30
 1262 0 1262 0 1091 0 c 2,31,-1
 489 0 l 1,12,-1
752 219 m 1,32,-1
 1055 219 l 2,33,34
 1198 219 1198 219 1267.5 275.5 c 128,-1,35
 1337 332 1337 332 1337 427 c 0,36,37
 1337 496 1337 496 1304 547.5 c 128,-1,38
 1271 599 1271 599 1210 628 c 128,-1,39
 1149 657 1149 657 1063 657 c 2,40,-1
 752 657 l 1,41,-1
 752 219 l 1,32,-1
752 857 m 1,42,-1
 1040 857 l 2,43,44
 1112 857 1112 857 1167.5 883 c 128,-1,45
 1223 909 1223 909 1254 956.5 c 128,-1,46
 1285 1004 1285 1004 1285 1068 c 0,47,48
 1285 1160 1285 1160 1222.5 1216 c 128,-1,49
 1160 1272 1160 1272 1043 1272 c 2,50,-1
 752 1272 l 1,51,-1
 752 857 l 1,42,-1
EndSplineSet
Position2: "'cpsp' Capital Spacing in Latin lookup 0 subtable" dx=0 dy=0 dh=0 dv=0
EndChar

StartChar: C
Encoding: 67 67 73
Width: 1497
GlyphClass: 2
Flags: W
AnchorPoint: "Anchor-3" 768 -1 basechar 0
AnchorPoint: "Anchor-1" 772 1490 basechar 0
LayerCount: 2
Fore
SplineSet
779 -22 m 0,0,1
 579 -22 579 -22 422.5 71 c 128,-1,2
 266 164 266 164 177 336 c 128,-1,3
 88 508 88 508 88 744 c 0,4,5
 88 982 88 982 177.5 1154.5 c 128,-1,6
 267 1327 267 1327 423.5 1419.5 c 128,-1,7
 580 1512 580 1512 779 1512 c 0,8,9
 904 1512 904 1512 1011.5 1476 c 128,-1,10
 1119 1440 1119 1440 1203.5 1371.5 c 128,-1,11
 1288 1303 1288 1303 1342 1206 c 128,-1,12
 1396 1109 1396 1109 1415 987 c 1,13,-1
 1146 987 l 1,14,15
 1132 1056 1132 1056 1099.5 1109 c 128,-1,16
 1067 1162 1067 1162 1020 1199 c 128,-1,17
 973 1236 973 1236 912.5 1255 c 128,-1,18
 852 1274 852 1274 783 1274 c 0,19,20
 654 1274 654 1274 558 1210.5 c 128,-1,21
 462 1147 462 1147 409 1028.5 c 128,-1,22
 356 910 356 910 356 744 c 0,23,24
 356 579 356 579 409 460.5 c 128,-1,25
 462 342 462 342 558 279 c 128,-1,26
 654 216 654 216 782 216 c 0,27,28
 852 216 852 216 911.5 235.5 c 128,-1,29
 971 255 971 255 1019 291.5 c 128,-1,30
 1067 328 1067 328 1099.5 381 c 128,-1,31
 1132 434 1132 434 1146 503 c 1,32,-1
 1415 503 l 1,33,34
 1398 388 1398 388 1345 292.5 c 128,-1,35
 1292 197 1292 197 1209 126.5 c 128,-1,36
 1126 56 1126 56 1017.5 17 c 128,-1,37
 909 -22 909 -22 779 -22 c 0,0,1
EndSplineSet
Substitution2: "'ss06' Style Set 6 in Latin lookup 52 subtable" C.squared
Substitution2: "'ss05' Style Set 5 in Latin lookup 51 subtable" uni24B8
Position2: "'cpsp' Capital Spacing in Latin lookup 0 subtable" dx=0 dy=0 dh=0 dv=0
EndChar

StartChar: uni0187
Encoding: 391 391 74
Width: 1497
GlyphClass: 2
Flags: W
AnchorPoint: "Anchor-3" 768 -1 basechar 0
AnchorPoint: "Anchor-1" 772 1490 basechar 0
LayerCount: 2
Fore
SplineSet
1163 987 m 1,0,-1
 1163 1388 l 2,1,2
 1163 1534 1163 1534 1246 1609 c 128,-1,3
 1329 1684 1329 1684 1495 1684 c 0,4,5
 1538 1684 1538 1684 1573.5 1681.5 c 128,-1,6
 1609 1679 1609 1679 1635 1676 c 1,7,-1
 1635 1476 l 1,8,9
 1616 1477 1616 1477 1589 1478 c 128,-1,10
 1562 1479 1562 1479 1539 1479 c 0,11,12
 1474 1479 1474 1479 1444.5 1456.5 c 128,-1,13
 1415 1434 1415 1434 1415 1384 c 2,14,-1
 1415 987 l 1,15,-1
 1163 987 l 1,0,-1
779 -22 m 0,16,17
 579 -22 579 -22 422.5 71 c 128,-1,18
 266 164 266 164 177 336 c 128,-1,19
 88 508 88 508 88 744 c 0,20,21
 88 982 88 982 177.5 1154.5 c 128,-1,22
 267 1327 267 1327 423.5 1419.5 c 128,-1,23
 580 1512 580 1512 779 1512 c 0,24,25
 904 1512 904 1512 1011.5 1476 c 128,-1,26
 1119 1440 1119 1440 1203.5 1371.5 c 128,-1,27
 1288 1303 1288 1303 1342 1206 c 128,-1,28
 1396 1109 1396 1109 1415 987 c 1,29,-1
 1146 987 l 1,30,31
 1132 1056 1132 1056 1099.5 1109 c 128,-1,32
 1067 1162 1067 1162 1020 1199 c 128,-1,33
 973 1236 973 1236 912.5 1255 c 128,-1,34
 852 1274 852 1274 783 1274 c 0,35,36
 654 1274 654 1274 558 1210.5 c 128,-1,37
 462 1147 462 1147 409 1028.5 c 128,-1,38
 356 910 356 910 356 744 c 0,39,40
 356 579 356 579 409 460.5 c 128,-1,41
 462 342 462 342 558 279 c 128,-1,42
 654 216 654 216 782 216 c 0,43,44
 852 216 852 216 911.5 235.5 c 128,-1,45
 971 255 971 255 1019 291.5 c 128,-1,46
 1067 328 1067 328 1099.5 381 c 128,-1,47
 1132 434 1132 434 1146 503 c 1,48,-1
 1415 503 l 1,49,50
 1398 388 1398 388 1345 292.5 c 128,-1,51
 1292 197 1292 197 1209 126.5 c 128,-1,52
 1126 56 1126 56 1017.5 17 c 128,-1,53
 909 -22 909 -22 779 -22 c 0,16,17
EndSplineSet
Position2: "'cpsp' Capital Spacing in Latin lookup 0 subtable" dx=0 dy=0 dh=0 dv=0
EndChar

StartChar: uni023B
Encoding: 571 571 81
Width: 1497
GlyphClass: 2
Flags: W
AnchorPoint: "Anchor-3" 768 -1 basechar 0
AnchorPoint: "Anchor-1" 772 1490 basechar 0
LayerCount: 2
Fore
SplineSet
349 -190 m 1,0,-1
 975 1678 l 1,1,-1
 1156 1678 l 1,2,-1
 529 -190 l 1,3,-1
 349 -190 l 1,0,-1
779 -22 m 0,4,5
 579 -22 579 -22 422.5 71 c 128,-1,6
 266 164 266 164 177 336 c 128,-1,7
 88 508 88 508 88 744 c 0,8,9
 88 982 88 982 177.5 1154.5 c 128,-1,10
 267 1327 267 1327 423.5 1419.5 c 128,-1,11
 580 1512 580 1512 779 1512 c 0,12,13
 904 1512 904 1512 1011.5 1476 c 128,-1,14
 1119 1440 1119 1440 1203.5 1371.5 c 128,-1,15
 1288 1303 1288 1303 1342 1206 c 128,-1,16
 1396 1109 1396 1109 1415 987 c 1,17,-1
 1146 987 l 1,18,19
 1132 1056 1132 1056 1099.5 1109 c 128,-1,20
 1067 1162 1067 1162 1020 1199 c 128,-1,21
 973 1236 973 1236 912.5 1255 c 128,-1,22
 852 1274 852 1274 783 1274 c 0,23,24
 654 1274 654 1274 558 1210.5 c 128,-1,25
 462 1147 462 1147 409 1028.5 c 128,-1,26
 356 910 356 910 356 744 c 0,27,28
 356 579 356 579 409 460.5 c 128,-1,29
 462 342 462 342 558 279 c 128,-1,30
 654 216 654 216 782 216 c 0,31,32
 852 216 852 216 911.5 235.5 c 128,-1,33
 971 255 971 255 1019 291.5 c 128,-1,34
 1067 328 1067 328 1099.5 381 c 128,-1,35
 1132 434 1132 434 1146 503 c 1,36,-1
 1415 503 l 1,37,38
 1398 388 1398 388 1345 292.5 c 128,-1,39
 1292 197 1292 197 1209 126.5 c 128,-1,40
 1126 56 1126 56 1017.5 17 c 128,-1,41
 909 -22 909 -22 779 -22 c 0,4,5
EndSplineSet
Ligature2: "'ccmp' Glyph Composition/Decomposition in Latin lookup 6 subtable" C uni0338
Position2: "'cpsp' Capital Spacing in Latin lookup 0 subtable" dx=0 dy=0 dh=0 dv=0
EndChar

StartChar: uni0186
Encoding: 390 390 82
Width: 1497
GlyphClass: 2
Flags: W
AnchorPoint: "Anchor-3" 729 1492 basechar 0
AnchorPoint: "Anchor-1" 725 0 basechar 0
LayerCount: 2
Fore
SplineSet
718 1512 m 0,0,1
 918 1512 918 1512 1074.5 1419 c 128,-1,2
 1231 1326 1231 1326 1320 1154 c 128,-1,3
 1409 982 1409 982 1409 746 c 256,4,5
 1409 510 1409 510 1319.5 337.5 c 128,-1,6
 1230 165 1230 165 1074 71.5 c 128,-1,7
 918 -22 918 -22 718 -22 c 0,8,9
 593 -22 593 -22 485.5 14 c 128,-1,10
 378 50 378 50 294 118.5 c 128,-1,11
 210 187 210 187 155.5 284.5 c 128,-1,12
 101 382 101 382 82 504 c 1,13,-1
 351 504 l 1,14,15
 365 435 365 435 397.5 382 c 128,-1,16
 430 329 430 329 477.5 291.5 c 128,-1,17
 525 254 525 254 585 235 c 128,-1,18
 645 216 645 216 714 216 c 0,19,20
 843 216 843 216 939.5 280 c 128,-1,21
 1036 344 1036 344 1089 463 c 128,-1,22
 1142 582 1142 582 1142 746 c 0,23,24
 1142 912 1142 912 1089 1030.5 c 128,-1,25
 1036 1149 1036 1149 939.5 1211.5 c 128,-1,26
 843 1274 843 1274 715 1274 c 0,27,28
 646 1274 646 1274 586 1255 c 128,-1,29
 526 1236 526 1236 478 1199 c 128,-1,30
 430 1162 430 1162 397.5 1109 c 128,-1,31
 365 1056 365 1056 351 988 c 1,32,-1
 82 988 l 1,33,34
 99 1103 99 1103 152 1198.5 c 128,-1,35
 205 1294 205 1294 288 1364.5 c 128,-1,36
 371 1435 371 1435 479.5 1473.5 c 128,-1,37
 588 1512 588 1512 718 1512 c 0,0,1
EndSplineSet
Position2: "'cpsp' Capital Spacing in Latin lookup 0 subtable" dx=0 dy=0 dh=0 dv=0
EndChar

StartChar: D
Encoding: 68 68 84
Width: 1453
GlyphClass: 2
Flags: W
AnchorPoint: "Anchor-1" 598 1490 basechar 0
AnchorPoint: "Anchor-0" 631 0 basechar 0
LayerCount: 2
Fore
SplineSet
641 0 m 2,0,-1
 265 0 l 1,1,-1
 265 229 l 1,2,-1
 627 229 l 2,3,4
 786 229 786 229 891.5 288 c 128,-1,5
 997 347 997 347 1048.5 463 c 128,-1,6
 1100 579 1100 579 1100 747 c 256,7,8
 1100 915 1100 915 1048 1029.5 c 128,-1,9
 996 1144 996 1144 893 1202.5 c 128,-1,10
 790 1261 790 1261 635 1261 c 2,11,-1
 257 1261 l 1,12,-1
 257 1490 l 1,13,-1
 651 1490 l 2,14,15
 874 1490 874 1490 1033.5 1400.5 c 128,-1,16
 1193 1311 1193 1311 1279.5 1144 c 128,-1,17
 1366 977 1366 977 1366 747 c 0,18,19
 1366 515 1366 515 1279.5 347.5 c 128,-1,20
 1193 180 1193 180 1031 90 c 128,-1,21
 869 0 869 0 641 0 c 2,0,-1
403 1490 m 1,22,-1
 403 0 l 1,23,-1
 137 0 l 1,24,-1
 137 1490 l 1,25,-1
 403 1490 l 1,22,-1
EndSplineSet
Substitution2: "'ss06' Style Set 6 in Latin lookup 52 subtable" D.squared
Substitution2: "'ss05' Style Set 5 in Latin lookup 51 subtable" uni24B9
Position2: "'cpsp' Capital Spacing in Latin lookup 0 subtable" dx=0 dy=0 dh=0 dv=0
EndChar

StartChar: uni018A
Encoding: 394 394 85
Width: 1805
GlyphClass: 2
Flags: W
AnchorPoint: "Anchor-1" 950 1490 basechar 0
AnchorPoint: "Anchor-0" 983 0 basechar 0
LayerCount: 2
Fore
SplineSet
44 1060 m 1,0,-1
 44 1177 l 2,1,2
 44 1332 44 1332 128.5 1411 c 128,-1,3
 213 1490 213 1490 383 1490 c 2,4,-1
 489 1490 l 1,5,-1
 489 1266 l 1,6,-1
 408 1266 l 2,7,8
 347 1266 347 1266 318.5 1239.5 c 128,-1,9
 290 1213 290 1213 290 1158 c 2,10,-1
 290 1060 l 1,11,-1
 44 1060 l 1,0,-1
993 0 m 2,12,-1
 617 0 l 1,13,-1
 617 229 l 1,14,-1
 979 229 l 2,15,16
 1138 229 1138 229 1243.5 288 c 128,-1,17
 1349 347 1349 347 1400.5 463 c 128,-1,18
 1452 579 1452 579 1452 747 c 256,19,20
 1452 915 1452 915 1400.5 1029.5 c 128,-1,21
 1349 1144 1349 1144 1245.5 1202.5 c 128,-1,22
 1142 1261 1142 1261 987 1261 c 2,23,-1
 609 1261 l 1,24,-1
 609 1490 l 1,25,-1
 1003 1490 l 2,26,27
 1226 1490 1226 1490 1386 1400.5 c 128,-1,28
 1546 1311 1546 1311 1632 1144 c 128,-1,29
 1718 977 1718 977 1718 747 c 0,30,31
 1718 515 1718 515 1631.5 347.5 c 128,-1,32
 1545 180 1545 180 1383 90 c 128,-1,33
 1221 0 1221 0 993 0 c 2,12,-1
755 1490 m 1,34,-1
 755 0 l 1,35,-1
 489 0 l 1,36,-1
 489 1490 l 1,37,-1
 755 1490 l 1,34,-1
EndSplineSet
Position2: "'cpsp' Capital Spacing in Latin lookup 0 subtable" dx=0 dy=0 dh=0 dv=0
EndChar

StartChar: E
Encoding: 69 69 95
Width: 1233
GlyphClass: 2
Flags: W
AnchorPoint: "Anchor-4" 1140 0 basechar 0
AnchorPoint: "Anchor-3" 642 0 basechar 0
AnchorPoint: "Anchor-1" 640 1490 basechar 0
AnchorPoint: "Anchor-0" 640 0 basechar 0
LayerCount: 2
Fore
SplineSet
137 0 m 1,0,-1
 137 1490 l 1,1,-1
 1139 1490 l 1,2,-1
 1139 1263 l 1,3,-1
 403 1263 l 1,4,-1
 403 867 l 1,5,-1
 1084 867 l 1,6,-1
 1084 643 l 1,7,-1
 403 643 l 1,8,-1
 403 227 l 1,9,-1
 1140 227 l 1,10,-1
 1140 0 l 1,11,-1
 137 0 l 1,0,-1
EndSplineSet
Substitution2: "'ss06' Style Set 6 in Latin lookup 52 subtable" E.squared
Substitution2: "'ss05' Style Set 5 in Latin lookup 51 subtable" uni24BA
Position2: "'cpsp' Capital Spacing in Latin lookup 0 subtable" dx=0 dy=0 dh=0 dv=0
EndChar

StartChar: uni0246
Encoding: 582 582 121
Width: 1233
GlyphClass: 2
Flags: W
AnchorPoint: "Anchor-4" 1140 0 basechar 0
AnchorPoint: "Anchor-3" 642 0 basechar 0
AnchorPoint: "Anchor-1" 640 1490 basechar 0
AnchorPoint: "Anchor-0" 640 0 basechar 0
LayerCount: 2
Fore
SplineSet
309 -190 m 1,0,-1
 849 1678 l 1,1,-1
 1013 1678 l 1,2,-1
 475 -190 l 1,3,-1
 309 -190 l 1,0,-1
137 0 m 1,4,-1
 137 1490 l 1,5,-1
 1139 1490 l 1,6,-1
 1139 1263 l 1,7,-1
 403 1263 l 1,8,-1
 403 867 l 1,9,-1
 1084 867 l 1,10,-1
 1084 643 l 1,11,-1
 403 643 l 1,12,-1
 403 227 l 1,13,-1
 1140 227 l 1,14,-1
 1140 0 l 1,15,-1
 137 0 l 1,4,-1
EndSplineSet
Position2: "'cpsp' Capital Spacing in Latin lookup 0 subtable" dx=0 dy=0 dh=0 dv=0
EndChar

StartChar: Eturn
Encoding: 398 398 122
Width: 1233
GlyphClass: 2
Flags: W
AnchorPoint: "Anchor-4" 92 1490 basechar 0
AnchorPoint: "Anchor-3" 612 0 basechar 0
AnchorPoint: "Anchor-1" 614 1490 basechar 0
AnchorPoint: "Anchor-0" 609 0 basechar 0
LayerCount: 2
Fore
SplineSet
1096 1490 m 1,0,-1
 1096 0 l 1,1,-1
 95 0 l 1,2,-1
 95 227 l 1,3,-1
 830 227 l 1,4,-1
 830 625 l 1,5,-1
 149 625 l 1,6,-1
 149 848 l 1,7,-1
 830 848 l 1,8,-1
 830 1263 l 1,9,-1
 92 1263 l 1,10,-1
 92 1490 l 1,11,-1
 1096 1490 l 1,0,-1
EndSplineSet
Position2: "'cpsp' Capital Spacing in Latin lookup 0 subtable" dx=0 dy=0 dh=0 dv=0
EndChar

StartChar: F
Encoding: 70 70 137
Width: 1189
GlyphClass: 2
Flags: W
AnchorPoint: "Anchor-1" 626 1490 basechar 0
AnchorPoint: "Anchor-0" 270 0 basechar 0
LayerCount: 2
Fore
SplineSet
137 0 m 1,0,-1
 137 1490 l 1,1,-1
 1115 1490 l 1,2,-1
 1115 1263 l 1,3,-1
 403 1263 l 1,4,-1
 403 837 l 1,5,-1
 1055 837 l 1,6,-1
 1055 614 l 1,7,-1
 403 614 l 1,8,-1
 403 0 l 1,9,-1
 137 0 l 1,0,-1
EndSplineSet
Substitution2: "'ss06' Style Set 6 in Latin lookup 52 subtable" F.squared
Substitution2: "'ss05' Style Set 5 in Latin lookup 51 subtable" uni24BB
Position2: "'cpsp' Capital Spacing in Latin lookup 0 subtable" dx=0 dy=0 dh=0 dv=0
EndChar

StartChar: uni0191
Encoding: 401 401 138
Width: 1189
GlyphClass: 2
Flags: W
AnchorPoint: "Anchor-1" 626 1490 basechar 0
AnchorPoint: "Anchor-0" 270 0 basechar 0
LayerCount: 2
Fore
SplineSet
-76 -418 m 1,0,-1
 -76 -205 l 1,1,2
 -57 -208 -57 -208 -29.5 -208.5 c 128,-1,3
 -2 -209 -2 -209 20 -209 c 0,4,5
 85 -209 85 -209 111 -187 c 128,-1,6
 137 -165 137 -165 137 -115 c 2,7,-1
 137 125 l 1,8,-1
 403 125 l 1,9,-1
 403 -129 l 2,10,11
 403 -275 403 -275 318.5 -350 c 128,-1,12
 234 -425 234 -425 67 -425 c 0,13,14
 24 -425 24 -425 -13 -423 c 128,-1,15
 -50 -421 -50 -421 -76 -418 c 1,0,-1
137 0 m 1,16,-1
 137 1490 l 1,17,-1
 1115 1490 l 1,18,-1
 1115 1263 l 1,19,-1
 403 1263 l 1,20,-1
 403 837 l 1,21,-1
 1055 837 l 1,22,-1
 1055 614 l 1,23,-1
 403 614 l 1,24,-1
 403 0 l 1,25,-1
 137 0 l 1,16,-1
EndSplineSet
Position2: "'cpsp' Capital Spacing in Latin lookup 0 subtable" dx=0 dy=0 dh=0 dv=0
EndChar

StartChar: Fturn
Encoding: 8498 8498 140
Width: 1189
GlyphClass: 2
Flags: W
AnchorPoint: "Anchor-1" 898 1490 basechar 0
AnchorPoint: "Anchor-0" 557 0 basechar 0
LayerCount: 2
Fore
SplineSet
1052 1490 m 1,0,-1
 1052 0 l 1,1,-1
 74 0 l 1,2,-1
 74 227 l 1,3,-1
 786 227 l 1,4,-1
 786 655 l 1,5,-1
 133 655 l 1,6,-1
 133 878 l 1,7,-1
 786 878 l 1,8,-1
 786 1490 l 1,9,-1
 1052 1490 l 1,0,-1
EndSplineSet
Position2: "'cpsp' Capital Spacing in Latin lookup 0 subtable" dx=0 dy=0 dh=0 dv=0
EndChar

StartChar: G
Encoding: 1114113 -1 141
Width: 1519
GlyphClass: 2
Flags: W
AnchorPoint: "Anchor-1" 769 1490 basechar 0
AnchorPoint: "Anchor-0" 767 0 basechar 0
LayerCount: 2
Fore
SplineSet
782 -22 m 0,0,1
 577 -22 577 -22 420.5 73 c 128,-1,2
 264 168 264 168 176 340.5 c 128,-1,3
 88 513 88 513 88 744 c 0,4,5
 88 981 88 981 178 1153.5 c 128,-1,6
 268 1326 268 1326 424 1419 c 128,-1,7
 580 1512 580 1512 777 1512 c 0,8,9
 901 1512 901 1512 1009 1475.5 c 128,-1,10
 1117 1439 1117 1439 1201.5 1371.5 c 128,-1,11
 1286 1304 1286 1304 1341 1211 c 128,-1,12
 1396 1118 1396 1118 1412 1006 c 1,13,-1
 1141 1006 l 1,14,15
 1125 1067 1125 1067 1093.5 1116.5 c 128,-1,16
 1062 1166 1062 1166 1015.5 1201 c 128,-1,17
 969 1236 969 1236 910 1255 c 128,-1,18
 851 1274 851 1274 782 1274 c 0,19,20
 655 1274 655 1274 559 1210.5 c 128,-1,21
 463 1147 463 1147 409.5 1028.5 c 128,-1,22
 356 910 356 910 356 745 c 256,23,24
 356 580 356 580 409 462 c 128,-1,25
 462 344 462 344 559 280 c 128,-1,26
 656 216 656 216 786 216 c 0,27,28
 899 216 899 216 984 261 c 128,-1,29
 1069 306 1069 306 1116.5 386.5 c 128,-1,30
 1164 467 1164 467 1164 576 c 1,31,-1
 1229 568 l 1,32,-1
 818 568 l 1,33,-1
 818 778 l 1,34,-1
 1423 778 l 1,35,-1
 1423 598 l 2,36,37
 1423 412 1423 412 1340.5 272.5 c 128,-1,38
 1258 133 1258 133 1113 55.5 c 128,-1,39
 968 -22 968 -22 782 -22 c 0,0,1
EndSplineSet
Substitution2: "'c2sc' Capitals to Small Capitals in Latin lookup 68 subtable" g.sc
Substitution2: "'cv10' Character Variants 10 in Latin lookup 64 subtable" G.1
Substitution2: "'ss06' Style Set 6 in Latin lookup 52 subtable" G.squared
Substitution2: "'ss05' Style Set 5 in Latin lookup 51 subtable" uni24BC
Substitution2: "'salt' Stylistic Alternatives in Latin lookup 46 subtable" G.1
Substitution2: "'aalt' Access All Alternates in Latin lookup 0 subtable" g.sc
Position2: "'cpsp' Capital Spacing in Latin lookup 0 subtable" dx=0 dy=0 dh=0 dv=0
EndChar

StartChar: uni0193
Encoding: 1114115 -1 143
Width: 1519
GlyphClass: 2
Flags: W
AnchorPoint: "Anchor-1" 769 1490 basechar 0
AnchorPoint: "Anchor-0" 767 0 basechar 0
LayerCount: 2
Fore
SplineSet
1160 1006 m 1,0,-1
 1160 1385 l 2,1,2
 1160 1531 1160 1531 1243.5 1605.5 c 128,-1,3
 1327 1680 1327 1680 1492 1680 c 0,4,5
 1536 1680 1536 1680 1571.5 1678.5 c 128,-1,6
 1607 1677 1607 1677 1633 1673 c 1,7,-1
 1633 1472 l 1,8,9
 1614 1474 1614 1474 1586.5 1474.5 c 128,-1,10
 1559 1475 1559 1475 1536 1475 c 0,11,12
 1471 1475 1471 1475 1441.5 1452.5 c 128,-1,13
 1412 1430 1412 1430 1412 1381 c 2,14,-1
 1412 1006 l 1,15,-1
 1160 1006 l 1,0,-1
782 -22 m 0,16,17
 577 -22 577 -22 420.5 73 c 128,-1,18
 264 168 264 168 176 340.5 c 128,-1,19
 88 513 88 513 88 744 c 0,20,21
 88 981 88 981 178 1153.5 c 128,-1,22
 268 1326 268 1326 424 1419 c 128,-1,23
 580 1512 580 1512 777 1512 c 0,24,25
 901 1512 901 1512 1009 1475.5 c 128,-1,26
 1117 1439 1117 1439 1201.5 1371.5 c 128,-1,27
 1286 1304 1286 1304 1341 1211 c 128,-1,28
 1396 1118 1396 1118 1412 1006 c 1,29,-1
 1141 1006 l 1,30,31
 1125 1067 1125 1067 1093.5 1116.5 c 128,-1,32
 1062 1166 1062 1166 1015.5 1201 c 128,-1,33
 969 1236 969 1236 910 1255 c 128,-1,34
 851 1274 851 1274 782 1274 c 0,35,36
 655 1274 655 1274 559 1210.5 c 128,-1,37
 463 1147 463 1147 409.5 1028.5 c 128,-1,38
 356 910 356 910 356 745 c 256,39,40
 356 580 356 580 409 462 c 128,-1,41
 462 344 462 344 559 280 c 128,-1,42
 656 216 656 216 786 216 c 0,43,44
 899 216 899 216 984 261 c 128,-1,45
 1069 306 1069 306 1116.5 386.5 c 128,-1,46
 1164 467 1164 467 1164 576 c 1,47,-1
 1229 568 l 1,48,-1
 818 568 l 1,49,-1
 818 778 l 1,50,-1
 1423 778 l 1,51,-1
 1423 598 l 2,52,53
 1423 412 1423 412 1340.5 272.5 c 128,-1,54
 1258 133 1258 133 1113 55.5 c 128,-1,55
 968 -22 968 -22 782 -22 c 0,16,17
EndSplineSet
Substitution2: "'c2sc' Capitals to Small Capitals in Latin lookup 68 subtable" uni0260.sc
Substitution2: "'cv10' Character Variants 10 in Latin lookup 64 subtable" uni0193.1
Substitution2: "'salt' Stylistic Alternatives in Latin lookup 46 subtable" uni0193.1
Substitution2: "'aalt' Access All Alternates in Latin lookup 0 subtable" uni0260.sc
Position2: "'cpsp' Capital Spacing in Latin lookup 0 subtable" dx=0 dy=0 dh=0 dv=0
EndChar

StartChar: G.1
Encoding: 57346 57346 151
AltUni2: 000047.ffffffff.0
Width: 1540
GlyphClass: 2
Flags: W
AnchorPoint: "Anchor-1" 770 1490 basechar 0
AnchorPoint: "Anchor-0" 767 0 basechar 0
LayerCount: 2
Fore
SplineSet
759 -22 m 0,0,1
 567 -22 567 -22 415.5 73 c 128,-1,2
 264 168 264 168 176 340.5 c 128,-1,3
 88 513 88 513 88 744 c 0,4,5
 88 981 88 981 178 1153.5 c 128,-1,6
 268 1326 268 1326 424 1419 c 128,-1,7
 580 1512 580 1512 777 1512 c 0,8,9
 901 1512 901 1512 1009 1475.5 c 128,-1,10
 1117 1439 1117 1439 1201.5 1371.5 c 128,-1,11
 1286 1304 1286 1304 1341 1211 c 128,-1,12
 1396 1118 1396 1118 1412 1006 c 1,13,-1
 1141 1006 l 1,14,15
 1125 1067 1125 1067 1093.5 1116.5 c 128,-1,16
 1062 1166 1062 1166 1015.5 1201 c 128,-1,17
 969 1236 969 1236 910 1255 c 128,-1,18
 851 1274 851 1274 782 1274 c 0,19,20
 655 1274 655 1274 559 1210.5 c 128,-1,21
 463 1147 463 1147 409.5 1028.5 c 128,-1,22
 356 910 356 910 356 745 c 256,23,24
 356 580 356 580 409.5 462 c 128,-1,25
 463 344 463 344 560 280 c 128,-1,26
 657 216 657 216 787 216 c 0,27,28
 901 216 901 216 986 262 c 128,-1,29
 1071 308 1071 308 1119 391.5 c 128,-1,30
 1167 475 1167 475 1167 591 c 1,31,-1
 1258 591 l 1,32,-1
 1258 475 l 2,33,34
 1258 374 1258 374 1227.5 284.5 c 128,-1,35
 1197 195 1197 195 1134.5 126 c 128,-1,36
 1072 57 1072 57 978.5 17.5 c 128,-1,37
 885 -22 885 -22 759 -22 c 0,0,1
1240 0 m 1,38,-1
 1203 330 l 1,39,-1
 1203 568 l 1,40,-1
 818 568 l 1,41,-1
 818 778 l 1,42,-1
 1424 778 l 1,43,-1
 1424 0 l 1,44,-1
 1240 0 l 1,38,-1
EndSplineSet
Substitution2: "'ss06' Style Set 6 in Latin lookup 52 subtable" G.1.squared
EndChar

StartChar: uni0193.1
Encoding: 57348 57348 153
AltUni2: 000193.ffffffff.0
Width: 1540
GlyphClass: 2
Flags: W
AnchorPoint: "Anchor-1" 770 1490 basechar 0
AnchorPoint: "Anchor-0" 767 0 basechar 0
LayerCount: 2
Fore
SplineSet
1160 1006 m 1,0,-1
 1160 1385 l 2,1,2
 1160 1531 1160 1531 1243.5 1605.5 c 128,-1,3
 1327 1680 1327 1680 1492 1680 c 0,4,5
 1536 1680 1536 1680 1571.5 1678.5 c 128,-1,6
 1607 1677 1607 1677 1633 1673 c 1,7,-1
 1633 1472 l 1,8,9
 1614 1474 1614 1474 1586.5 1474.5 c 128,-1,10
 1559 1475 1559 1475 1536 1475 c 0,11,12
 1471 1475 1471 1475 1441.5 1452.5 c 128,-1,13
 1412 1430 1412 1430 1412 1381 c 2,14,-1
 1412 1006 l 1,15,-1
 1160 1006 l 1,0,-1
759 -22 m 0,16,17
 567 -22 567 -22 415.5 73 c 128,-1,18
 264 168 264 168 176 340.5 c 128,-1,19
 88 513 88 513 88 744 c 0,20,21
 88 981 88 981 178 1153.5 c 128,-1,22
 268 1326 268 1326 424 1419 c 128,-1,23
 580 1512 580 1512 777 1512 c 0,24,25
 901 1512 901 1512 1009 1475.5 c 128,-1,26
 1117 1439 1117 1439 1201.5 1371.5 c 128,-1,27
 1286 1304 1286 1304 1341 1211 c 128,-1,28
 1396 1118 1396 1118 1412 1006 c 1,29,-1
 1141 1006 l 1,30,31
 1125 1067 1125 1067 1093.5 1116.5 c 128,-1,32
 1062 1166 1062 1166 1015.5 1201 c 128,-1,33
 969 1236 969 1236 910 1255 c 128,-1,34
 851 1274 851 1274 782 1274 c 0,35,36
 655 1274 655 1274 559 1210.5 c 128,-1,37
 463 1147 463 1147 409.5 1028.5 c 128,-1,38
 356 910 356 910 356 745 c 256,39,40
 356 580 356 580 409.5 462 c 128,-1,41
 463 344 463 344 560 280 c 128,-1,42
 657 216 657 216 787 216 c 0,43,44
 901 216 901 216 986 262 c 128,-1,45
 1071 308 1071 308 1119 391.5 c 128,-1,46
 1167 475 1167 475 1167 591 c 1,47,-1
 1258 591 l 1,48,-1
 1258 475 l 2,49,50
 1258 374 1258 374 1227.5 284.5 c 128,-1,51
 1197 195 1197 195 1134.5 126 c 128,-1,52
 1072 57 1072 57 978.5 17.5 c 128,-1,53
 885 -22 885 -22 759 -22 c 0,16,17
1240 0 m 1,54,-1
 1203 330 l 1,55,-1
 1203 568 l 1,56,-1
 818 568 l 1,57,-1
 818 778 l 1,58,-1
 1424 778 l 1,59,-1
 1424 0 l 1,60,-1
 1240 0 l 1,54,-1
EndSplineSet
EndChar

StartChar: H
Encoding: 72 72 161
Width: 1495
GlyphClass: 2
Flags: W
AnchorPoint: "Anchor-3" 270 1 basechar 0
AnchorPoint: "Anchor-1" 748 1490 basechar 0
AnchorPoint: "Anchor-0" 748 0 basechar 0
LayerCount: 2
Fore
SplineSet
137 0 m 1,0,-1
 137 1490 l 1,1,-1
 403 1490 l 1,2,-1
 403 875 l 1,3,-1
 1093 875 l 1,4,-1
 1093 1490 l 1,5,-1
 1359 1490 l 1,6,-1
 1359 0 l 1,7,-1
 1093 0 l 1,8,-1
 1093 648 l 1,9,-1
 403 648 l 1,10,-1
 403 0 l 1,11,-1
 137 0 l 1,0,-1
EndSplineSet
Substitution2: "'c2sc' Capitals to Small Capitals in Latin lookup 68 subtable" h.sc
Substitution2: "'ss06' Style Set 6 in Latin lookup 52 subtable" H.squared
Substitution2: "'ss05' Style Set 5 in Latin lookup 51 subtable" uni24BD
Substitution2: "'aalt' Access All Alternates in Latin lookup 0 subtable" h.sc
Position2: "'cpsp' Capital Spacing in Latin lookup 0 subtable" dx=0 dy=0 dh=0 dv=0
EndChar

StartChar: Hbar
Encoding: 294 294 169
Width: 1595
GlyphClass: 2
Flags: W
AnchorPoint: "Anchor-3" 319 1 basechar 0
AnchorPoint: "Anchor-1" 797 1490 basechar 0
AnchorPoint: "Anchor-0" 797 0 basechar 0
LayerCount: 2
Fore
SplineSet
1531 1209 m 1,0,-1
 1531 1043 l 1,1,-1
 65 1043 l 1,2,-1
 65 1209 l 1,3,-1
 1531 1209 l 1,0,-1
186 0 m 1,4,-1
 186 1490 l 1,5,-1
 452 1490 l 1,6,-1
 452 875 l 1,7,-1
 1142 875 l 1,8,-1
 1142 1490 l 1,9,-1
 1408 1490 l 1,10,-1
 1408 0 l 1,11,-1
 1142 0 l 1,12,-1
 1142 648 l 1,13,-1
 452 648 l 1,14,-1
 452 0 l 1,15,-1
 186 0 l 1,4,-1
EndSplineSet
Position2: "'cpsp' Capital Spacing in Latin lookup 0 subtable" dx=0 dy=0 dh=0 dv=0
EndChar

StartChar: uni04C7
Encoding: 1223 1223 170
Width: 1495
GlyphClass: 2
Flags: W
AnchorPoint: "Anchor-3" 270 1 basechar 0
AnchorPoint: "Anchor-1" 748 1490 basechar 0
AnchorPoint: "Anchor-0" 748 0 basechar 0
LayerCount: 2
Fore
SplineSet
880 -418 m 1,0,-1
 880 -205 l 1,1,2
 899 -208 899 -208 926.5 -208.5 c 128,-1,3
 954 -209 954 -209 976 -209 c 0,4,5
 1042 -209 1042 -209 1067.5 -187 c 128,-1,6
 1093 -165 1093 -165 1093 -115 c 2,7,-1
 1093 125 l 1,8,-1
 1359 125 l 1,9,-1
 1359 -129 l 2,10,11
 1359 -275 1359 -275 1274.5 -350 c 128,-1,12
 1190 -425 1190 -425 1023 -425 c 0,13,14
 980 -425 980 -425 943 -423 c 128,-1,15
 906 -421 906 -421 880 -418 c 1,0,-1
137 0 m 1,16,-1
 137 1490 l 1,17,-1
 403 1490 l 1,18,-1
 403 875 l 1,19,-1
 1093 875 l 1,20,-1
 1093 1490 l 1,21,-1
 1359 1490 l 1,22,-1
 1359 0 l 1,23,-1
 1093 0 l 1,24,-1
 1093 648 l 1,25,-1
 403 648 l 1,26,-1
 403 0 l 1,27,-1
 137 0 l 1,16,-1
EndSplineSet
Position2: "'cpsp' Capital Spacing in Latin lookup 0 subtable" dx=0 dy=0 dh=0 dv=0
EndChar

StartChar: uni04A4
Encoding: 1188 1188 173
Width: 2013
GlyphClass: 2
Flags: W
AnchorPoint: "Anchor-3" 270 1 basechar 0
AnchorPoint: "Anchor-1" 748 1490 basechar 0
AnchorPoint: "Anchor-0" 748 0 basechar 0
LayerCount: 2
Fore
SplineSet
1948 1490 m 1,0,-1
 1948 1270 l 1,1,-1
 1306 1270 l 1,2,-1
 1101 1490 l 1,3,-1
 1948 1490 l 1,0,-1
137 0 m 1,4,-1
 137 1490 l 1,5,-1
 403 1490 l 1,6,-1
 403 875 l 1,7,-1
 1093 875 l 1,8,-1
 1093 1490 l 1,9,-1
 1359 1490 l 1,10,-1
 1359 0 l 1,11,-1
 1093 0 l 1,12,-1
 1093 648 l 1,13,-1
 403 648 l 1,14,-1
 403 0 l 1,15,-1
 137 0 l 1,4,-1
EndSplineSet
Position2: "'cpsp' Capital Spacing in Latin lookup 0 subtable" dx=0 dy=0 dh=0 dv=0
EndChar

StartChar: uni01F6
Encoding: 502 502 174
Width: 2228
Flags: W
LayerCount: 2
Fore
SplineSet
1600 -21 m 256,0,1
 1448 -21 1448 -21 1333.5 36 c 128,-1,2
 1219 93 1219 93 1156 199.5 c 128,-1,3
 1093 306 1093 306 1093 454 c 2,4,-1
 1093 640 l 1,5,-1
 403 640 l 1,6,-1
 403 0 l 1,7,-1
 137 0 l 1,8,-1
 137 1490 l 1,9,-1
 403 1490 l 1,10,-1
 403 867 l 1,11,-1
 1093 867 l 1,12,-1
 1093 1490 l 1,13,-1
 1359 1490 l 1,14,-1
 1359 461 l 2,15,16
 1359 377 1359 377 1387.5 319.5 c 128,-1,17
 1416 262 1416 262 1470.5 232.5 c 128,-1,18
 1525 203 1525 203 1601 203 c 0,19,20
 1679 203 1679 203 1733 232.5 c 128,-1,21
 1787 262 1787 262 1815 319.5 c 128,-1,22
 1843 377 1843 377 1843 461 c 2,23,-1
 1843 1077 l 1,24,-1
 2103 1077 l 1,25,-1
 2103 454 l 2,26,27
 2103 305 2103 305 2040.5 198.5 c 128,-1,28
 1978 92 1978 92 1865 35.5 c 128,-1,29
 1752 -21 1752 -21 1600 -21 c 256,0,1
EndSplineSet
Position2: "'cpsp' Capital Spacing in Latin lookup 0 subtable" dx=0 dy=0 dh=0 dv=0
EndChar

StartChar: I
Encoding: 73 73 197
Width: 539
GlyphClass: 2
Flags: W
AnchorPoint: "Anchor-4" 403 0 basechar 0
AnchorPoint: "Anchor-1" 271 1490 basechar 0
AnchorPoint: "Anchor-0" 270 0 basechar 0
LayerCount: 2
Fore
SplineSet
403 1490 m 1,0,-1
 403 0 l 1,1,-1
 137 0 l 1,2,-1
 137 1490 l 1,3,-1
 403 1490 l 1,0,-1
EndSplineSet
Substitution2: "'c2sc' Capitals to Small Capitals in Latin lookup 68 subtable" i.sc
Substitution2: "'cv08' Character Variants 08 in Latin lookup 62 subtable" I.1
Substitution2: "'ss06' Style Set 6 in Latin lookup 52 subtable" I.squared
Substitution2: "'ss05' Style Set 5 in Latin lookup 51 subtable" uni24BE
Substitution2: "'ss04' Style Set 4 in Latin lookup 50 subtable" I.1
Substitution2: "'ss02' Style Set 2 in Latin lookup 48 subtable" I.1
Substitution2: "'salt' Stylistic Alternatives in Latin lookup 46 subtable" I.1
Substitution2: "'aalt' Access All Alternates in Latin lookup 0 subtable" i.sc
Position2: "'cpsp' Capital Spacing in Latin lookup 0 subtable" dx=0 dy=0 dh=0 dv=0
EndChar

StartChar: I.1
Encoding: 57356 57356 235
Width: 859
GlyphClass: 2
Flags: W
AnchorPoint: "Anchor-4" 785 0 basechar 0
AnchorPoint: "Anchor-1" 430 1490 basechar 0
AnchorPoint: "Anchor-0" 430 0 basechar 0
LayerCount: 2
Fore
SplineSet
74 0 m 1,0,-1
 74 222 l 1,1,-1
 297 222 l 1,2,-1
 297 1268 l 1,3,-1
 74 1268 l 1,4,-1
 74 1490 l 1,5,-1
 785 1490 l 1,6,-1
 785 1268 l 1,7,-1
 563 1268 l 1,8,-1
 563 222 l 1,9,-1
 785 222 l 1,10,-1
 785 0 l 1,11,-1
 74 0 l 1,0,-1
EndSplineSet
EndChar

StartChar: J
Encoding: 74 74 267
Width: 1160
GlyphClass: 2
Flags: W
AnchorPoint: "Anchor-1" 894 1490 basechar 0
LayerCount: 2
Fore
SplineSet
548 -21 m 0,0,1
 330 -21 330 -21 201 99 c 128,-1,2
 72 219 72 219 72 441 c 2,3,-1
 72 531 l 1,4,-1
 332 531 l 1,5,-1
 332 439 l 2,6,7
 332 324 332 324 390 263.5 c 128,-1,8
 448 203 448 203 547 203 c 0,9,10
 644 203 644 203 702.5 263.5 c 128,-1,11
 761 324 761 324 761 439 c 2,12,-1
 761 1490 l 1,13,-1
 1026 1490 l 1,14,-1
 1026 439 l 2,15,16
 1026 218 1026 218 896.5 98.5 c 128,-1,17
 767 -21 767 -21 548 -21 c 0,0,1
EndSplineSet
Substitution2: "'ss06' Style Set 6 in Latin lookup 52 subtable" J.squared
Substitution2: "'ss05' Style Set 5 in Latin lookup 51 subtable" uni24BF
Position2: "'cpsp' Capital Spacing in Latin lookup 0 subtable" dx=0 dy=0 dh=0 dv=0
EndChar

StartChar: K
Encoding: 75 75 272
Width: 1405
GlyphClass: 2
Flags: W
AnchorPoint: "Anchor-1" 705 1490 basechar 0
AnchorPoint: "Anchor-0" 705 0 basechar 0
LayerCount: 2
Fore
SplineSet
328 358 m 1,0,-1
 328 651 l 1,1,2
 378 721 378 721 426.5 784.5 c 128,-1,3
 475 848 475 848 527.5 911.5 c 128,-1,4
 580 975 580 975 637 1043 c 2,5,-1
 1032 1490 l 1,6,-1
 1360 1490 l 1,7,-1
 728 779 l 1,8,-1
 709 783 l 1,9,-1
 328 358 l 1,0,-1
137 0 m 1,10,-1
 137 1490 l 1,11,-1
 403 1490 l 1,12,-1
 403 1046 l 1,13,-1
 401 687 l 1,14,-1
 403 559 l 1,15,-1
 403 0 l 1,16,-1
 137 0 l 1,10,-1
1059 0 m 1,17,-1
 583 704 l 1,18,-1
 746 906 l 1,19,-1
 1371 0 l 1,20,-1
 1059 0 l 1,17,-1
EndSplineSet
Substitution2: "'ss06' Style Set 6 in Latin lookup 52 subtable" K.squared
Substitution2: "'ss05' Style Set 5 in Latin lookup 51 subtable" uni24C0
Position2: "'cpsp' Capital Spacing in Latin lookup 0 subtable" dx=0 dy=0 dh=0 dv=0
EndChar

StartChar: uni04A0
Encoding: 1184 1184 278
Width: 1745
GlyphClass: 2
Flags: W
AnchorPoint: "Anchor-1" 1020 1490 basechar 0
LayerCount: 2
Fore
SplineSet
605 1490 m 1,0,-1
 605 1266 l 1,1,-1
 65 1266 l 1,2,-1
 65 1490 l 1,3,-1
 605 1490 l 1,0,-1
477 0 m 1,4,-1
 477 1490 l 1,5,-1
 743 1490 l 1,6,-1
 743 873 l 1,7,-1
 918 873 l 1,8,-1
 1372 1490 l 1,9,-1
 1686 1490 l 1,10,-1
 1139 767 l 1,11,-1
 1711 0 l 1,12,-1
 1397 0 l 1,13,-1
 922 647 l 1,14,-1
 743 647 l 1,15,-1
 743 0 l 1,16,-1
 477 0 l 1,4,-1
EndSplineSet
Position2: "'cpsp' Capital Spacing in Latin lookup 0 subtable" dx=0 dy=0 dh=0 dv=0
EndChar

StartChar: uni0198
Encoding: 408 408 280
Width: 1424
Flags: W
LayerCount: 2
Fore
SplineSet
137 0 m 1,0,-1
 137 1490 l 1,1,-1
 400 1490 l 1,2,-1
 400 812 l 1,3,-1
 419 812 l 1,4,-1
 947 1380 l 2,5,6
 1017 1453 1017 1453 1096 1484 c 128,-1,7
 1175 1515 1175 1515 1258 1505.5 c 128,-1,8
 1341 1496 1341 1496 1422 1446 c 1,9,-1
 1333 1257 l 1,10,11
 1276 1288 1276 1288 1229.5 1275 c 128,-1,12
 1183 1262 1183 1262 1131 1207 c 2,13,-1
 752 809 l 1,14,-1
 1370 0 l 1,15,-1
 1052 0 l 1,16,-1
 584 622 l 1,17,-1
 400 421 l 1,18,-1
 400 0 l 1,19,-1
 137 0 l 1,0,-1
EndSplineSet
Position2: "'cpsp' Capital Spacing in Latin lookup 0 subtable" dx=0 dy=0 dh=0 dv=0
EndChar

StartChar: L
Encoding: 76 76 282
Width: 1142
GlyphClass: 2
Flags: W
AnchorPoint: "Anchor-1" 270 1490 basechar 0
AnchorPoint: "Anchor-0" 599 0 basechar 0
LayerCount: 2
Fore
SplineSet
137 0 m 1,0,-1
 137 1490 l 1,1,-1
 403 1490 l 1,2,-1
 403 227 l 1,3,-1
 1077 227 l 1,4,-1
 1077 0 l 1,5,-1
 137 0 l 1,0,-1
EndSplineSet
Substitution2: "'c2sc' Capitals to Small Capitals in Latin lookup 68 subtable" l.sc
Substitution2: "'ss06' Style Set 6 in Latin lookup 52 subtable" L.squared
Substitution2: "'ss05' Style Set 5 in Latin lookup 51 subtable" uni24C1
Substitution2: "'aalt' Access All Alternates in Latin lookup 0 subtable" l.sc
Position2: "'cpsp' Capital Spacing in Latin lookup 0 subtable" dx=0 dy=0 dh=0 dv=0
EndChar

StartChar: M
Encoding: 77 77 293
Width: 1847
GlyphClass: 2
Flags: W
AnchorPoint: "Anchor-1" 923 1490 basechar 0
AnchorPoint: "Anchor-0" 923 0 basechar 0
LayerCount: 2
Fore
SplineSet
137 0 m 1,0,-1
 137 1490 l 1,1,-1
 529 1490 l 1,2,-1
 815 714 l 2,3,4
 829 672 829 672 848.5 607.5 c 128,-1,5
 868 543 868 543 888 470.5 c 128,-1,6
 908 398 908 398 926 330.5 c 128,-1,7
 944 263 944 263 956 214 c 1,8,-1
 896 214 l 1,9,10
 908 263 908 263 925.5 330 c 128,-1,11
 943 397 943 397 963 469.5 c 128,-1,12
 983 542 983 542 1002.5 606.5 c 128,-1,13
 1022 671 1022 671 1036 714 c 2,14,-1
 1319 1490 l 1,15,-1
 1711 1490 l 1,16,-1
 1711 0 l 1,17,-1
 1447 0 l 1,18,-1
 1447 757 l 2,19,20
 1447 805 1447 805 1448.5 871.5 c 128,-1,21
 1450 938 1450 938 1452 1012.5 c 128,-1,22
 1454 1087 1454 1087 1456 1163.5 c 128,-1,23
 1458 1240 1458 1240 1458 1309 c 1,24,-1
 1485 1309 l 1,25,26
 1463 1232 1463 1232 1439 1152 c 128,-1,27
 1415 1072 1415 1072 1392 997.5 c 128,-1,28
 1369 923 1369 923 1349 860.5 c 128,-1,29
 1329 798 1329 798 1314 757 c 2,30,-1
 1035 0 l 1,31,-1
 813 0 l 1,32,-1
 530 757 l 2,33,34
 516 799 516 799 496 860.5 c 128,-1,35
 476 922 476 922 452.5 996 c 128,-1,36
 429 1070 429 1070 404.5 1150.5 c 128,-1,37
 380 1231 380 1231 356 1309 c 1,38,-1
 387 1309 l 1,39,40
 388 1242 388 1242 390.5 1166 c 128,-1,41
 393 1090 393 1090 394.5 1015 c 128,-1,42
 396 940 396 940 397.5 873 c 128,-1,43
 399 806 399 806 399 757 c 2,44,-1
 399 0 l 1,45,-1
 137 0 l 1,0,-1
EndSplineSet
Substitution2: "'c2sc' Capitals to Small Capitals in Latin lookup 68 subtable" m.sc
Substitution2: "'ss06' Style Set 6 in Latin lookup 52 subtable" M.squared
Substitution2: "'ss05' Style Set 5 in Latin lookup 51 subtable" uni24C2
Substitution2: "'aalt' Access All Alternates in Latin lookup 0 subtable" m.sc
Position2: "'cpsp' Capital Spacing in Latin lookup 0 subtable" dx=0 dy=0 dh=0 dv=0
EndChar

StartChar: N
Encoding: 78 78 301
Width: 1516
GlyphClass: 2
Flags: W
AnchorPoint: "Anchor-1" 759 1490 basechar 0
AnchorPoint: "Anchor-0" 759 0 basechar 0
LayerCount: 2
Fore
SplineSet
137 0 m 1,0,-1
 137 1490 l 1,1,-1
 431 1490 l 1,2,-1
 950 665 l 2,3,4
 977 622 977 622 1011 562 c 128,-1,5
 1045 502 1045 502 1083 429 c 128,-1,6
 1121 356 1121 356 1157 278 c 1,7,-1
 1128 246 l 1,8,9
 1122 319 1122 319 1118.5 405 c 128,-1,10
 1115 491 1115 491 1113 568.5 c 128,-1,11
 1111 646 1111 646 1111 693 c 2,12,-1
 1111 1490 l 1,13,-1
 1379 1490 l 1,14,-1
 1379 0 l 1,15,-1
 1084 0 l 1,16,-1
 615 743 l 2,17,18
 582 799 582 799 542 867 c 128,-1,19
 502 935 502 935 454.5 1021.5 c 128,-1,20
 407 1108 407 1108 347 1220 c 1,21,-1
 388 1240 l 1,22,23
 394 1128 394 1128 397.5 1032.5 c 128,-1,24
 401 937 401 937 403.5 862.5 c 128,-1,25
 406 788 406 788 406 744 c 2,26,-1
 406 0 l 1,27,-1
 137 0 l 1,0,-1
EndSplineSet
Substitution2: "'c2sc' Capitals to Small Capitals in Latin lookup 68 subtable" n.sc
Substitution2: "'ss06' Style Set 6 in Latin lookup 52 subtable" N.squared
Substitution2: "'ss05' Style Set 5 in Latin lookup 51 subtable" uni24C3
Substitution2: "'aalt' Access All Alternates in Latin lookup 0 subtable" n.sc
Position2: "'cpsp' Capital Spacing in Latin lookup 0 subtable" dx=0 dy=0 dh=0 dv=0
EndChar

StartChar: Nhook
Encoding: 413 413 311
Width: 1516
GlyphClass: 2
Flags: W
AnchorPoint: "Anchor-1" 759 1490 basechar 0
AnchorPoint: "Anchor-0" 759 0 basechar 0
LayerCount: 2
Fore
SplineSet
-76 -418 m 1,0,-1
 -76 -205 l 1,1,2
 -57 -208 -57 -208 -29.5 -208.5 c 128,-1,3
 -2 -209 -2 -209 20 -209 c 0,4,5
 86 -209 86 -209 111.5 -187 c 128,-1,6
 137 -165 137 -165 137 -115 c 2,7,-1
 137 125 l 1,8,-1
 403 125 l 1,9,-1
 403 -129 l 2,10,11
 403 -275 403 -275 318.5 -350 c 128,-1,12
 234 -425 234 -425 67 -425 c 0,13,14
 24 -425 24 -425 -13 -423 c 128,-1,15
 -50 -421 -50 -421 -76 -418 c 1,0,-1
137 0 m 1,16,-1
 137 1490 l 1,17,-1
 431 1490 l 1,18,-1
 950 665 l 2,19,20
 977 622 977 622 1011 562 c 128,-1,21
 1045 502 1045 502 1083 429 c 128,-1,22
 1121 356 1121 356 1157 278 c 1,23,-1
 1128 246 l 1,24,25
 1122 319 1122 319 1118.5 405 c 128,-1,26
 1115 491 1115 491 1113 568.5 c 128,-1,27
 1111 646 1111 646 1111 693 c 2,28,-1
 1111 1490 l 1,29,-1
 1379 1490 l 1,30,-1
 1379 0 l 1,31,-1
 1084 0 l 1,32,-1
 615 743 l 2,33,34
 582 799 582 799 542 867 c 128,-1,35
 502 935 502 935 454.5 1021.5 c 128,-1,36
 407 1108 407 1108 347 1220 c 1,37,-1
 388 1240 l 1,38,39
 394 1128 394 1128 397.5 1032.5 c 128,-1,40
 401 937 401 937 403.5 862.5 c 128,-1,41
 406 788 406 788 406 744 c 2,42,-1
 406 0 l 1,43,-1
 137 0 l 1,16,-1
EndSplineSet
Position2: "'cpsp' Capital Spacing in Latin lookup 0 subtable" dx=0 dy=0 dh=0 dv=0
EndChar

StartChar: Eng
Encoding: 330 330 312
Width: 1516
GlyphClass: 2
Flags: W
AnchorPoint: "Anchor-1" 759 1490 basechar 0
AnchorPoint: "Anchor-0" 759 0 basechar 0
LayerCount: 2
Fore
SplineSet
904 -418 m 1,0,-1
 904 -205 l 1,1,2
 922 -208 922 -208 949.5 -208.5 c 128,-1,3
 977 -209 977 -209 999 -209 c 0,4,5
 1065 -209 1065 -209 1090.5 -187 c 128,-1,6
 1116 -165 1116 -165 1116 -115 c 2,7,-1
 1116 125 l 1,8,-1
 1382 125 l 1,9,-1
 1382 -129 l 2,10,11
 1382 -275 1382 -275 1297.5 -350 c 128,-1,12
 1213 -425 1213 -425 1047 -425 c 0,13,14
 1003 -425 1003 -425 966 -423 c 128,-1,15
 929 -421 929 -421 904 -418 c 1,0,-1
137 0 m 1,16,-1
 137 1490 l 1,17,-1
 431 1490 l 1,18,-1
 950 665 l 2,19,20
 977 622 977 622 1011 562 c 128,-1,21
 1045 502 1045 502 1083 429 c 128,-1,22
 1121 356 1121 356 1157 278 c 1,23,-1
 1128 246 l 1,24,25
 1122 319 1122 319 1118.5 405 c 128,-1,26
 1115 491 1115 491 1113 568.5 c 128,-1,27
 1111 646 1111 646 1111 693 c 2,28,-1
 1111 1490 l 1,29,-1
 1379 1490 l 1,30,-1
 1379 0 l 1,31,-1
 1084 0 l 1,32,-1
 615 743 l 2,33,34
 582 799 582 799 542 867 c 128,-1,35
 502 935 502 935 454.5 1021.5 c 128,-1,36
 407 1108 407 1108 347 1220 c 1,37,-1
 388 1240 l 1,38,39
 394 1128 394 1128 397.5 1032.5 c 128,-1,40
 401 937 401 937 403.5 862.5 c 128,-1,41
 406 788 406 788 406 744 c 2,42,-1
 406 0 l 1,43,-1
 137 0 l 1,16,-1
EndSplineSet
Position2: "'cpsp' Capital Spacing in Latin lookup 0 subtable" dx=0 dy=0 dh=0 dv=0
EndChar

StartChar: uni0418
Encoding: 1048 1048 313
Width: 1516
GlyphClass: 2
Flags: W
AnchorPoint: "Anchor-1" 752 1490 basechar 0
AnchorPoint: "Anchor-0" 757 0 basechar 0
LayerCount: 2
Fore
SplineSet
1379 0 m 1,0,-1
 1110 0 l 1,1,-1
 1110 744 l 2,2,3
 1110 788 1110 788 1112 862.5 c 128,-1,4
 1114 937 1114 937 1118.5 1032.5 c 128,-1,5
 1123 1128 1123 1128 1128 1240 c 1,6,-1
 1168 1220 l 1,7,8
 1109 1108 1109 1108 1061 1021.5 c 128,-1,9
 1013 935 1013 935 974 867 c 128,-1,10
 935 799 935 799 900 743 c 2,11,-1
 432 0 l 1,12,-1
 137 0 l 1,13,-1
 137 1490 l 1,14,-1
 405 1490 l 1,15,-1
 405 693 l 2,16,17
 405 646 405 646 403 568.5 c 128,-1,18
 401 491 401 491 397 405 c 128,-1,19
 393 319 393 319 388 246 c 1,20,-1
 358 278 l 1,21,22
 395 356 395 356 432.5 429 c 128,-1,23
 470 502 470 502 504.5 562 c 128,-1,24
 539 622 539 622 565 665 c 2,25,-1
 1085 1490 l 1,26,-1
 1379 1490 l 1,27,-1
 1379 0 l 1,0,-1
EndSplineSet
Position2: "'cpsp' Capital Spacing in Latin lookup 0 subtable" dx=0 dy=0 dh=0 dv=0
EndChar

StartChar: O
Encoding: 79 79 322
Width: 1553
GlyphClass: 2
Flags: W
AnchorPoint: "Anchor-4" 1465 744 basechar 0
AnchorPoint: "Anchor-1" 777 1490 basechar 0
AnchorPoint: "Anchor-0" 777 0 basechar 0
LayerCount: 2
Fore
SplineSet
777 -22 m 256,0,1
 580 -22 580 -22 423.5 71.5 c 128,-1,2
 267 165 267 165 177.5 337 c 128,-1,3
 88 509 88 509 88 744 c 0,4,5
 88 981 88 981 177.5 1153.5 c 128,-1,6
 267 1326 267 1326 423.5 1419 c 128,-1,7
 580 1512 580 1512 777 1512 c 256,8,9
 974 1512 974 1512 1130 1419 c 128,-1,10
 1286 1326 1286 1326 1375.5 1153.5 c 128,-1,11
 1465 981 1465 981 1465 744 c 0,12,13
 1465 509 1465 509 1375.5 337 c 128,-1,14
 1286 165 1286 165 1130 71.5 c 128,-1,15
 974 -22 974 -22 777 -22 c 256,0,1
777 216 m 256,16,17
 899 216 899 216 994 277 c 128,-1,18
 1089 338 1089 338 1144 456.5 c 128,-1,19
 1199 575 1199 575 1199 744 c 0,20,21
 1199 915 1199 915 1144 1033.5 c 128,-1,22
 1089 1152 1089 1152 994 1213 c 128,-1,23
 899 1274 899 1274 777 1274 c 256,24,25
 655 1274 655 1274 560 1213 c 128,-1,26
 465 1152 465 1152 410.5 1033.5 c 128,-1,27
 356 915 356 915 356 744 c 0,28,29
 356 575 356 575 410.5 457 c 128,-1,30
 465 339 465 339 560 277.5 c 128,-1,31
 655 216 655 216 777 216 c 256,16,17
EndSplineSet
Substitution2: "'ss06' Style Set 6 in Latin lookup 52 subtable" O.squared
Substitution2: "'ss05' Style Set 5 in Latin lookup 51 subtable" uni24C4
Substitution2: "Single Substitution lookup 44 subtable" ordmasculine
Substitution2: "'aalt' Access All Alternates in Latin lookup 0 subtable" ordmasculine
Position2: "'cpsp' Capital Spacing in Latin lookup 0 subtable" dx=0 dy=0 dh=0 dv=0
EndChar

StartChar: Ohorn
Encoding: 416 416 326
Width: 1558
GlyphClass: 2
Flags: W
AnchorPoint: "Anchor-4" 1465 744 basechar 0
AnchorPoint: "Anchor-1" 777 1490 basechar 0
AnchorPoint: "Anchor-0" 777 0 basechar 0
LayerCount: 2
Fore
SplineSet
780 1340 m 1,0,-1
 780 1512 l 1,1,2
 834 1512 834 1512 871 1509 c 128,-1,3
 908 1506 908 1506 949 1501.5 c 128,-1,4
 990 1497 990 1497 1050.5 1493.5 c 128,-1,5
 1111 1490 1111 1490 1210 1490 c 0,6,7
 1233 1490 1233 1490 1233 1513 c 2,8,-1
 1233 1714 l 1,9,-1
 1467 1714 l 1,10,-1
 1467 1504 l 2,11,12
 1467 1407 1467 1407 1413 1362 c 128,-1,13
 1359 1317 1359 1317 1265 1317 c 0,14,15
 1218 1317 1218 1317 1175.5 1321 c 128,-1,16
 1133 1325 1133 1325 1081 1329.5 c 128,-1,17
 1029 1334 1029 1334 957 1337 c 128,-1,18
 885 1340 885 1340 780 1340 c 1,0,-1
777 -22 m 256,19,20
 580 -22 580 -22 423.5 71.5 c 128,-1,21
 267 165 267 165 177.5 337 c 128,-1,22
 88 509 88 509 88 744 c 0,23,24
 88 981 88 981 177.5 1153.5 c 128,-1,25
 267 1326 267 1326 423.5 1419 c 128,-1,26
 580 1512 580 1512 777 1512 c 256,27,28
 974 1512 974 1512 1130 1419 c 128,-1,29
 1286 1326 1286 1326 1375.5 1153.5 c 128,-1,30
 1465 981 1465 981 1465 744 c 0,31,32
 1465 509 1465 509 1375.5 337 c 128,-1,33
 1286 165 1286 165 1130 71.5 c 128,-1,34
 974 -22 974 -22 777 -22 c 256,19,20
777 216 m 256,35,36
 899 216 899 216 994 277 c 128,-1,37
 1089 338 1089 338 1144 456.5 c 128,-1,38
 1199 575 1199 575 1199 744 c 0,39,40
 1199 915 1199 915 1144 1033.5 c 128,-1,41
 1089 1152 1089 1152 994 1213 c 128,-1,42
 899 1274 899 1274 777 1274 c 256,43,44
 655 1274 655 1274 560 1213 c 128,-1,45
 465 1152 465 1152 410.5 1033.5 c 128,-1,46
 356 915 356 915 356 744 c 0,47,48
 356 575 356 575 410.5 457 c 128,-1,49
 465 339 465 339 560 277.5 c 128,-1,50
 655 216 655 216 777 216 c 256,35,36
EndSplineSet
Position2: "'cpsp' Capital Spacing in Latin lookup 0 subtable" dx=0 dy=0 dh=0 dv=0
EndChar

StartChar: uni03F4
Encoding: 1012 1012 368
Width: 1553
GlyphClass: 2
Flags: W
AnchorPoint: "Anchor-4" 1465 744 basechar 0
AnchorPoint: "Anchor-1" 777 1490 basechar 0
AnchorPoint: "Anchor-0" 777 0 basechar 0
LayerCount: 2
Fore
SplineSet
1272 838 m 1,0,-1
 1272 651 l 1,1,-1
 287 651 l 1,2,-1
 287 838 l 1,3,-1
 1272 838 l 1,0,-1
777 -22 m 256,4,5
 580 -22 580 -22 423.5 71.5 c 128,-1,6
 267 165 267 165 177.5 337 c 128,-1,7
 88 509 88 509 88 744 c 0,8,9
 88 981 88 981 177.5 1153.5 c 128,-1,10
 267 1326 267 1326 423.5 1419 c 128,-1,11
 580 1512 580 1512 777 1512 c 256,12,13
 974 1512 974 1512 1130 1419 c 128,-1,14
 1286 1326 1286 1326 1375.5 1153.5 c 128,-1,15
 1465 981 1465 981 1465 744 c 0,16,17
 1465 509 1465 509 1375.5 337 c 128,-1,18
 1286 165 1286 165 1130 71.5 c 128,-1,19
 974 -22 974 -22 777 -22 c 256,4,5
777 216 m 256,20,21
 899 216 899 216 994 277 c 128,-1,22
 1089 338 1089 338 1144 456.5 c 128,-1,23
 1199 575 1199 575 1199 744 c 0,24,25
 1199 915 1199 915 1144 1033.5 c 128,-1,26
 1089 1152 1089 1152 994 1213 c 128,-1,27
 899 1274 899 1274 777 1274 c 256,28,29
 655 1274 655 1274 560 1213 c 128,-1,30
 465 1152 465 1152 410.5 1033.5 c 128,-1,31
 356 915 356 915 356 744 c 0,32,33
 356 575 356 575 410.5 457 c 128,-1,34
 465 339 465 339 560 277.5 c 128,-1,35
 655 216 655 216 777 216 c 256,20,21
EndSplineSet
Position2: "'cpsp' Capital Spacing in Latin lookup 0 subtable" dx=0 dy=0 dh=0 dv=0
EndChar

StartChar: OE
Encoding: 338 338 375
Width: 2077
GlyphClass: 2
Flags: W
AnchorPoint: "Anchor-4" 1985 0 basechar 0
AnchorPoint: "Anchor-3" 1487 0 basechar 0
AnchorPoint: "Anchor-1" 1483 1490 basechar 0
AnchorPoint: "Anchor-0" 1483 0 basechar 0
LayerCount: 2
Fore
SplineSet
799 0 m 2,0,1
 581 0 581 0 421.5 91.5 c 128,-1,2
 262 183 262 183 175 350.5 c 128,-1,3
 88 518 88 518 88 745 c 0,4,5
 88 974 88 974 175 1141 c 128,-1,6
 262 1308 262 1308 420.5 1399 c 128,-1,7
 579 1490 579 1490 794 1490 c 2,8,-1
 1120 1490 l 1,9,-1
 1120 1261 l 1,10,-1
 807 1261 l 2,11,12
 660 1261 660 1261 559 1202 c 128,-1,13
 458 1143 458 1143 405 1028 c 128,-1,14
 352 913 352 913 352 745 c 0,15,16
 352 579 352 579 405 464 c 128,-1,17
 458 349 458 349 559.5 289 c 128,-1,18
 661 229 661 229 809 229 c 2,19,-1
 1116 229 l 1,20,-1
 1116 0 l 1,21,-1
 799 0 l 2,0,1
981 0 m 1,22,-1
 981 1490 l 1,23,-1
 1982 1490 l 1,24,-1
 1982 1263 l 1,25,-1
 1247 1263 l 1,26,-1
 1247 867 l 1,27,-1
 1928 867 l 1,28,-1
 1928 643 l 1,29,-1
 1247 643 l 1,30,-1
 1247 227 l 1,31,-1
 1985 227 l 1,32,-1
 1985 0 l 1,33,-1
 981 0 l 1,22,-1
EndSplineSet
Substitution2: "'c2sc' Capitals to Small Capitals in Latin lookup 68 subtable" oe.sc
Substitution2: "'aalt' Access All Alternates in Latin lookup 0 subtable" oe.sc
Position2: "'cpsp' Capital Spacing in Latin lookup 0 subtable" dx=0 dy=0 dh=0 dv=0
EndChar

StartChar: P
Encoding: 80 80 376
Width: 1301
GlyphClass: 2
Flags: W
AnchorPoint: "Anchor-1" 642 1490 basechar 0
LayerCount: 2
Fore
SplineSet
137 0 m 1,0,-1
 137 1490 l 1,1,-1
 700 1490 l 2,2,3
 868 1490 868 1490 986 1429 c 128,-1,4
 1104 1368 1104 1368 1166.5 1259 c 128,-1,5
 1229 1150 1229 1150 1229 1005 c 0,6,7
 1229 861 1229 861 1165.5 752 c 128,-1,8
 1102 643 1102 643 983 581.5 c 128,-1,9
 864 520 864 520 696 520 c 2,10,-1
 301 520 l 1,11,-1
 301 744 l 1,12,-1
 673 744 l 2,13,14
 768 744 768 744 832.5 776.5 c 128,-1,15
 897 809 897 809 930 868 c 128,-1,16
 963 927 963 927 963 1005 c 0,17,18
 963 1085 963 1085 930 1143 c 128,-1,19
 897 1201 897 1201 832.5 1233.5 c 128,-1,20
 768 1266 768 1266 672 1266 c 2,21,-1
 403 1266 l 1,22,-1
 403 0 l 1,23,-1
 137 0 l 1,0,-1
EndSplineSet
Substitution2: "'ss06' Style Set 6 in Latin lookup 52 subtable" P.squared
Substitution2: "'ss05' Style Set 5 in Latin lookup 51 subtable" uni24C5
Position2: "'cpsp' Capital Spacing in Latin lookup 0 subtable" dx=0 dy=0 dh=0 dv=0
EndChar

StartChar: uni048E
Encoding: 1166 1166 379
Width: 1306
GlyphClass: 2
Flags: W
AnchorPoint: "Anchor-1" 646 1490 basechar 0
LayerCount: 2
Fore
SplineSet
773 970 m 1,0,-1
 1115 443 l 1,1,-1
 982 358 l 1,2,-1
 640 885 l 1,3,-1
 773 970 l 1,0,-1
141 0 m 1,4,-1
 141 1490 l 1,5,-1
 705 1490 l 2,6,7
 872 1490 872 1490 990 1429 c 128,-1,8
 1108 1368 1108 1368 1170.5 1259 c 128,-1,9
 1233 1150 1233 1150 1233 1005 c 0,10,11
 1233 861 1233 861 1170 752 c 128,-1,12
 1107 643 1107 643 988 581.5 c 128,-1,13
 869 520 869 520 700 520 c 2,14,-1
 305 520 l 1,15,-1
 305 744 l 1,16,-1
 677 744 l 2,17,18
 773 744 773 744 837.5 776.5 c 128,-1,19
 902 809 902 809 934.5 868 c 128,-1,20
 967 927 967 927 967 1005 c 0,21,22
 967 1085 967 1085 934.5 1143 c 128,-1,23
 902 1201 902 1201 837.5 1233.5 c 128,-1,24
 773 1266 773 1266 677 1266 c 2,25,-1
 407 1266 l 1,26,-1
 407 0 l 1,27,-1
 141 0 l 1,4,-1
EndSplineSet
Position2: "'cpsp' Capital Spacing in Latin lookup 0 subtable" dx=0 dy=0 dh=0 dv=0
EndChar

StartChar: uni01A4
Encoding: 420 420 380
Width: 1653
GlyphClass: 2
Flags: W
AnchorPoint: "Anchor-1" 994 1490 basechar 0
LayerCount: 2
Fore
SplineSet
45 1060 m 1,0,-1
 45 1177 l 2,1,2
 45 1332 45 1332 129.5 1411 c 128,-1,3
 214 1490 214 1490 383 1490 c 2,4,-1
 489 1490 l 1,5,-1
 489 1266 l 1,6,-1
 408 1266 l 2,7,8
 347 1266 347 1266 319 1239.5 c 128,-1,9
 291 1213 291 1213 291 1158 c 2,10,-1
 291 1060 l 1,11,-1
 45 1060 l 1,0,-1
489 0 m 1,12,-1
 489 1490 l 1,13,-1
 1052 1490 l 2,14,15
 1220 1490 1220 1490 1338 1429 c 128,-1,16
 1456 1368 1456 1368 1518.5 1259 c 128,-1,17
 1581 1150 1581 1150 1581 1005 c 0,18,19
 1581 861 1581 861 1517.5 752 c 128,-1,20
 1454 643 1454 643 1335 581.5 c 128,-1,21
 1216 520 1216 520 1048 520 c 2,22,-1
 653 520 l 1,23,-1
 653 744 l 1,24,-1
 1025 744 l 2,25,26
 1120 744 1120 744 1184.5 776.5 c 128,-1,27
 1249 809 1249 809 1282 868 c 128,-1,28
 1315 927 1315 927 1315 1005 c 0,29,30
 1315 1085 1315 1085 1282 1143 c 128,-1,31
 1249 1201 1249 1201 1184.5 1233.5 c 128,-1,32
 1120 1266 1120 1266 1024 1266 c 2,33,-1
 755 1266 l 1,34,-1
 755 0 l 1,35,-1
 489 0 l 1,12,-1
EndSplineSet
Position2: "'cpsp' Capital Spacing in Latin lookup 0 subtable" dx=0 dy=0 dh=0 dv=0
EndChar

StartChar: Q
Encoding: 81 81 383
Width: 1557
GlyphClass: 2
Flags: W
AnchorPoint: "Anchor-4" 1465 744 basechar 0
AnchorPoint: "Anchor-1" 777 1490 basechar 0
AnchorPoint: "Anchor-0" 777 0 basechar 0
LayerCount: 2
Fore
SplineSet
682 497 m 1,0,-1
 922 497 l 1,1,-1
 1069 306 l 1,2,-1
 1165 191 l 1,3,-1
 1415 -129 l 1,4,-1
 1161 -129 l 1,5,-1
 995 84 l 1,6,-1
 921 182 l 1,7,-1
 682 497 l 1,0,-1
777 -22 m 256,8,9
 580 -22 580 -22 423.5 71.5 c 128,-1,10
 267 165 267 165 177.5 337 c 128,-1,11
 88 509 88 509 88 744 c 0,12,13
 88 981 88 981 177.5 1153.5 c 128,-1,14
 267 1326 267 1326 423.5 1419 c 128,-1,15
 580 1512 580 1512 777 1512 c 256,16,17
 974 1512 974 1512 1130 1419 c 128,-1,18
 1286 1326 1286 1326 1375.5 1153.5 c 128,-1,19
 1465 981 1465 981 1465 744 c 0,20,21
 1465 509 1465 509 1375.5 337 c 128,-1,22
 1286 165 1286 165 1130 71.5 c 128,-1,23
 974 -22 974 -22 777 -22 c 256,8,9
777 216 m 256,24,25
 899 216 899 216 994 277 c 128,-1,26
 1089 338 1089 338 1144 456.5 c 128,-1,27
 1199 575 1199 575 1199 744 c 0,28,29
 1199 915 1199 915 1144 1033.5 c 128,-1,30
 1089 1152 1089 1152 994 1213 c 128,-1,31
 899 1274 899 1274 777 1274 c 256,32,33
 655 1274 655 1274 560 1213 c 128,-1,34
 465 1152 465 1152 410.5 1033.5 c 128,-1,35
 356 915 356 915 356 744 c 0,36,37
 356 575 356 575 410.5 457 c 128,-1,38
 465 339 465 339 560 277.5 c 128,-1,39
 655 216 655 216 777 216 c 256,24,25
EndSplineSet
Substitution2: "'ss06' Style Set 6 in Latin lookup 52 subtable" Q.squared
Substitution2: "'ss05' Style Set 5 in Latin lookup 51 subtable" uni24C6
Position2: "'cpsp' Capital Spacing in Latin lookup 0 subtable" dx=0 dy=0 dh=0 dv=0
EndChar

StartChar: Q_rthook
Encoding: 586 586 384
Width: 1558
GlyphClass: 2
Flags: W
LayerCount: 2
Fore
SplineSet
1422 1490 m 1,0,-1
 1422 0 l 1,1,-1
 1165 0 l 1,2,-1
 1165 226 l 1,3,-1
 1159 226 l 1,4,5
 1103 112 1103 112 988.5 44.5 c 128,-1,6
 874 -23 874 -23 724 -23 c 0,7,8
 585 -23 585 -23 468.5 34.5 c 128,-1,9
 352 92 352 92 266.5 195.5 c 128,-1,10
 181 299 181 299 134.5 440 c 128,-1,11
 88 581 88 581 88 747 c 0,12,13
 88 912 88 912 135 1051.5 c 128,-1,14
 182 1191 182 1191 267.5 1294.5 c 128,-1,15
 353 1398 353 1398 469.5 1454.5 c 128,-1,16
 586 1511 586 1511 724 1511 c 0,17,18
 874 1511 874 1511 988 1445 c 128,-1,19
 1102 1379 1102 1379 1159 1270 c 1,20,-1
 1165 1270 l 1,21,-1
 1165 1490 l 1,22,-1
 1422 1490 l 1,0,-1
761 216 m 0,23,24
 894 216 894 216 984 282.5 c 128,-1,25
 1074 349 1074 349 1120 468.5 c 128,-1,26
 1166 588 1166 588 1166 746 c 0,27,28
 1166 905 1166 905 1119.5 1024.5 c 128,-1,29
 1073 1144 1073 1144 983 1210 c 128,-1,30
 893 1276 893 1276 762 1276 c 0,31,32
 639 1276 639 1276 547 1210 c 128,-1,33
 455 1144 455 1144 405.5 1025 c 128,-1,34
 356 906 356 906 356 746 c 0,35,36
 356 583 356 583 406 463.5 c 128,-1,37
 456 344 456 344 547.5 280 c 128,-1,38
 639 216 639 216 761 216 c 0,23,24
1498 -425 m 0,39,40
 1332 -425 1332 -425 1248.5 -350 c 128,-1,41
 1165 -275 1165 -275 1165 -129 c 2,42,-1
 1165 0 l 1,43,-1
 1422 0 l 1,44,-1
 1422 -125 l 2,45,46
 1422 -175 1422 -175 1449.5 -197.5 c 128,-1,47
 1477 -220 1477 -220 1542 -220 c 0,48,49
 1564 -220 1564 -220 1592 -219 c 128,-1,50
 1620 -218 1620 -218 1638 -217 c 1,51,-1
 1638 -418 l 1,52,53
 1613 -421 1613 -421 1577.5 -423 c 128,-1,54
 1542 -425 1542 -425 1498 -425 c 0,39,40
EndSplineSet
Position2: "'cpsp' Capital Spacing in Latin lookup 0 subtable" dx=0 dy=0 dh=0 dv=0
EndChar

StartChar: R
Encoding: 82 82 385
Width: 1328
GlyphClass: 2
Flags: W
AnchorPoint: "Anchor-1" 658 1490 basechar 0
AnchorPoint: "Anchor-0" 674 0 basechar 0
LayerCount: 2
Fore
SplineSet
137 0 m 1,0,-1
 137 1490 l 1,1,-1
 707 1490 l 2,2,3
 874 1490 874 1490 992.5 1431.5 c 128,-1,4
 1111 1373 1111 1373 1173 1265.5 c 128,-1,5
 1235 1158 1235 1158 1235 1013 c 0,6,7
 1235 870 1235 870 1170.5 764.5 c 128,-1,8
 1106 659 1106 659 986 602 c 128,-1,9
 866 545 866 545 696 545 c 2,10,-1
 293 545 l 1,11,-1
 293 764 l 1,12,-1
 680 764 l 2,13,14
 775 764 775 764 839 794 c 128,-1,15
 903 824 903 824 935.5 880 c 128,-1,16
 968 936 968 936 968 1013 c 0,17,18
 968 1093 968 1093 935.5 1149.5 c 128,-1,19
 903 1206 903 1206 838.5 1236.5 c 128,-1,20
 774 1267 774 1267 679 1267 c 2,21,-1
 403 1267 l 1,22,-1
 403 0 l 1,23,-1
 137 0 l 1,0,-1
982 0 m 1,24,-1
 628 675 l 1,25,-1
 916 675 l 1,26,-1
 1277 0 l 1,27,-1
 982 0 l 1,24,-1
EndSplineSet
Substitution2: "'c2sc' Capitals to Small Capitals in Latin lookup 68 subtable" r.sc
Substitution2: "'ss06' Style Set 6 in Latin lookup 52 subtable" R.squared
Substitution2: "'ss05' Style Set 5 in Latin lookup 51 subtable" uni24C7
Substitution2: "'aalt' Access All Alternates in Latin lookup 0 subtable" r.sc
Position2: "'cpsp' Capital Spacing in Latin lookup 0 subtable" dx=0 dy=0 dh=0 dv=0
EndChar

StartChar: uni211F
Encoding: 8479 8479 395
Width: 1312
GlyphClass: 2
Flags: W
AnchorPoint: "Anchor-1" 661 1490 basechar 0
AnchorPoint: "Anchor-0" 677 0 basechar 0
LayerCount: 2
Fore
SplineSet
957 1693 m 1,0,-1
 458 -361 l 1,1,-1
 342 -341 l 1,2,-1
 822 1618 l 1,3,-1
 503 1702 l 1,4,-1
 539 1810 l 1,5,-1
 957 1693 l 1,0,-1
140 0 m 1,6,-1
 140 1490 l 1,7,-1
 710 1490 l 2,8,9
 877 1490 877 1490 995.5 1431.5 c 128,-1,10
 1114 1373 1114 1373 1176 1265.5 c 128,-1,11
 1238 1158 1238 1158 1238 1013 c 0,12,13
 1238 870 1238 870 1173.5 764.5 c 128,-1,14
 1109 659 1109 659 988.5 602 c 128,-1,15
 868 545 868 545 699 545 c 2,16,-1
 295 545 l 1,17,-1
 295 764 l 1,18,-1
 683 764 l 2,19,20
 778 764 778 764 842 794 c 128,-1,21
 906 824 906 824 938.5 880 c 128,-1,22
 971 936 971 936 971 1013 c 0,23,24
 971 1093 971 1093 938.5 1149.5 c 128,-1,25
 906 1206 906 1206 841.5 1236.5 c 128,-1,26
 777 1267 777 1267 682 1267 c 2,27,-1
 406 1267 l 1,28,-1
 406 0 l 1,29,-1
 140 0 l 1,6,-1
985 0 m 1,30,-1
 631 675 l 1,31,-1
 919 675 l 1,32,-1
 1280 0 l 1,33,-1
 985 0 l 1,30,-1
EndSplineSet
EndChar

StartChar: Rx
Encoding: 8478 8478 396
Width: 1481
Flags: W
LayerCount: 2
Fore
SplineSet
137 1490 m 1,0,-1
 683 1490 l 2,1,2
 862 1490 862 1490 979 1431 c 128,-1,3
 1096 1372 1096 1372 1153 1268 c 128,-1,4
 1210 1164 1210 1164 1210 1028 c 0,5,6
 1210 911 1210 911 1168 823 c 128,-1,7
 1126 735 1126 735 1051 676 c 128,-1,8
 976 617 976 617 875 586 c 1,9,-1
 812 562 l 1,10,-1
 316 562 l 1,11,-1
 316 787 l 1,12,-1
 673 787 l 2,13,14
 770 786 770 786 831 815 c 128,-1,15
 892 844 892 844 920.5 897.5 c 128,-1,16
 949 951 949 951 949 1024 c 0,17,18
 949 1091 949 1091 923 1146 c 128,-1,19
 897 1201 897 1201 839 1235 c 128,-1,20
 781 1269 781 1269 683 1269 c 2,21,-1
 400 1269 l 1,22,-1
 400 0 l 1,23,-1
 137 0 l 1,24,-1
 137 1490 l 1,0,-1
1157 0 m 1,25,-1
 676 667 l 1,26,-1
 918 667 l 1,27,-1
 1406 0 l 1,28,-1
 1157 0 l 1,25,-1
903 0 m 1,29,-1
 686 0 l 1,30,-1
 1173 667 l 1,31,-1
 1382 667 l 1,32,-1
 903 0 l 1,29,-1
EndSplineSet
EndChar

StartChar: uni024C
Encoding: 588 588 397
Width: 1334
GlyphClass: 2
Flags: W
AnchorPoint: "Anchor-1" 686 1490 basechar 0
AnchorPoint: "Anchor-0" 702 0 basechar 0
LayerCount: 2
Fore
SplineSet
316 562 m 1,0,-1
 7 562 l 1,1,-1
 7 768 l 1,2,-1
 316 768 l 1,3,-1
 316 562 l 1,0,-1
164 0 m 1,4,-1
 164 1490 l 1,5,-1
 734 1490 l 2,6,7
 902 1490 902 1490 1020 1431.5 c 128,-1,8
 1138 1373 1138 1373 1200.5 1265.5 c 128,-1,9
 1263 1158 1263 1158 1263 1013 c 0,10,11
 1263 870 1263 870 1198.5 764.5 c 128,-1,12
 1134 659 1134 659 1013.5 602 c 128,-1,13
 893 545 893 545 723 545 c 2,14,-1
 320 545 l 1,15,-1
 320 764 l 1,16,-1
 708 764 l 2,17,18
 802 764 802 764 866 794 c 128,-1,19
 930 824 930 824 963 880 c 128,-1,20
 996 936 996 936 996 1013 c 0,21,22
 996 1093 996 1093 963.5 1149.5 c 128,-1,23
 931 1206 931 1206 866.5 1236.5 c 128,-1,24
 802 1267 802 1267 706 1267 c 2,25,-1
 430 1267 l 1,26,-1
 430 0 l 1,27,-1
 164 0 l 1,4,-1
1009 0 m 1,28,-1
 655 675 l 1,29,-1
 943 675 l 1,30,-1
 1304 0 l 1,31,-1
 1009 0 l 1,28,-1
EndSplineSet
Position2: "'cpsp' Capital Spacing in Latin lookup 0 subtable" dx=0 dy=0 dh=0 dv=0
EndChar

StartChar: S
Encoding: 83 83 398
Width: 1321
GlyphClass: 2
Flags: W
AnchorPoint: "Anchor-3" 663 0 basechar 0
AnchorPoint: "Anchor-1" 659 1490 basechar 0
AnchorPoint: "Anchor-0" 665 0 basechar 0
LayerCount: 2
Fore
SplineSet
669 -24 m 0,0,1
 490 -24 490 -24 360 34 c 128,-1,2
 230 92 230 92 159 200.5 c 128,-1,3
 88 309 88 309 84 462 c 1,4,-1
 346 462 l 1,5,6
 350 378 350 378 390.5 320 c 128,-1,7
 431 262 431 262 503 232 c 128,-1,8
 575 202 575 202 668 202 c 0,9,10
 759 202 759 202 827.5 229 c 128,-1,11
 896 256 896 256 934.5 304.5 c 128,-1,12
 973 353 973 353 973 418 c 0,13,14
 973 473 973 473 942 511.5 c 128,-1,15
 911 550 911 550 850.5 577.5 c 128,-1,16
 790 605 790 605 700 627 c 2,17,-1
 534 667 l 2,18,19
 330 716 330 716 224.5 815 c 128,-1,20
 119 914 119 914 119 1071 c 0,21,22
 119 1203 119 1203 189 1302.5 c 128,-1,23
 259 1402 259 1402 382.5 1457 c 128,-1,24
 506 1512 506 1512 665 1512 c 0,25,26
 828 1512 828 1512 949 1456 c 128,-1,27
 1070 1400 1070 1400 1137 1298 c 128,-1,28
 1204 1196 1204 1196 1208 1060 c 1,29,-1
 953 1060 l 1,30,31
 945 1167 945 1167 867 1227 c 128,-1,32
 789 1287 789 1287 663 1287 c 0,33,34
 580 1287 580 1287 517.5 1261 c 128,-1,35
 455 1235 455 1235 421 1189.5 c 128,-1,36
 387 1144 387 1144 387 1086 c 0,37,38
 387 1029 387 1029 419.5 990.5 c 128,-1,39
 452 952 452 952 511.5 926.5 c 128,-1,40
 571 901 571 901 649 882 c 2,41,-1
 794 847 l 2,42,43
 894 824 894 824 975 788.5 c 128,-1,44
 1056 753 1056 753 1115 702 c 128,-1,45
 1174 651 1174 651 1205.5 582.5 c 128,-1,46
 1237 514 1237 514 1237 424 c 0,47,48
 1237 290 1237 290 1168.5 189 c 128,-1,49
 1100 88 1100 88 973 32 c 128,-1,50
 846 -24 846 -24 669 -24 c 0,0,1
EndSplineSet
Substitution2: "'ss06' Style Set 6 in Latin lookup 52 subtable" S.squared
Substitution2: "'ss05' Style Set 5 in Latin lookup 51 subtable" uni24C8
Position2: "'cpsp' Capital Spacing in Latin lookup 0 subtable" dx=0 dy=0 dh=0 dv=0
EndChar

StartChar: uni01A7
Encoding: 423 423 410
Width: 1321
GlyphClass: 2
Flags: W
AnchorPoint: "Anchor-3" 659 0 basechar 0
AnchorPoint: "Anchor-1" 662 1490 basechar 0
AnchorPoint: "Anchor-0" 658 0 basechar 0
LayerCount: 2
Fore
SplineSet
653 -24 m 0,0,1
 476 -24 476 -24 348.5 32 c 128,-1,2
 221 88 221 88 152.5 189 c 128,-1,3
 84 290 84 290 84 424 c 0,4,5
 84 514 84 514 116 582.5 c 128,-1,6
 148 651 148 651 206.5 702 c 128,-1,7
 265 753 265 753 346.5 788.5 c 128,-1,8
 428 824 428 824 527 847 c 2,9,-1
 672 882 l 2,10,11
 752 901 752 901 811 926.5 c 128,-1,12
 870 952 870 952 902.5 990.5 c 128,-1,13
 935 1029 935 1029 935 1086 c 0,14,15
 935 1144 935 1144 900.5 1189.5 c 128,-1,16
 866 1235 866 1235 804 1261 c 128,-1,17
 742 1287 742 1287 658 1287 c 0,18,19
 533 1287 533 1287 455.5 1227 c 128,-1,20
 378 1167 378 1167 368 1060 c 1,21,-1
 113 1060 l 1,22,23
 118 1196 118 1196 185.5 1298 c 128,-1,24
 253 1400 253 1400 373 1456 c 128,-1,25
 493 1512 493 1512 656 1512 c 0,26,27
 816 1512 816 1512 939.5 1457 c 128,-1,28
 1063 1402 1063 1402 1132.5 1302.5 c 128,-1,29
 1202 1203 1202 1203 1202 1071 c 0,30,31
 1202 914 1202 914 1097 815 c 128,-1,32
 992 716 992 716 787 667 c 2,33,-1
 623 627 l 2,34,35
 533 605 533 605 472 577.5 c 128,-1,36
 411 550 411 550 380 511.5 c 128,-1,37
 349 473 349 473 349 418 c 0,38,39
 349 353 349 353 387.5 304.5 c 128,-1,40
 426 256 426 256 494.5 229 c 128,-1,41
 563 202 563 202 654 202 c 0,42,43
 748 202 748 202 819 232 c 128,-1,44
 890 262 890 262 931.5 320 c 128,-1,45
 973 378 973 378 977 462 c 1,46,-1
 1237 462 l 1,47,48
 1234 309 1234 309 1163 200.5 c 128,-1,49
 1092 92 1092 92 962.5 34 c 128,-1,50
 833 -24 833 -24 653 -24 c 0,0,1
EndSplineSet
Position2: "'cpsp' Capital Spacing in Latin lookup 0 subtable" dx=0 dy=0 dh=0 dv=0
EndChar

StartChar: uni1E9E
Encoding: 7838 7838 411
Width: 1419
Flags: W
LayerCount: 2
Fore
SplineSet
137 0 m 1,0,-1
 137 985 l 2,1,2
 137 1154 137 1154 196 1271.5 c 128,-1,3
 255 1389 255 1389 368.5 1449.5 c 128,-1,4
 482 1510 482 1510 646 1510 c 0,5,6
 757 1510 757 1510 861 1478.5 c 128,-1,7
 965 1447 965 1447 1059 1392 c 128,-1,8
 1153 1337 1153 1337 1234 1265 c 1,9,-1
 902 859 l 1,10,11
 1037 846 1037 846 1133.5 788.5 c 128,-1,12
 1230 731 1230 731 1282.5 638.5 c 128,-1,13
 1335 546 1335 546 1335 427 c 0,14,15
 1335 287 1335 287 1268 187.5 c 128,-1,16
 1201 88 1201 88 1084.5 34 c 128,-1,17
 968 -20 968 -20 817 -20 c 0,18,19
 740 -20 740 -20 658 -5.5 c 128,-1,20
 576 9 576 9 505 37 c 1,21,-1
 581 243 l 1,22,23
 629 224 629 224 685.5 209.5 c 128,-1,24
 742 195 742 195 803 195 c 0,25,26
 930 195 930 195 999 257.5 c 128,-1,27
 1068 320 1068 320 1068 429 c 0,28,29
 1068 512 1068 512 1036 562 c 128,-1,30
 1004 612 1004 612 956 638 c 128,-1,31
 908 664 908 664 857.5 672 c 128,-1,32
 807 680 807 680 770 680 c 2,33,-1
 630 680 l 1,34,-1
 630 857 l 1,35,-1
 910 1207 l 1,36,37
 865 1240 865 1240 800.5 1267 c 128,-1,38
 736 1294 736 1294 651 1294 c 0,39,40
 556 1294 556 1294 501 1252 c 128,-1,41
 446 1210 446 1210 423 1139.5 c 128,-1,42
 400 1069 400 1069 400 982 c 2,43,-1
 400 0 l 1,44,-1
 137 0 l 1,0,-1
EndSplineSet
Position2: "'cpsp' Capital Spacing in Latin lookup 0 subtable" dx=0 dy=0 dh=0 dv=0
EndChar

StartChar: T
Encoding: 84 84 412
Width: 1318
GlyphClass: 2
Flags: W
AnchorPoint: "Anchor-3" 661 0 basechar 0
AnchorPoint: "Anchor-1" 660 1490 basechar 0
AnchorPoint: "Anchor-0" 659 0 basechar 0
LayerCount: 2
Fore
SplineSet
65 1263 m 1,0,-1
 65 1490 l 1,1,-1
 1253 1490 l 1,2,-1
 1253 1263 l 1,3,-1
 793 1263 l 1,4,-1
 793 0 l 1,5,-1
 527 0 l 1,6,-1
 527 1263 l 1,7,-1
 65 1263 l 1,0,-1
EndSplineSet
Substitution2: "'c2sc' Capitals to Small Capitals in Latin lookup 68 subtable" t.sc
Substitution2: "'ss06' Style Set 6 in Latin lookup 52 subtable" T.squared
Substitution2: "'ss05' Style Set 5 in Latin lookup 51 subtable" uni24C9
Substitution2: "'aalt' Access All Alternates in Latin lookup 0 subtable" t.sc
Position2: "'cpsp' Capital Spacing in Latin lookup 0 subtable" dx=0 dy=0 dh=0 dv=0
EndChar

StartChar: uni01AC
Encoding: 428 428 420
Width: 1389
GlyphClass: 2
Flags: W
AnchorPoint: "Anchor-1" 731 1490 basechar 0
LayerCount: 2
Fore
SplineSet
80 1060 m 1,0,-1
 80 1177 l 2,1,2
 80 1332 80 1332 164.5 1411 c 128,-1,3
 249 1490 249 1490 418 1490 c 2,4,-1
 524 1490 l 1,5,-1
 524 1266 l 1,6,-1
 443 1266 l 2,7,8
 382 1266 382 1266 354 1239.5 c 128,-1,9
 326 1213 326 1213 326 1158 c 2,10,-1
 326 1060 l 1,11,-1
 80 1060 l 1,0,-1
524 1264 m 1,12,-1
 524 1490 l 1,13,-1
 1324 1490 l 1,14,-1
 1324 1264 l 1,15,-1
 864 1264 l 1,16,-1
 864 0 l 1,17,-1
 598 0 l 1,18,-1
 598 1264 l 1,19,-1
 524 1264 l 1,12,-1
EndSplineSet
Position2: "'cpsp' Capital Spacing in Latin lookup 0 subtable" dx=0 dy=0 dh=0 dv=0
EndChar

StartChar: uni01AC.base
Encoding: 60940 60940 421
Width: 1321
GlyphClass: 2
Flags: W
AnchorPoint: "Anchor-1" 663 1490 basechar 0
LayerCount: 2
Fore
SplineSet
457 1264 m 1,0,-1
 457 1490 l 1,1,-1
 1257 1490 l 1,2,-1
 1257 1264 l 1,3,-1
 796 1264 l 1,4,-1
 796 0 l 1,5,-1
 530 0 l 1,6,-1
 530 1264 l 1,7,-1
 457 1264 l 1,0,-1
EndSplineSet
EndChar

StartChar: Trthook
Encoding: 430 430 422
Width: 1318
GlyphClass: 2
Flags: W
AnchorPoint: "Anchor-3" 661 0 basechar 0
AnchorPoint: "Anchor-1" 660 1490 basechar 0
AnchorPoint: "Anchor-0" 659 0 basechar 0
LayerCount: 2
Fore
SplineSet
860 -425 m 0,0,1
 694 -425 694 -425 610.5 -350 c 128,-1,2
 527 -275 527 -275 527 -129 c 2,3,-1
 527 178 l 1,4,-1
 793 178 l 1,5,-1
 793 -122 l 2,6,7
 793 -172 793 -172 820.5 -193.5 c 128,-1,8
 848 -215 848 -215 913 -215 c 0,9,10
 935 -215 935 -215 962.5 -214.5 c 128,-1,11
 990 -214 990 -214 1009 -213 c 1,12,-1
 1009 -418 l 1,13,14
 984 -421 984 -421 944.5 -423 c 128,-1,15
 905 -425 905 -425 860 -425 c 0,0,1
65 1263 m 1,16,-1
 65 1490 l 1,17,-1
 1253 1490 l 1,18,-1
 1253 1263 l 1,19,-1
 793 1263 l 1,20,-1
 793 0 l 1,21,-1
 527 0 l 1,22,-1
 527 1263 l 1,23,-1
 65 1263 l 1,16,-1
EndSplineSet
Position2: "'cpsp' Capital Spacing in Latin lookup 0 subtable" dx=0 dy=0 dh=0 dv=0
EndChar

StartChar: uni023E
Encoding: 574 574 423
Width: 1318
GlyphClass: 2
Flags: W
AnchorPoint: "Anchor-3" 661 0 basechar 0
AnchorPoint: "Anchor-1" 660 1490 basechar 0
AnchorPoint: "Anchor-0" 659 0 basechar 0
LayerCount: 2
Fore
SplineSet
198 -209 m 1,0,-1
 973 1699 l 1,1,-1
 1124 1699 l 1,2,-1
 348 -209 l 1,3,-1
 198 -209 l 1,0,-1
65 1263 m 1,4,-1
 65 1490 l 1,5,-1
 1253 1490 l 1,6,-1
 1253 1263 l 1,7,-1
 793 1263 l 1,8,-1
 793 0 l 1,9,-1
 527 0 l 1,10,-1
 527 1263 l 1,11,-1
 65 1263 l 1,4,-1
EndSplineSet
Position2: "'cpsp' Capital Spacing in Latin lookup 0 subtable" dx=0 dy=0 dh=0 dv=0
EndChar

StartChar: U
Encoding: 85 85 425
Width: 1474
GlyphClass: 2
Flags: W
AnchorPoint: "Anchor-4" 1340 517 basechar 0
AnchorPoint: "Anchor-1" 738 1490 basechar 0
AnchorPoint: "Anchor-0" 738 0 basechar 0
LayerCount: 2
Fore
SplineSet
738 -23 m 0,0,1
 556 -23 556 -23 420 45.5 c 128,-1,2
 284 114 284 114 209 236 c 128,-1,3
 134 358 134 358 134 517 c 2,4,-1
 134 1490 l 1,5,-1
 398 1490 l 1,6,-1
 398 538 l 2,7,8
 398 444 398 444 440 371 c 128,-1,9
 482 298 482 298 557.5 255.5 c 128,-1,10
 633 213 633 213 738 213 c 0,11,12
 842 213 842 213 918 255.5 c 128,-1,13
 994 298 994 298 1035.5 370.5 c 128,-1,14
 1077 443 1077 443 1077 538 c 2,15,-1
 1077 1490 l 1,16,-1
 1340 1490 l 1,17,-1
 1340 517 l 2,18,19
 1340 358 1340 358 1265.5 236 c 128,-1,20
 1191 114 1191 114 1055 45.5 c 128,-1,21
 919 -23 919 -23 738 -23 c 0,0,1
EndSplineSet
Substitution2: "'ss06' Style Set 6 in Latin lookup 52 subtable" U.squared
Substitution2: "'ss05' Style Set 5 in Latin lookup 51 subtable" uni24CA
Position2: "'cpsp' Capital Spacing in Latin lookup 0 subtable" dx=0 dy=0 dh=0 dv=0
EndChar

StartChar: Uhorn
Encoding: 431 431 426
Width: 1473
GlyphClass: 2
Flags: W
AnchorPoint: "Anchor-4" 1340 517 basechar 0
AnchorPoint: "Anchor-1" 738 1490 basechar 0
AnchorPoint: "Anchor-0" 738 0 basechar 0
LayerCount: 2
Fore
SplineSet
1078 1314 m 1,0,-1
 1078 1490 l 1,1,-1
 1258 1490 l 2,2,3
 1281 1490 1281 1490 1281 1513 c 2,4,-1
 1281 1714 l 1,5,-1
 1515 1714 l 1,6,-1
 1515 1504 l 2,7,8
 1515 1407 1515 1407 1461 1360.5 c 128,-1,9
 1407 1314 1407 1314 1313 1314 c 2,10,-1
 1078 1314 l 1,0,-1
738 -23 m 0,11,12
 556 -23 556 -23 420 45.5 c 128,-1,13
 284 114 284 114 209 236 c 128,-1,14
 134 358 134 358 134 517 c 2,15,-1
 134 1490 l 1,16,-1
 398 1490 l 1,17,-1
 398 538 l 2,18,19
 398 444 398 444 440 371 c 128,-1,20
 482 298 482 298 557.5 255.5 c 128,-1,21
 633 213 633 213 738 213 c 0,22,23
 842 213 842 213 918 255.5 c 128,-1,24
 994 298 994 298 1035.5 370.5 c 128,-1,25
 1077 443 1077 443 1077 538 c 2,26,-1
 1077 1490 l 1,27,-1
 1340 1490 l 1,28,-1
 1340 517 l 2,29,30
 1340 358 1340 358 1265.5 236 c 128,-1,31
 1191 114 1191 114 1055 45.5 c 128,-1,32
 919 -23 919 -23 738 -23 c 0,11,12
EndSplineSet
Position2: "'cpsp' Capital Spacing in Latin lookup 0 subtable" dx=0 dy=0 dh=0 dv=0
EndChar

StartChar: uni0244
Encoding: 580 580 456
Width: 1515
GlyphClass: 2
Flags: W
AnchorPoint: "Anchor-4" 1363 517 basechar 0
AnchorPoint: "Anchor-1" 760 1490 basechar 0
AnchorPoint: "Anchor-0" 760 0 basechar 0
LayerCount: 2
Fore
SplineSet
1536 853 m 1,0,-1
 1536 697 l 1,1,-1
 -21 697 l 1,2,-1
 -21 853 l 1,3,-1
 1536 853 l 1,0,-1
760 -23 m 0,4,5
 578 -23 578 -23 442 45.5 c 128,-1,6
 306 114 306 114 231 236 c 128,-1,7
 156 358 156 358 156 517 c 2,8,-1
 156 1490 l 1,9,-1
 420 1490 l 1,10,-1
 420 538 l 2,11,12
 420 444 420 444 462 371 c 128,-1,13
 504 298 504 298 580 255.5 c 128,-1,14
 656 213 656 213 760 213 c 256,15,16
 864 213 864 213 940 255.5 c 128,-1,17
 1016 298 1016 298 1057.5 370.5 c 128,-1,18
 1099 443 1099 443 1099 538 c 2,19,-1
 1099 1490 l 1,20,-1
 1363 1490 l 1,21,-1
 1363 517 l 2,22,23
 1363 358 1363 358 1288 236 c 128,-1,24
 1213 114 1213 114 1077 45.5 c 128,-1,25
 941 -23 941 -23 760 -23 c 0,4,5
EndSplineSet
Position2: "'cpsp' Capital Spacing in Latin lookup 0 subtable" dx=0 dy=0 dh=0 dv=0
EndChar

StartChar: V
Encoding: 86 86 457
Width: 1451
GlyphClass: 2
Flags: W
AnchorPoint: "Anchor-1" 725 1490 basechar 0
AnchorPoint: "Anchor-0" 725 0 basechar 0
LayerCount: 2
Fore
SplineSet
563 0 m 1,0,-1
 31 1490 l 1,1,-1
 321 1490 l 1,2,-1
 588 712 l 2,3,4
 624 597 624 597 668 448 c 128,-1,5
 712 299 712 299 766 110 c 1,6,-1
 699 110 l 1,7,8
 752 301 752 301 795 449 c 128,-1,9
 838 597 838 597 873 712 c 2,10,-1
 1132 1490 l 1,11,-1
 1419 1490 l 1,12,-1
 897 0 l 1,13,-1
 563 0 l 1,0,-1
EndSplineSet
Substitution2: "'ss06' Style Set 6 in Latin lookup 52 subtable" V.squared
Substitution2: "'ss05' Style Set 5 in Latin lookup 51 subtable" uni24CB
Position2: "'cpsp' Capital Spacing in Latin lookup 0 subtable" dx=0 dy=0 dh=0 dv=0
EndChar

StartChar: W
Encoding: 87 87 460
Width: 2049
GlyphClass: 2
Flags: W
AnchorPoint: "Anchor-1" 1025 1490 basechar 0
AnchorPoint: "Anchor-0" 1025 0 basechar 0
LayerCount: 2
Fore
SplineSet
433 0 m 1,0,-1
 31 1490 l 1,1,-1
 314 1490 l 1,2,-1
 511 692 l 2,3,4
 531 607 531 607 548.5 516.5 c 128,-1,5
 566 426 566 426 583 335.5 c 128,-1,6
 600 245 600 245 616 156 c 1,7,-1
 570 156 l 1,8,9
 587 245 587 245 604.5 335.5 c 128,-1,10
 622 426 622 426 640.5 516.5 c 128,-1,11
 659 607 659 607 681 692 c 2,12,-1
 885 1490 l 1,13,-1
 1166 1490 l 1,14,-1
 1367 692 l 2,15,16
 1389 607 1389 607 1408 516.5 c 128,-1,17
 1427 426 1427 426 1445 335.5 c 128,-1,18
 1463 245 1463 245 1481 156 c 1,19,-1
 1432 156 l 1,20,21
 1449 245 1449 245 1465.5 335.5 c 128,-1,22
 1482 426 1482 426 1500.5 516.5 c 128,-1,23
 1519 607 1519 607 1539 692 c 2,24,-1
 1733 1490 l 1,25,-1
 2018 1490 l 1,26,-1
 1614 0 l 1,27,-1
 1313 0 l 1,28,-1
 1090 843 l 2,29,30
 1063 946 1063 946 1040.5 1067 c 128,-1,31
 1018 1188 1018 1188 991 1326 c 1,32,-1
 1057 1326 l 1,33,34
 1030 1190 1030 1190 1009 1070.5 c 128,-1,35
 988 951 988 951 959 843 c 2,36,-1
 737 0 l 1,37,-1
 433 0 l 1,0,-1
EndSplineSet
Substitution2: "'ss06' Style Set 6 in Latin lookup 52 subtable" W.squared
Substitution2: "'ss05' Style Set 5 in Latin lookup 51 subtable" uni24CC
Position2: "'cpsp' Capital Spacing in Latin lookup 0 subtable" dx=0 dy=0 dh=0 dv=0
EndChar

StartChar: X
Encoding: 88 88 467
Width: 1434
GlyphClass: 2
Flags: W
AnchorPoint: "Anchor-1" 717 1490 basechar 0
AnchorPoint: "Anchor-0" 717 -1 basechar 0
LayerCount: 2
Fore
SplineSet
35 0 m 1,0,-1
 638 860 l 1,1,-1
 638 661 l 1,2,-1
 78 1490 l 1,3,-1
 383 1490 l 1,4,-1
 565 1216 l 2,5,6
 605 1157 605 1157 635 1105.5 c 128,-1,7
 665 1054 665 1054 693 1004.5 c 128,-1,8
 721 955 721 955 751 901 c 1,9,-1
 687 901 l 1,10,11
 719 955 719 955 747 1004.5 c 128,-1,12
 775 1054 775 1054 806 1105.5 c 128,-1,13
 837 1157 837 1157 877 1216 c 2,14,-1
 1062 1490 l 1,15,-1
 1360 1490 l 1,16,-1
 807 675 l 1,17,-1
 807 866 l 1,18,-1
 1399 0 l 1,19,-1
 1089 0 l 1,20,-1
 862 336 l 2,21,22
 827 389 827 389 799.5 432.5 c 128,-1,23
 772 476 772 476 747 518 c 128,-1,24
 722 560 722 560 695 607 c 1,25,-1
 740 607 l 1,26,27
 712 560 712 560 687 518 c 128,-1,28
 662 476 662 476 634 433 c 128,-1,29
 606 390 606 390 569 336 c 2,30,-1
 338 0 l 1,31,-1
 35 0 l 1,0,-1
EndSplineSet
Substitution2: "'ss06' Style Set 6 in Latin lookup 52 subtable" X.squared
Substitution2: "'ss05' Style Set 5 in Latin lookup 51 subtable" uni24CD
Position2: "'cpsp' Capital Spacing in Latin lookup 0 subtable" dx=0 dy=0 dh=0 dv=0
EndChar

StartChar: Y
Encoding: 89 89 473
Width: 1421
GlyphClass: 2
Flags: W
AnchorPoint: "Anchor-4" 845 0 basechar 0
AnchorPoint: "Anchor-1" 711 1490 basechar 0
AnchorPoint: "Anchor-0" 713 0 basechar 0
LayerCount: 2
Fore
SplineSet
582 0 m 1,0,-1
 582 576 l 1,1,-1
 31 1490 l 1,2,-1
 340 1490 l 1,3,-1
 607 1026 l 2,4,5
 648 956 648 956 682 889 c 128,-1,6
 716 822 716 822 752 739 c 1,7,-1
 681 739 l 1,8,9
 715 823 715 823 749 890.5 c 128,-1,10
 783 958 783 958 821 1026 c 2,11,-1
 1083 1490 l 1,12,-1
 1390 1490 l 1,13,-1
 845 576 l 1,14,-1
 845 0 l 1,15,-1
 582 0 l 1,0,-1
EndSplineSet
Substitution2: "'c2sc' Capitals to Small Capitals in Latin lookup 68 subtable" y.sc
Substitution2: "'ss06' Style Set 6 in Latin lookup 52 subtable" Y.squared
Substitution2: "'ss05' Style Set 5 in Latin lookup 51 subtable" uni24CE
Substitution2: "'aalt' Access All Alternates in Latin lookup 0 subtable" y.sc
Position2: "'cpsp' Capital Spacing in Latin lookup 0 subtable" dx=0 dy=0 dh=0 dv=0
EndChar

StartChar: uni01B3
Encoding: 435 435 474
Width: 1526
Flags: W
LayerCount: 2
Fore
SplineSet
718 794 m 1,0,-1
 718 828 l 1,1,-1
 754 828 l 1,2,-1
 754 794 l 1,3,-1
 718 794 l 1,0,-1
41 1490 m 1,4,-1
 333 1490 l 1,5,-1
 736 814 l 1,6,-1
 1038 1319 l 2,7,8
 1096 1414 1096 1414 1172.5 1459.5 c 128,-1,9
 1249 1505 1249 1505 1336 1507.5 c 128,-1,10
 1423 1510 1423 1510 1506 1475 c 1,11,-1
 1445 1273 l 1,12,13
 1380 1295 1380 1295 1334 1279 c 128,-1,14
 1288 1263 1288 1263 1247 1196 c 2,15,-1
 868 591 l 1,16,-1
 868 0 l 1,17,-1
 606 0 l 1,18,-1
 606 591 l 1,19,-1
 41 1490 l 1,4,-1
EndSplineSet
Position2: "'cpsp' Capital Spacing in Latin lookup 0 subtable" dx=0 dy=0 dh=0 dv=0
EndChar

StartChar: uni024E
Encoding: 590 590 484
Width: 1413
GlyphClass: 2
Flags: W
AnchorPoint: "Anchor-4" 845 0 basechar 0
AnchorPoint: "Anchor-1" 711 1490 basechar 0
AnchorPoint: "Anchor-0" 713 0 basechar 0
LayerCount: 2
Fore
SplineSet
1412 1181 m 1,0,-1
 1412 1036 l 1,1,-1
 0 1036 l 1,2,-1
 0 1181 l 1,3,-1
 1412 1181 l 1,0,-1
582 0 m 1,4,-1
 582 576 l 1,5,-1
 31 1490 l 1,6,-1
 340 1490 l 1,7,-1
 607 1026 l 2,8,9
 648 956 648 956 682 889 c 128,-1,10
 716 822 716 822 752 739 c 1,11,-1
 681 739 l 1,12,13
 715 823 715 823 749 890.5 c 128,-1,14
 783 958 783 958 821 1026 c 2,15,-1
 1083 1490 l 1,16,-1
 1390 1490 l 1,17,-1
 845 576 l 1,18,-1
 845 0 l 1,19,-1
 582 0 l 1,4,-1
EndSplineSet
Position2: "'cpsp' Capital Spacing in Latin lookup 0 subtable" dx=0 dy=0 dh=0 dv=0
EndChar

StartChar: Z
Encoding: 90 90 497
Width: 1311
GlyphClass: 2
Flags: W
AnchorPoint: "Anchor-1" 656 1490 basechar 0
AnchorPoint: "Anchor-0" 654 0 basechar 0
LayerCount: 2
Fore
SplineSet
88 0 m 1,0,-1
 88 188 l 1,1,-1
 750 1075 l 2,2,3
 804 1146 804 1146 863.5 1216.5 c 128,-1,4
 923 1287 923 1287 983 1358 c 1,5,-1
 1010 1269 l 1,6,7
 916 1265 916 1265 821.5 1264 c 128,-1,8
 727 1263 727 1263 633 1263 c 2,9,-1
 98 1263 l 1,10,-1
 98 1490 l 1,11,-1
 1219 1490 l 1,12,-1
 1219 1301 l 1,13,-1
 569 429 l 2,14,15
 514 355 514 355 452 280.5 c 128,-1,16
 390 206 390 206 326 133 c 1,17,-1
 299 222 l 1,18,19
 395 226 395 226 489.5 226.5 c 128,-1,20
 584 227 584 227 679 227 c 2,21,-1
 1225 227 l 1,22,-1
 1225 0 l 1,23,-1
 88 0 l 1,0,-1
EndSplineSet
Substitution2: "'ss06' Style Set 6 in Latin lookup 52 subtable" Z.squared
Substitution2: "'ss05' Style Set 5 in Latin lookup 51 subtable" uni24CF
Position2: "'cpsp' Capital Spacing in Latin lookup 0 subtable" dx=0 dy=0 dh=0 dv=0
EndChar

StartChar: uni0224
Encoding: 548 548 504
Width: 1311
GlyphClass: 2
Flags: W
AnchorPoint: "Anchor-1" 656 1490 basechar 0
AnchorPoint: "Anchor-0" 654 0 basechar 0
LayerCount: 2
Fore
SplineSet
747 -418 m 1,0,-1
 747 -205 l 1,1,2
 765 -208 765 -208 793 -208.5 c 128,-1,3
 821 -209 821 -209 843 -209 c 0,4,5
 908 -209 908 -209 933.5 -187 c 128,-1,6
 959 -165 959 -165 959 -115 c 2,7,-1
 959 0 l 1,8,-1
 1225 0 l 1,9,-1
 1225 -129 l 2,10,11
 1225 -275 1225 -275 1140.5 -350 c 128,-1,12
 1056 -425 1056 -425 890 -425 c 0,13,14
 847 -425 847 -425 809.5 -423 c 128,-1,15
 772 -421 772 -421 747 -418 c 1,0,-1
88 0 m 1,16,-1
 88 188 l 1,17,-1
 750 1075 l 2,18,19
 804 1146 804 1146 863.5 1216.5 c 128,-1,20
 923 1287 923 1287 983 1358 c 1,21,-1
 1010 1269 l 1,22,23
 916 1265 916 1265 821.5 1264 c 128,-1,24
 727 1263 727 1263 633 1263 c 2,25,-1
 98 1263 l 1,26,-1
 98 1490 l 1,27,-1
 1219 1490 l 1,28,-1
 1219 1301 l 1,29,-1
 569 429 l 2,30,31
 514 355 514 355 452 280.5 c 128,-1,32
 390 206 390 206 326 133 c 1,33,-1
 299 222 l 1,34,35
 395 226 395 226 489.5 226.5 c 128,-1,36
 584 227 584 227 679 227 c 2,37,-1
 1225 227 l 1,38,-1
 1225 0 l 1,39,-1
 88 0 l 1,16,-1
EndSplineSet
Position2: "'cpsp' Capital Spacing in Latin lookup 0 subtable" dx=0 dy=0 dh=0 dv=0
EndChar

StartChar: uni2C7F
Encoding: 11391 11391 507
Width: 1295
Flags: W
LayerCount: 2
Fore
SplineSet
1068 -427 m 0,0,1
 981 -427 981 -427 913.5 -396 c 128,-1,2
 846 -365 846 -365 788.5 -316.5 c 128,-1,3
 731 -268 731 -268 676 -213.5 c 128,-1,4
 621 -159 621 -159 561 -110 c 128,-1,5
 501 -61 501 -61 428 -30.5 c 128,-1,6
 355 0 355 0 259 0 c 2,7,-1
 90 0 l 1,8,-1
 90 178 l 1,9,-1
 856 1264 l 1,10,-1
 86 1264 l 1,11,-1
 86 1490 l 1,12,-1
 1184 1490 l 1,13,-1
 1184 1313 l 1,14,-1
 408 208 l 1,15,16
 499 194 499 194 569 159.5 c 128,-1,17
 639 125 639 125 694.5 78 c 128,-1,18
 750 31 750 31 797.5 -18.5 c 128,-1,19
 845 -68 845 -68 889.5 -110.5 c 128,-1,20
 934 -153 934 -153 981 -179 c 128,-1,21
 1028 -205 1028 -205 1084 -205 c 0,22,23
 1110 -205 1110 -205 1129.5 -204 c 128,-1,24
 1149 -203 1149 -203 1168 -200.5 c 128,-1,25
 1187 -198 1187 -198 1210 -195 c 1,26,-1
 1210 -413 l 1,27,28
 1180 -418 1180 -418 1144.5 -422.5 c 128,-1,29
 1109 -427 1109 -427 1068 -427 c 0,0,1
EndSplineSet
Position2: "'cpsp' Capital Spacing in Latin lookup 0 subtable" dx=0 dy=0 dh=0 dv=0
EndChar

StartChar: a
Encoding: 97 97 508
Width: 1142
GlyphClass: 2
Flags: W
AnchorPoint: "Anchor-4" 1017 0 basechar 0
AnchorPoint: "Anchor-1" 564 1087 basechar 0
AnchorPoint: "Anchor-0" 561 0 basechar 0
LayerCount: 2
Fore
SplineSet
443 -20 m 0,0,1
 337 -20 337 -20 253.5 17 c 128,-1,2
 170 54 170 54 121 127 c 128,-1,3
 72 200 72 200 72 307 c 0,4,5
 72 400 72 400 107 460.5 c 128,-1,6
 142 521 142 521 201.5 557 c 128,-1,7
 261 593 261 593 336.5 611.5 c 128,-1,8
 412 630 412 630 494 638 c 0,9,10
 591 649 591 649 650 657 c 128,-1,11
 709 665 709 665 735.5 682.5 c 128,-1,12
 762 700 762 700 762 737 c 2,13,-1
 762 744 l 2,14,15
 762 794 762 794 740 830.5 c 128,-1,16
 718 867 718 867 674.5 886.5 c 128,-1,17
 631 906 631 906 568 906 c 0,18,19
 506 906 506 906 458.5 887 c 128,-1,20
 411 868 411 868 382.5 834 c 128,-1,21
 354 800 354 800 345 759 c 1,22,-1
 103 785 l 1,23,24
 123 886 123 886 186 957.5 c 128,-1,25
 249 1029 249 1029 347.5 1067 c 128,-1,26
 446 1105 446 1105 571 1105 c 0,27,28
 662 1105 662 1105 743 1083.5 c 128,-1,29
 824 1062 824 1062 885.5 1016.5 c 128,-1,30
 947 971 947 971 982 901 c 128,-1,31
 1017 831 1017 831 1017 734 c 2,32,-1
 1017 0 l 1,33,-1
 770 0 l 1,34,-1
 770 152 l 1,35,-1
 762 152 l 1,36,37
 738 105 738 105 696 66 c 128,-1,38
 654 27 654 27 591.5 3.5 c 128,-1,39
 529 -20 529 -20 443 -20 c 0,0,1
507 171 m 0,40,41
 588 171 588 171 645.5 201.5 c 128,-1,42
 703 232 703 232 733.5 283.5 c 128,-1,43
 764 335 764 335 764 396 c 2,44,-1
 764 520 l 1,45,46
 752 511 752 511 725 503 c 128,-1,47
 698 495 698 495 663.5 488.5 c 128,-1,48
 629 482 629 482 592.5 476 c 128,-1,49
 556 470 556 470 525 466 c 0,50,51
 469 459 469 459 422.5 441 c 128,-1,52
 376 423 376 423 349 391.5 c 128,-1,53
 322 360 322 360 322 310 c 0,54,55
 322 265 322 265 345 234 c 128,-1,56
 368 203 368 203 410 187 c 128,-1,57
 452 171 452 171 507 171 c 0,40,41
EndSplineSet
Substitution2: "'smcp' Lowercase to Small Capitals in Latin lookup 69 subtable" a.sc
Substitution2: "'c2sc' Capitals to Small Capitals in Latin lookup 68 subtable" a.sc
Substitution2: "'cv11' Character Variants 11 in Latin lookup 65 subtable" a.1
Substitution2: "'salt' Stylistic Alternatives in Latin lookup 46 subtable" a.1
Substitution2: "Single Substitution lookup 44 subtable" ordfeminine
Substitution2: "'sups' Superscript in Latin lookup 39 subtable" a.sups
Substitution2: "'subs' Subscript in Latin lookup 38 subtable" a.subs
Substitution2: "'sinf' Scientific Inferiors in Latin lookup 18 subtable" a.subs
AlternateSubs2: "'aalt' Access All Alternates in Latin lookup 1 subtable" ordfeminine a.sups a.subs a.sc
EndChar

StartChar: aturn
Encoding: 592 592 540
Width: 1142
GlyphClass: 2
Flags: W
AnchorPoint: "Anchor-4" 125 1087 basechar 0
AnchorPoint: "Anchor-1" 603 1087 basechar 0
AnchorPoint: "Anchor-0" 593 0 basechar 0
LayerCount: 2
Fore
SplineSet
700 1107 m 0,0,1
 806 1107 806 1107 890 1070.5 c 128,-1,2
 974 1034 974 1034 1022 961 c 128,-1,3
 1070 888 1070 888 1070 780 c 0,4,5
 1070 688 1070 688 1035.5 628 c 128,-1,6
 1001 568 1001 568 941.5 532 c 128,-1,7
 882 496 882 496 806.5 477 c 128,-1,8
 731 458 731 458 650 450 c 0,9,10
 552 439 552 439 492.5 431 c 128,-1,11
 433 423 433 423 406.5 405.5 c 128,-1,12
 380 388 380 388 380 351 c 2,13,-1
 380 345 l 2,14,15
 380 295 380 295 402.5 258 c 128,-1,16
 425 221 425 221 469 201 c 128,-1,17
 513 181 513 181 574 181 c 0,18,19
 638 181 638 181 684.5 200.5 c 128,-1,20
 731 220 731 220 760 254 c 128,-1,21
 789 288 789 288 797 328 c 1,22,-1
 1039 304 l 1,23,24
 1020 202 1020 202 956.5 130 c 128,-1,25
 893 58 893 58 795 20 c 128,-1,26
 697 -18 697 -18 572 -18 c 0,27,28
 481 -18 481 -18 400 4 c 128,-1,29
 319 26 319 26 257.5 71.5 c 128,-1,30
 196 117 196 117 160.5 186.5 c 128,-1,31
 125 256 125 256 125 354 c 2,32,-1
 125 1087 l 1,33,-1
 374 1087 l 1,34,-1
 374 935 l 1,35,-1
 381 935 l 1,36,37
 405 983 405 983 447 1022 c 128,-1,38
 489 1061 489 1061 551.5 1084 c 128,-1,39
 614 1107 614 1107 700 1107 c 0,0,1
635 918 m 0,40,41
 555 918 555 918 497 886.5 c 128,-1,42
 439 855 439 855 408.5 804 c 128,-1,43
 378 753 378 753 378 691 c 2,44,-1
 378 568 l 1,45,46
 391 577 391 577 417.5 585 c 128,-1,47
 444 593 444 593 478.5 599.5 c 128,-1,48
 513 606 513 606 549.5 611.5 c 128,-1,49
 586 617 586 617 619 622 c 0,50,51
 674 630 674 630 720.5 648 c 128,-1,52
 767 666 767 666 794 697.5 c 128,-1,53
 821 729 821 729 821 778 c 0,54,55
 821 823 821 823 797.5 854 c 128,-1,56
 774 885 774 885 732.5 901.5 c 128,-1,57
 691 918 691 918 635 918 c 0,40,41
EndSplineSet
EndChar

StartChar: ae
Encoding: 230 230 544
Width: 1836
GlyphClass: 2
Flags: W
AnchorPoint: "Anchor-1" 899 1087 basechar 0
LayerCount: 2
Fore
SplineSet
463 -19 m 0,0,1
 345 -19 345 -19 257.5 19 c 128,-1,2
 170 57 170 57 121 130.5 c 128,-1,3
 72 204 72 204 72 307 c 0,4,5
 72 398 72 398 112 462.5 c 128,-1,6
 152 527 152 527 222 568.5 c 128,-1,7
 292 610 292 610 385 630 c 128,-1,8
 478 650 478 650 586 650 c 2,9,-1
 1611 650 l 1,10,-1
 1517 598 l 1,11,12
 1522 690 1522 690 1491 759 c 128,-1,13
 1460 828 1460 828 1401 866 c 128,-1,14
 1342 904 1342 904 1259 904 c 0,15,16
 1177 904 1177 904 1117 866 c 128,-1,17
 1057 828 1057 828 1025 761.5 c 128,-1,18
 993 695 993 695 993 610 c 2,19,-1
 993 493 l 2,20,21
 993 395 993 395 1026.5 324.5 c 128,-1,22
 1060 254 1060 254 1123.5 216 c 128,-1,23
 1187 178 1187 178 1273 178 c 0,24,25
 1333 178 1333 178 1381 196 c 128,-1,26
 1429 214 1429 214 1462 247 c 128,-1,27
 1495 280 1495 280 1512 327 c 1,28,-1
 1751 313 l 1,29,30
 1730 213 1730 213 1663.5 137.5 c 128,-1,31
 1597 62 1597 62 1496.5 19.5 c 128,-1,32
 1396 -23 1396 -23 1268 -23 c 0,33,34
 1159 -23 1159 -23 1069.5 11.5 c 128,-1,35
 980 46 980 46 917.5 109 c 128,-1,36
 855 172 855 172 823 255 c 1,37,-1
 832 845 l 1,38,39
 873 926 873 926 934.5 984 c 128,-1,40
 996 1042 996 1042 1077 1074 c 128,-1,41
 1158 1106 1158 1106 1256 1106 c 0,42,43
 1365 1106 1365 1106 1457.5 1070 c 128,-1,44
 1550 1034 1550 1034 1619 962.5 c 128,-1,45
 1688 891 1688 891 1726 787.5 c 128,-1,46
 1764 684 1764 684 1764 550 c 2,47,-1
 1764 475 l 1,48,-1
 578 475 l 2,49,50
 499 475 499 475 441.5 455.5 c 128,-1,51
 384 436 384 436 353 400 c 128,-1,52
 322 364 322 364 322 314 c 0,53,54
 322 243 322 243 373.5 207 c 128,-1,55
 425 171 425 171 507 171 c 0,56,57
 588 171 588 171 645.5 201.5 c 128,-1,58
 703 232 703 232 733 283.5 c 128,-1,59
 763 335 763 335 763 396 c 2,60,-1
 763 744 l 2,61,62
 763 793 763 793 740 830 c 128,-1,63
 717 867 717 867 674 886.5 c 128,-1,64
 631 906 631 906 568 906 c 0,65,66
 506 906 506 906 458.5 887 c 128,-1,67
 411 868 411 868 382.5 834 c 128,-1,68
 354 800 354 800 345 759 c 1,69,-1
 103 785 l 1,70,71
 123 882 123 882 185.5 954 c 128,-1,72
 248 1026 248 1026 345.5 1065.5 c 128,-1,73
 443 1105 443 1105 567 1105 c 0,74,75
 679 1105 679 1105 763 1068.5 c 128,-1,76
 847 1032 847 1032 898 960 c 128,-1,77
 949 888 949 888 959 781 c 1,78,-1
 940 226 l 1,79,-1
 893 226 l 1,80,81
 870 164 870 164 827.5 118 c 128,-1,82
 785 72 785 72 728 41.5 c 128,-1,83
 671 11 671 11 603.5 -4 c 128,-1,84
 536 -19 536 -19 463 -19 c 0,0,1
EndSplineSet
EndChar

StartChar: a.1
Encoding: 57388 57388 548
Width: 1240
GlyphClass: 2
Flags: W
AnchorPoint: "Anchor-4" 1115 0 basechar 0
AnchorPoint: "Anchor-1" 609 1087 basechar 0
AnchorPoint: "Anchor-0" 610 0 basechar 0
LayerCount: 2
Fore
SplineSet
535 -21 m 0,0,1
 401 -21 401 -21 297.5 48 c 128,-1,2
 194 117 194 117 135 243 c 128,-1,3
 76 369 76 369 76 543 c 256,4,5
 76 717 76 717 135.5 843 c 128,-1,6
 195 969 195 969 299 1037 c 128,-1,7
 403 1105 403 1105 535 1105 c 0,8,9
 620 1105 620 1105 681.5 1079 c 128,-1,10
 743 1053 743 1053 785.5 1011 c 128,-1,11
 828 969 828 969 855 921 c 1,12,-1
 862 921 l 1,13,-1
 862 1087 l 1,14,-1
 1115 1087 l 1,15,-1
 1115 0 l 1,16,-1
 862 0 l 1,17,-1
 862 168 l 1,18,-1
 855 168 l 1,19,20
 828 118 828 118 785 75 c 128,-1,21
 742 32 742 32 680 5.5 c 128,-1,22
 618 -21 618 -21 535 -21 c 0,0,1
601 192 m 0,23,24
 685 192 685 192 745 236 c 128,-1,25
 805 280 805 280 837 359.5 c 128,-1,26
 869 439 869 439 869 543 c 0,27,28
 869 650 869 650 837.5 728.5 c 128,-1,29
 806 807 806 807 746 850.5 c 128,-1,30
 686 894 686 894 601 894 c 0,31,32
 519 894 519 894 459.5 850.5 c 128,-1,33
 400 807 400 807 368.5 729 c 128,-1,34
 337 651 337 651 337 543 c 0,35,36
 337 437 337 437 368.5 358 c 128,-1,37
 400 279 400 279 459 235.5 c 128,-1,38
 518 192 518 192 601 192 c 0,23,24
EndSplineSet
EndChar

StartChar: b
Encoding: 98 98 579
Width: 1240
GlyphClass: 2
Flags: W
AnchorPoint: "Anchor-1" 720 1291 basechar 0
AnchorPoint: "Anchor-0" 641 0 basechar 0
LayerCount: 2
Fore
SplineSet
706 -21 m 0,0,1
 624 -21 624 -21 561.5 5.5 c 128,-1,2
 499 32 499 32 456 75.5 c 128,-1,3
 413 119 413 119 386 170 c 1,4,-1
 376 170 l 1,5,-1
 376 0 l 1,6,-1
 125 0 l 1,7,-1
 125 1490 l 1,8,-1
 381 1490 l 1,9,-1
 381 920 l 1,10,-1
 388 920 l 1,11,12
 415 969 415 969 457.5 1011 c 128,-1,13
 500 1053 500 1053 561.5 1079 c 128,-1,14
 623 1105 623 1105 706 1105 c 0,15,16
 839 1105 839 1105 942.5 1037 c 128,-1,17
 1046 969 1046 969 1105 843 c 128,-1,18
 1164 717 1164 717 1164 543 c 256,19,20
 1164 369 1164 369 1106 243 c 128,-1,21
 1048 117 1048 117 944.5 48 c 128,-1,22
 841 -21 841 -21 706 -21 c 0,0,1
640 192 m 0,23,24
 724 192 724 192 782.5 235.5 c 128,-1,25
 841 279 841 279 872.5 358 c 128,-1,26
 904 437 904 437 904 543 c 0,27,28
 904 650 904 650 873 728.5 c 128,-1,29
 842 807 842 807 783 850.5 c 128,-1,30
 724 894 724 894 640 894 c 0,31,32
 557 894 557 894 496.5 850.5 c 128,-1,33
 436 807 436 807 404 728.5 c 128,-1,34
 372 650 372 650 372 543 c 0,35,36
 372 439 372 439 404 359.5 c 128,-1,37
 436 280 436 280 497 236 c 128,-1,38
 558 192 558 192 640 192 c 0,23,24
EndSplineSet
Substitution2: "'sups' Superscript in Latin lookup 39 subtable" b.sups
Substitution2: "'subs' Subscript in Latin lookup 38 subtable" b.subs
Substitution2: "'sinf' Scientific Inferiors in Latin lookup 18 subtable" b.subs
AlternateSubs2: "'aalt' Access All Alternates in Latin lookup 1 subtable" b.sups b.subs
EndChar

StartChar: uni0183
Encoding: 387 387 581
Width: 1240
GlyphClass: 2
Flags: W
AnchorPoint: "Anchor-1" 720 1291 basechar 0
AnchorPoint: "Anchor-0" 641 0 basechar 0
LayerCount: 2
Fore
SplineSet
256 1286 m 1,0,-1
 125 1490 l 1,1,-1
 978 1490 l 1,2,-1
 978 1286 l 1,3,-1
 256 1286 l 1,0,-1
706 -21 m 0,4,5
 624 -21 624 -21 561.5 5.5 c 128,-1,6
 499 32 499 32 456 75.5 c 128,-1,7
 413 119 413 119 386 170 c 1,8,-1
 376 170 l 1,9,-1
 376 0 l 1,10,-1
 125 0 l 1,11,-1
 125 1490 l 1,12,-1
 381 1490 l 1,13,-1
 381 920 l 1,14,-1
 388 920 l 1,15,16
 415 969 415 969 457.5 1011 c 128,-1,17
 500 1053 500 1053 561.5 1079 c 128,-1,18
 623 1105 623 1105 706 1105 c 0,19,20
 839 1105 839 1105 942.5 1037 c 128,-1,21
 1046 969 1046 969 1105 843 c 128,-1,22
 1164 717 1164 717 1164 543 c 256,23,24
 1164 369 1164 369 1106 243 c 128,-1,25
 1048 117 1048 117 944.5 48 c 128,-1,26
 841 -21 841 -21 706 -21 c 0,4,5
640 192 m 0,27,28
 724 192 724 192 782.5 235.5 c 128,-1,29
 841 279 841 279 872.5 358 c 128,-1,30
 904 437 904 437 904 543 c 0,31,32
 904 650 904 650 873 728.5 c 128,-1,33
 842 807 842 807 783 850.5 c 128,-1,34
 724 894 724 894 640 894 c 0,35,36
 557 894 557 894 496.5 850.5 c 128,-1,37
 436 807 436 807 404 728.5 c 128,-1,38
 372 650 372 650 372 543 c 0,39,40
 372 439 372 439 404 359.5 c 128,-1,41
 436 280 436 280 497 236 c 128,-1,42
 558 192 558 192 640 192 c 0,27,28
EndSplineSet
EndChar

StartChar: uni0253
Encoding: 595 595 582
Width: 1238
GlyphClass: 2
Flags: W
AnchorPoint: "Anchor-1" 425 1490 basechar 0
AnchorPoint: "Anchor-0" 639 0 basechar 0
LayerCount: 2
Fore
SplineSet
702 -21 m 0,0,1
 620 -21 620 -21 558 5.5 c 128,-1,2
 496 32 496 32 453 75 c 128,-1,3
 410 118 410 118 383 167 c 1,4,-1
 373 167 l 1,5,-1
 373 0 l 1,6,-1
 125 0 l 1,7,-1
 125 1087 l 1,8,-1
 378 1087 l 1,9,-1
 378 913 l 1,10,-1
 385 915 l 1,11,12
 412 961 412 961 454 1003 c 128,-1,13
 496 1045 496 1045 558 1070.5 c 128,-1,14
 620 1096 620 1096 703 1096 c 0,15,16
 837 1096 837 1096 940.5 1029 c 128,-1,17
 1044 962 1044 962 1103 837.5 c 128,-1,18
 1162 713 1162 713 1162 540 c 0,19,20
 1162 369 1162 369 1103.5 242.5 c 128,-1,21
 1045 116 1045 116 941.5 47.5 c 128,-1,22
 838 -21 838 -21 702 -21 c 0,0,1
639 190 m 0,23,24
 723 190 723 190 782.5 233 c 128,-1,25
 842 276 842 276 873.5 355 c 128,-1,26
 905 434 905 434 905 541 c 0,27,28
 905 647 905 647 873.5 725.5 c 128,-1,29
 842 804 842 804 783 847 c 128,-1,30
 724 890 724 890 639 890 c 0,31,32
 555 890 555 890 494.5 847 c 128,-1,33
 434 804 434 804 401 725.5 c 128,-1,34
 368 647 368 647 368 541 c 0,35,36
 368 436 368 436 401 356.5 c 128,-1,37
 434 277 434 277 495 233.5 c 128,-1,38
 556 190 556 190 639 190 c 0,23,24
125 858 m 1,39,-1
 125 1202 l 2,40,41
 125 1348 125 1348 210.5 1422.5 c 128,-1,42
 296 1497 296 1497 461 1497 c 0,43,44
 505 1497 505 1497 540.5 1495.5 c 128,-1,45
 576 1494 576 1494 601 1490 c 1,46,-1
 601 1289 l 1,47,48
 583 1291 583 1291 555.5 1291.5 c 128,-1,49
 528 1292 528 1292 506 1292 c 0,50,51
 440 1292 440 1292 410.5 1269.5 c 128,-1,52
 381 1247 381 1247 381 1198 c 2,53,-1
 381 858 l 1,54,-1
 125 858 l 1,39,-1
EndSplineSet
EndChar

StartChar: thorn
Encoding: 254 254 586
Width: 1241
Flags: W
LayerCount: 2
Fore
SplineSet
706 -21 m 0,0,1
 624 -21 624 -21 562.5 5.5 c 128,-1,2
 501 32 501 32 458.5 75 c 128,-1,3
 416 118 416 118 388 168 c 1,4,-1
 381 168 l 1,5,-1
 381 -418 l 1,6,-1
 125 -418 l 1,7,-1
 125 1490 l 1,8,-1
 381 1490 l 1,9,-1
 381 921 l 1,10,-1
 389 921 l 1,11,12
 416 969 416 969 458 1011 c 128,-1,13
 500 1053 500 1053 561.5 1079 c 128,-1,14
 623 1105 623 1105 707 1105 c 0,15,16
 840 1105 840 1105 943.5 1037 c 128,-1,17
 1047 969 1047 969 1106 843 c 128,-1,18
 1165 717 1165 717 1165 543 c 256,19,20
 1165 369 1165 369 1106.5 243 c 128,-1,21
 1048 117 1048 117 945 48 c 128,-1,22
 842 -21 842 -21 706 -21 c 0,0,1
641 192 m 256,23,24
 724 192 724 192 782.5 235.5 c 128,-1,25
 841 279 841 279 873 358 c 128,-1,26
 905 437 905 437 905 543 c 0,27,28
 905 650 905 650 873.5 728.5 c 128,-1,29
 842 807 842 807 783 850.5 c 128,-1,30
 724 894 724 894 641 894 c 0,31,32
 557 894 557 894 497 850.5 c 128,-1,33
 437 807 437 807 404.5 728.5 c 128,-1,34
 372 650 372 650 372 543 c 0,35,36
 372 439 372 439 404.5 359.5 c 128,-1,37
 437 280 437 280 497.5 236 c 128,-1,38
 558 192 558 192 641 192 c 256,23,24
EndSplineSet
EndChar

StartChar: c
Encoding: 99 99 587
Width: 1155
GlyphClass: 2
Flags: W
AnchorPoint: "Anchor-3" 602 0 basechar 0
AnchorPoint: "Anchor-1" 602 1087 basechar 0
AnchorPoint: "Anchor-0" 602 0 basechar 0
LayerCount: 2
Fore
SplineSet
602 -23 m 0,0,1
 443 -23 443 -23 325 48 c 128,-1,2
 207 119 207 119 141.5 246 c 128,-1,3
 76 373 76 373 76 540 c 0,4,5
 76 709 76 709 141.5 836.5 c 128,-1,6
 207 964 207 964 325 1035 c 128,-1,7
 443 1106 443 1106 602 1106 c 0,8,9
 697 1106 697 1106 779.5 1079.5 c 128,-1,10
 862 1053 862 1053 925 1003.5 c 128,-1,11
 988 954 988 954 1028.5 884.5 c 128,-1,12
 1069 815 1069 815 1082 730 c 1,13,-1
 836 704 l 1,14,15
 828 747 828 747 808.5 782 c 128,-1,16
 789 817 789 817 759.5 842.5 c 128,-1,17
 730 868 730 868 691 882 c 128,-1,18
 652 896 652 896 604 896 c 0,19,20
 517 896 517 896 457.5 851 c 128,-1,21
 398 806 398 806 367.5 726 c 128,-1,22
 337 646 337 646 337 540 c 0,23,24
 337 437 337 437 367.5 357.5 c 128,-1,25
 398 278 398 278 457.5 233 c 128,-1,26
 517 188 517 188 604 188 c 0,27,28
 652 188 652 188 691 201.5 c 128,-1,29
 730 215 730 215 759.5 241 c 128,-1,30
 789 267 789 267 808.5 303 c 128,-1,31
 828 339 828 339 837 384 c 1,32,-1
 1084 358 l 1,33,34
 1071 273 1071 273 1031 203 c 128,-1,35
 991 133 991 133 927.5 82.5 c 128,-1,36
 864 32 864 32 781 4.5 c 128,-1,37
 698 -23 698 -23 602 -23 c 0,0,1
EndSplineSet
Substitution2: "'sups' Superscript in Latin lookup 39 subtable" c.sups
Substitution2: "'subs' Subscript in Latin lookup 38 subtable" c.subs
Substitution2: "'sinf' Scientific Inferiors in Latin lookup 18 subtable" c.subs
AlternateSubs2: "'aalt' Access All Alternates in Latin lookup 1 subtable" c.sups c.subs
EndChar

StartChar: uni023C
Encoding: 572 572 588
Width: 1155
GlyphClass: 2
Flags: W
AnchorPoint: "Anchor-3" 602 0 basechar 0
AnchorPoint: "Anchor-1" 602 1087 basechar 0
AnchorPoint: "Anchor-0" 602 0 basechar 0
LayerCount: 2
Fore
SplineSet
188 -418 m 1,0,-1
 850 1490 l 1,1,-1
 1000 1490 l 1,2,-1
 338 -418 l 1,3,-1
 188 -418 l 1,0,-1
602 -23 m 0,4,5
 443 -23 443 -23 325 48 c 128,-1,6
 207 119 207 119 141.5 246 c 128,-1,7
 76 373 76 373 76 540 c 0,8,9
 76 709 76 709 141.5 836.5 c 128,-1,10
 207 964 207 964 325 1035 c 128,-1,11
 443 1106 443 1106 602 1106 c 0,12,13
 697 1106 697 1106 779.5 1079.5 c 128,-1,14
 862 1053 862 1053 925 1003.5 c 128,-1,15
 988 954 988 954 1028.5 884.5 c 128,-1,16
 1069 815 1069 815 1082 730 c 1,17,-1
 836 704 l 1,18,19
 828 747 828 747 808.5 782 c 128,-1,20
 789 817 789 817 759.5 842.5 c 128,-1,21
 730 868 730 868 691 882 c 128,-1,22
 652 896 652 896 604 896 c 0,23,24
 517 896 517 896 457.5 851 c 128,-1,25
 398 806 398 806 367.5 726 c 128,-1,26
 337 646 337 646 337 540 c 0,27,28
 337 437 337 437 367.5 357.5 c 128,-1,29
 398 278 398 278 457.5 233 c 128,-1,30
 517 188 517 188 604 188 c 0,31,32
 652 188 652 188 691 201.5 c 128,-1,33
 730 215 730 215 759.5 241 c 128,-1,34
 789 267 789 267 808.5 303 c 128,-1,35
 828 339 828 339 837 384 c 1,36,-1
 1084 358 l 1,37,38
 1071 273 1071 273 1031 203 c 128,-1,39
 991 133 991 133 927.5 82.5 c 128,-1,40
 864 32 864 32 781 4.5 c 128,-1,41
 698 -23 698 -23 602 -23 c 0,4,5
EndSplineSet
Ligature2: "'ccmp' Glyph Composition/Decomposition in Latin lookup 6 subtable" c uni0338
EndChar

StartChar: uni0188
Encoding: 392 392 589
Width: 1283
GlyphClass: 2
Flags: W
AnchorPoint: "Anchor-3" 602 0 basechar 0
AnchorPoint: "Anchor-1" 602 1087 basechar 0
AnchorPoint: "Anchor-0" 602 0 basechar 0
LayerCount: 2
Fore
SplineSet
867 721 m 1,0,-1
 832 977 l 1,1,2
 805 1135 805 1135 876 1211 c 128,-1,3
 947 1287 947 1287 1116 1287 c 0,4,5
 1156 1287 1156 1287 1187.5 1286 c 128,-1,6
 1219 1285 1219 1285 1241 1283 c 1,7,-1
 1240 1080 l 1,8,9
 1220 1082 1220 1082 1191.5 1082.5 c 128,-1,10
 1163 1083 1163 1083 1141 1083 c 0,11,12
 1085 1083 1085 1083 1063.5 1058 c 128,-1,13
 1042 1033 1042 1033 1051 978 c 2,14,-1
 1082 730 l 1,15,-1
 867 721 l 1,0,-1
602 -23 m 0,16,17
 443 -23 443 -23 325 48 c 128,-1,18
 207 119 207 119 141.5 246 c 128,-1,19
 76 373 76 373 76 540 c 0,20,21
 76 709 76 709 141.5 836.5 c 128,-1,22
 207 964 207 964 325 1035 c 128,-1,23
 443 1106 443 1106 602 1106 c 0,24,25
 697 1106 697 1106 779.5 1079.5 c 128,-1,26
 862 1053 862 1053 925 1003.5 c 128,-1,27
 988 954 988 954 1028.5 884.5 c 128,-1,28
 1069 815 1069 815 1082 730 c 1,29,-1
 836 704 l 1,30,31
 828 747 828 747 808.5 782 c 128,-1,32
 789 817 789 817 759.5 842.5 c 128,-1,33
 730 868 730 868 691 882 c 128,-1,34
 652 896 652 896 604 896 c 0,35,36
 517 896 517 896 457.5 851 c 128,-1,37
 398 806 398 806 367.5 726 c 128,-1,38
 337 646 337 646 337 540 c 0,39,40
 337 437 337 437 367.5 357.5 c 128,-1,41
 398 278 398 278 457.5 233 c 128,-1,42
 517 188 517 188 604 188 c 0,43,44
 652 188 652 188 691 201.5 c 128,-1,45
 730 215 730 215 759.5 241 c 128,-1,46
 789 267 789 267 808.5 303 c 128,-1,47
 828 339 828 339 837 384 c 1,48,-1
 1084 358 l 1,49,50
 1071 273 1071 273 1031 203 c 128,-1,51
 991 133 991 133 927.5 82.5 c 128,-1,52
 864 32 864 32 781 4.5 c 128,-1,53
 698 -23 698 -23 602 -23 c 0,16,17
EndSplineSet
EndChar

StartChar: d
Encoding: 100 100 598
Width: 1240
GlyphClass: 2
Flags: W
AnchorPoint: "Anchor-1" 521 1291 basechar 0
LayerCount: 2
Fore
SplineSet
536 -21 m 0,0,1
 401 -21 401 -21 297 48 c 128,-1,2
 193 117 193 117 134.5 243 c 128,-1,3
 76 369 76 369 76 543 c 256,4,5
 76 717 76 717 135.5 843 c 128,-1,6
 195 969 195 969 298.5 1037 c 128,-1,7
 402 1105 402 1105 534 1105 c 0,8,9
 618 1105 618 1105 680 1079 c 128,-1,10
 742 1053 742 1053 784.5 1011 c 128,-1,11
 827 969 827 969 853 920 c 1,12,-1
 859 920 l 1,13,-1
 859 1490 l 1,14,-1
 1115 1490 l 1,15,-1
 1115 0 l 1,16,-1
 864 0 l 1,17,-1
 864 170 l 1,18,-1
 855 170 l 1,19,20
 828 119 828 119 785 75.5 c 128,-1,21
 742 32 742 32 680.5 5.5 c 128,-1,22
 619 -21 619 -21 536 -21 c 0,0,1
600 192 m 0,23,24
 684 192 684 192 744 236 c 128,-1,25
 804 280 804 280 836.5 359.5 c 128,-1,26
 869 439 869 439 869 543 c 0,27,28
 869 650 869 650 837 728.5 c 128,-1,29
 805 807 805 807 745 850.5 c 128,-1,30
 685 894 685 894 600 894 c 0,31,32
 518 894 518 894 459 850.5 c 128,-1,33
 400 807 400 807 368.5 728.5 c 128,-1,34
 337 650 337 650 337 543 c 0,35,36
 337 437 337 437 368.5 358 c 128,-1,37
 400 279 400 279 459.5 235.5 c 128,-1,38
 519 192 519 192 600 192 c 0,23,24
EndSplineSet
Substitution2: "'sups' Superscript in Latin lookup 39 subtable" d.sups
Substitution2: "'subs' Subscript in Latin lookup 38 subtable" d.subs
Substitution2: "'sinf' Scientific Inferiors in Latin lookup 18 subtable" d.subs
AlternateSubs2: "'aalt' Access All Alternates in Latin lookup 1 subtable" d.sups d.subs
EndChar

StartChar: drthook
Encoding: 598 598 600
Width: 1240
GlyphClass: 2
Flags: W
AnchorPoint: "Anchor-1" 521 1291 basechar 0
LayerCount: 2
Fore
SplineSet
1189 -425 m 0,0,1
 1024 -425 1024 -425 941.5 -350 c 128,-1,2
 859 -275 859 -275 859 -129 c 2,3,-1
 859 194 l 1,4,-1
 1113 194 l 1,5,-1
 1113 -125 l 2,6,7
 1113 -175 1113 -175 1140.5 -197.5 c 128,-1,8
 1168 -220 1168 -220 1233 -220 c 0,9,10
 1256 -220 1256 -220 1283.5 -219 c 128,-1,11
 1311 -218 1311 -218 1329 -217 c 1,12,-1
 1329 -418 l 1,13,14
 1304 -421 1304 -421 1268.5 -423 c 128,-1,15
 1233 -425 1233 -425 1189 -425 c 0,0,1
536 -21 m 0,16,17
 401 -21 401 -21 297 48 c 128,-1,18
 193 117 193 117 134.5 243 c 128,-1,19
 76 369 76 369 76 543 c 256,20,21
 76 717 76 717 135.5 843 c 128,-1,22
 195 969 195 969 298.5 1037 c 128,-1,23
 402 1105 402 1105 534 1105 c 0,24,25
 618 1105 618 1105 680 1079 c 128,-1,26
 742 1053 742 1053 784.5 1011 c 128,-1,27
 827 969 827 969 853 920 c 1,28,-1
 859 920 l 1,29,-1
 859 1490 l 1,30,-1
 1115 1490 l 1,31,-1
 1115 0 l 1,32,-1
 864 0 l 1,33,-1
 864 170 l 1,34,-1
 855 170 l 1,35,36
 828 119 828 119 785 75.5 c 128,-1,37
 742 32 742 32 680.5 5.5 c 128,-1,38
 619 -21 619 -21 536 -21 c 0,16,17
600 192 m 0,39,40
 684 192 684 192 744 236 c 128,-1,41
 804 280 804 280 836.5 359.5 c 128,-1,42
 869 439 869 439 869 543 c 0,43,44
 869 650 869 650 837 728.5 c 128,-1,45
 805 807 805 807 745 850.5 c 128,-1,46
 685 894 685 894 600 894 c 0,47,48
 518 894 518 894 459 850.5 c 128,-1,49
 400 807 400 807 368.5 728.5 c 128,-1,50
 337 650 337 650 337 543 c 0,51,52
 337 437 337 437 368.5 358 c 128,-1,53
 400 279 400 279 459.5 235.5 c 128,-1,54
 519 192 519 192 600 192 c 0,39,40
EndSplineSet
EndChar

StartChar: uni0257
Encoding: 599 599 601
Width: 1240
GlyphClass: 2
Flags: W
AnchorPoint: "Anchor-4" 1115 0 basechar 0
AnchorPoint: "Anchor-1" 609 1087 basechar 0
AnchorPoint: "Anchor-0" 610 0 basechar 0
LayerCount: 2
Fore
SplineSet
859 858 m 1,0,-1
 859 1202 l 2,1,2
 859 1348 859 1348 944.5 1422.5 c 128,-1,3
 1030 1497 1030 1497 1195 1497 c 0,4,5
 1239 1497 1239 1497 1274.5 1495.5 c 128,-1,6
 1310 1494 1310 1494 1335 1490 c 1,7,-1
 1335 1289 l 1,8,9
 1317 1291 1317 1291 1289.5 1291.5 c 128,-1,10
 1262 1292 1262 1292 1240 1292 c 0,11,12
 1174 1292 1174 1292 1144.5 1269.5 c 128,-1,13
 1115 1247 1115 1247 1115 1198 c 2,14,-1
 1115 858 l 1,15,-1
 859 858 l 1,0,-1
535 -21 m 0,16,17
 401 -21 401 -21 297.5 48 c 128,-1,18
 194 117 194 117 135 243 c 128,-1,19
 76 369 76 369 76 543 c 256,20,21
 76 717 76 717 135.5 843 c 128,-1,22
 195 969 195 969 299 1037 c 128,-1,23
 403 1105 403 1105 535 1105 c 0,24,25
 620 1105 620 1105 681.5 1079 c 128,-1,26
 743 1053 743 1053 785.5 1011 c 128,-1,27
 828 969 828 969 855 921 c 1,28,-1
 862 921 l 1,29,-1
 862 1087 l 1,30,-1
 1115 1087 l 1,31,-1
 1115 0 l 1,32,-1
 862 0 l 1,33,-1
 862 168 l 1,34,-1
 855 168 l 1,35,36
 828 118 828 118 785 75 c 128,-1,37
 742 32 742 32 680 5.5 c 128,-1,38
 618 -21 618 -21 535 -21 c 0,16,17
601 192 m 0,39,40
 685 192 685 192 745 236 c 128,-1,41
 805 280 805 280 837 359.5 c 128,-1,42
 869 439 869 439 869 543 c 0,43,44
 869 650 869 650 837.5 728.5 c 128,-1,45
 806 807 806 807 746 850.5 c 128,-1,46
 686 894 686 894 601 894 c 0,47,48
 519 894 519 894 459.5 850.5 c 128,-1,49
 400 807 400 807 368.5 729 c 128,-1,50
 337 651 337 651 337 543 c 0,51,52
 337 437 337 437 368.5 358 c 128,-1,53
 400 279 400 279 459 235.5 c 128,-1,54
 518 192 518 192 601 192 c 0,39,40
EndSplineSet
EndChar

StartChar: uni018C
Encoding: 396 396 602
Width: 1240
GlyphClass: 2
Flags: W
AnchorPoint: "Anchor-1" 521 1291 basechar 0
LayerCount: 2
Fore
SplineSet
985 1286 m 1,0,-1
 264 1286 l 1,1,-1
 264 1490 l 1,2,-1
 1115 1490 l 1,3,-1
 985 1286 l 1,0,-1
536 -21 m 0,4,5
 401 -21 401 -21 297 48 c 128,-1,6
 193 117 193 117 134.5 243 c 128,-1,7
 76 369 76 369 76 543 c 256,8,9
 76 717 76 717 135.5 843 c 128,-1,10
 195 969 195 969 298.5 1037 c 128,-1,11
 402 1105 402 1105 534 1105 c 0,12,13
 618 1105 618 1105 680 1079 c 128,-1,14
 742 1053 742 1053 784.5 1011 c 128,-1,15
 827 969 827 969 853 920 c 1,16,-1
 859 920 l 1,17,-1
 859 1490 l 1,18,-1
 1115 1490 l 1,19,-1
 1115 0 l 1,20,-1
 864 0 l 1,21,-1
 864 170 l 1,22,-1
 855 170 l 1,23,24
 828 119 828 119 785 75.5 c 128,-1,25
 742 32 742 32 680.5 5.5 c 128,-1,26
 619 -21 619 -21 536 -21 c 0,4,5
600 192 m 0,27,28
 684 192 684 192 744 236 c 128,-1,29
 804 280 804 280 836.5 359.5 c 128,-1,30
 869 439 869 439 869 543 c 0,31,32
 869 650 869 650 837 728.5 c 128,-1,33
 805 807 805 807 745 850.5 c 128,-1,34
 685 894 685 894 600 894 c 0,35,36
 518 894 518 894 459 850.5 c 128,-1,37
 400 807 400 807 368.5 728.5 c 128,-1,38
 337 650 337 650 337 543 c 0,39,40
 337 437 337 437 368.5 358 c 128,-1,41
 400 279 400 279 459.5 235.5 c 128,-1,42
 519 192 519 192 600 192 c 0,27,28
EndSplineSet
EndChar

StartChar: uni0221
Encoding: 545 545 603
Width: 1560
GlyphClass: 2
Flags: W
AnchorPoint: "Anchor-1" 521 1291 basechar 0
LayerCount: 2
Fore
SplineSet
1227 -418 m 0,0,1
 1096 -418 1096 -418 1014.5 -372 c 128,-1,2
 933 -326 933 -326 895 -246.5 c 128,-1,3
 857 -167 857 -167 857 -70 c 2,4,-1
 857 225 l 1,5,-1
 1113 225 l 1,6,-1
 1113 -121 l 2,7,8
 1113 -181 1113 -181 1148.5 -212.5 c 128,-1,9
 1184 -244 1184 -244 1232 -244 c 0,10,11
 1277 -244 1277 -244 1305 -217.5 c 128,-1,12
 1333 -191 1333 -191 1333 -150 c 0,13,14
 1333 -112 1333 -112 1308.5 -85.5 c 128,-1,15
 1284 -59 1284 -59 1237 -54 c 0,16,17
 1204 -50 1204 -50 1172 -58 c 128,-1,18
 1140 -66 1140 -66 1104.5 -87 c 128,-1,19
 1069 -108 1069 -108 1024 -144 c 2,20,-1
 734 -400 l 1,21,-1
 603 -245 l 1,22,-1
 871 -12 l 2,23,24
 944 51 944 51 1037 90 c 128,-1,25
 1130 129 1130 129 1226 129 c 0,26,27
 1380 129 1380 129 1473.5 49.5 c 128,-1,28
 1567 -30 1567 -30 1567 -157 c 0,29,30
 1567 -278 1567 -278 1477.5 -348 c 128,-1,31
 1388 -418 1388 -418 1227 -418 c 0,0,1
536 -21 m 0,32,33
 401 -21 401 -21 297 48 c 128,-1,34
 193 117 193 117 134.5 243 c 128,-1,35
 76 369 76 369 76 543 c 256,36,37
 76 717 76 717 135.5 843 c 128,-1,38
 195 969 195 969 298.5 1037 c 128,-1,39
 402 1105 402 1105 534 1105 c 0,40,41
 618 1105 618 1105 680 1079 c 128,-1,42
 742 1053 742 1053 784.5 1011 c 128,-1,43
 827 969 827 969 853 920 c 1,44,-1
 859 920 l 1,45,-1
 859 1490 l 1,46,-1
 1115 1490 l 1,47,-1
 1115 0 l 1,48,-1
 864 0 l 1,49,-1
 864 170 l 1,50,-1
 855 170 l 1,51,52
 828 119 828 119 785 75.5 c 128,-1,53
 742 32 742 32 680.5 5.5 c 128,-1,54
 619 -21 619 -21 536 -21 c 0,32,33
600 192 m 0,55,56
 684 192 684 192 744 236 c 128,-1,57
 804 280 804 280 836.5 359.5 c 128,-1,58
 869 439 869 439 869 543 c 0,59,60
 869 650 869 650 837 728.5 c 128,-1,61
 805 807 805 807 745 850.5 c 128,-1,62
 685 894 685 894 600 894 c 0,63,64
 518 894 518 894 459 850.5 c 128,-1,65
 400 807 400 807 368.5 728.5 c 128,-1,66
 337 650 337 650 337 543 c 0,67,68
 337 437 337 437 368.5 358 c 128,-1,69
 400 279 400 279 459.5 235.5 c 128,-1,70
 519 192 519 192 600 192 c 0,55,56
EndSplineSet
EndChar

StartChar: uni02A3
Encoding: 675 675 611
Width: 2232
GlyphClass: 2
Flags: W
AnchorPoint: "Anchor-1" 521 1291 basechar 0
LayerCount: 2
Fore
SplineSet
1242 0 m 1,0,-1
 1242 169 l 1,1,-1
 1804 871 l 1,2,-1
 1804 877 l 1,3,-1
 1030 877 l 1,4,-1
 1030 1087 l 1,5,-1
 2110 1087 l 1,6,-1
 2110 906 l 1,7,-1
 1567 216 l 1,8,-1
 1567 209 l 1,9,-1
 2123 209 l 1,10,-1
 2123 0 l 1,11,-1
 1242 0 l 1,0,-1
536 -21 m 0,12,13
 401 -21 401 -21 297 48 c 128,-1,14
 193 117 193 117 134.5 243 c 128,-1,15
 76 369 76 369 76 543 c 256,16,17
 76 717 76 717 135.5 843 c 128,-1,18
 195 969 195 969 298.5 1037 c 128,-1,19
 402 1105 402 1105 534 1105 c 0,20,21
 618 1105 618 1105 680 1079 c 128,-1,22
 742 1053 742 1053 784.5 1011 c 128,-1,23
 827 969 827 969 853 920 c 1,24,-1
 859 920 l 1,25,-1
 859 1490 l 1,26,-1
 1115 1490 l 1,27,-1
 1115 0 l 1,28,-1
 864 0 l 1,29,-1
 864 170 l 1,30,-1
 855 170 l 1,31,32
 828 119 828 119 785 75.5 c 128,-1,33
 742 32 742 32 680.5 5.5 c 128,-1,34
 619 -21 619 -21 536 -21 c 0,12,13
600 192 m 0,35,36
 684 192 684 192 744 236 c 128,-1,37
 804 280 804 280 836.5 359.5 c 128,-1,38
 869 439 869 439 869 543 c 0,39,40
 869 650 869 650 837 728.5 c 128,-1,41
 805 807 805 807 745 850.5 c 128,-1,42
 685 894 685 894 600 894 c 0,43,44
 518 894 518 894 459 850.5 c 128,-1,45
 400 807 400 807 368.5 728.5 c 128,-1,46
 337 650 337 650 337 543 c 0,47,48
 337 437 337 437 368.5 358 c 128,-1,49
 400 279 400 279 459.5 235.5 c 128,-1,50
 519 192 519 192 600 192 c 0,35,36
EndSplineSet
EndChar

StartChar: dyogh
Encoding: 676 676 613
Width: 2040
GlyphClass: 2
Flags: W
AnchorPoint: "Anchor-1" 521 1291 basechar 0
LayerCount: 2
Fore
SplineSet
1127 -79 m 1,0,1
 1140 -125 1140 -125 1178.5 -157 c 128,-1,2
 1217 -189 1217 -189 1274.5 -206.5 c 128,-1,3
 1332 -224 1332 -224 1398 -224 c 0,4,5
 1484 -224 1484 -224 1549.5 -194 c 128,-1,6
 1615 -164 1615 -164 1651.5 -108.5 c 128,-1,7
 1688 -53 1688 -53 1688 23 c 0,8,9
 1688 97 1688 97 1652 153.5 c 128,-1,10
 1616 210 1616 210 1545 241.5 c 128,-1,11
 1474 273 1474 273 1367 273 c 2,12,-1
 1250 273 l 1,13,-1
 1250 477 l 1,14,-1
 1586 860 l 1,15,-1
 1586 866 l 1,16,-1
 1018 866 l 1,17,-1
 1018 1088 l 1,18,-1
 1900 1088 l 1,19,-1
 1900 898 l 1,20,-1
 1491 449 l 1,21,-1
 1491 442 l 1,22,23
 1640 431 1640 431 1743.5 369.5 c 128,-1,24
 1847 308 1847 308 1900 214.5 c 128,-1,25
 1953 121 1953 121 1953 11 c 0,26,27
 1953 -121 1953 -121 1881 -221.5 c 128,-1,28
 1809 -322 1809 -322 1683 -378 c 128,-1,29
 1557 -434 1557 -434 1396 -434 c 0,30,31
 1255 -434 1255 -434 1141 -390 c 128,-1,32
 1027 -346 1027 -346 955.5 -266 c 128,-1,33
 884 -186 884 -186 866 -79 c 1,34,-1
 1127 -79 l 1,0,1
536 -21 m 0,35,36
 401 -21 401 -21 297 48 c 128,-1,37
 193 117 193 117 134.5 243 c 128,-1,38
 76 369 76 369 76 543 c 256,39,40
 76 717 76 717 135.5 843 c 128,-1,41
 195 969 195 969 298.5 1037 c 128,-1,42
 402 1105 402 1105 534 1105 c 0,43,44
 618 1105 618 1105 680 1079 c 128,-1,45
 742 1053 742 1053 784.5 1011 c 128,-1,46
 827 969 827 969 853 920 c 1,47,-1
 859 920 l 1,48,-1
 859 1490 l 1,49,-1
 1115 1490 l 1,50,-1
 1115 0 l 1,51,-1
 864 0 l 1,52,-1
 864 170 l 1,53,-1
 855 170 l 1,54,55
 828 119 828 119 785 75.5 c 128,-1,56
 742 32 742 32 680.5 5.5 c 128,-1,57
 619 -21 619 -21 536 -21 c 0,35,36
600 192 m 0,58,59
 684 192 684 192 744 236 c 128,-1,60
 804 280 804 280 836.5 359.5 c 128,-1,61
 869 439 869 439 869 543 c 0,62,63
 869 650 869 650 837 728.5 c 128,-1,64
 805 807 805 807 745 850.5 c 128,-1,65
 685 894 685 894 600 894 c 0,66,67
 518 894 518 894 459 850.5 c 128,-1,68
 400 807 400 807 368.5 728.5 c 128,-1,69
 337 650 337 650 337 543 c 0,70,71
 337 437 337 437 368.5 358 c 128,-1,72
 400 279 400 279 459.5 235.5 c 128,-1,73
 519 192 519 192 600 192 c 0,58,59
EndSplineSet
EndChar

StartChar: e
Encoding: 101 101 615
Width: 1172
GlyphClass: 2
Flags: W
AnchorPoint: "Anchor-4" 1085 302 basechar 0
AnchorPoint: "Anchor-3" 595 0 basechar 0
AnchorPoint: "Anchor-1" 589 1087 basechar 0
AnchorPoint: "Anchor-0" 589 0 basechar 0
LayerCount: 2
Fore
SplineSet
605 -23 m 0,0,1
 442 -23 442 -23 323.5 47.5 c 128,-1,2
 205 118 205 118 140.5 245.5 c 128,-1,3
 76 373 76 373 76 539 c 0,4,5
 76 707 76 707 140.5 834.5 c 128,-1,6
 205 962 205 962 321.5 1034 c 128,-1,7
 438 1106 438 1106 592 1106 c 0,8,9
 700 1106 700 1106 792.5 1070 c 128,-1,10
 885 1034 885 1034 954.5 962.5 c 128,-1,11
 1024 891 1024 891 1062 787.5 c 128,-1,12
 1100 684 1100 684 1100 550 c 2,13,-1
 1100 475 l 1,14,-1
 187 475 l 1,15,-1
 187 650 l 1,16,-1
 972 650 l 1,17,-1
 856 600 l 1,18,19
 856 692 856 692 825 760.5 c 128,-1,20
 794 829 794 829 736 866.5 c 128,-1,21
 678 904 678 904 594 904 c 0,22,23
 511 904 511 904 452 866 c 128,-1,24
 393 828 393 828 361 761.5 c 128,-1,25
 329 695 329 695 329 610 c 2,26,-1
 329 493 l 2,27,28
 329 396 329 396 363 324.5 c 128,-1,29
 397 253 397 253 460 215.5 c 128,-1,30
 523 178 523 178 610 178 c 0,31,32
 670 178 670 178 717.5 196 c 128,-1,33
 765 214 765 214 798.5 247 c 128,-1,34
 832 280 832 280 848 326 c 1,35,-1
 1085 302 l 1,36,37
 1062 206 1062 206 995.5 132.5 c 128,-1,38
 929 59 929 59 829 18 c 128,-1,39
 729 -23 729 -23 605 -23 c 0,0,1
EndSplineSet
Substitution2: "'sups' Superscript in Latin lookup 39 subtable" e.sups
Substitution2: "'subs' Subscript in Latin lookup 38 subtable" e.subs
Substitution2: "'sinf' Scientific Inferiors in Latin lookup 18 subtable" e.subs
AlternateSubs2: "'aalt' Access All Alternates in Latin lookup 1 subtable" e.sups e.subs
EndChar

StartChar: uni0247
Encoding: 583 583 617
Width: 1172
GlyphClass: 2
Flags: W
AnchorPoint: "Anchor-4" 1085 302 basechar 0
AnchorPoint: "Anchor-3" 595 0 basechar 0
AnchorPoint: "Anchor-1" 589 1087 basechar 0
AnchorPoint: "Anchor-0" 589 0 basechar 0
LayerCount: 2
Fore
SplineSet
165 -418 m 1,0,-1
 864 1490 l 1,1,-1
 1010 1490 l 1,2,-1
 312 -418 l 1,3,-1
 165 -418 l 1,0,-1
605 -23 m 0,4,5
 442 -23 442 -23 323.5 47.5 c 128,-1,6
 205 118 205 118 140.5 245.5 c 128,-1,7
 76 373 76 373 76 539 c 0,8,9
 76 707 76 707 140.5 834.5 c 128,-1,10
 205 962 205 962 321.5 1034 c 128,-1,11
 438 1106 438 1106 592 1106 c 0,12,13
 700 1106 700 1106 792.5 1070 c 128,-1,14
 885 1034 885 1034 954.5 962.5 c 128,-1,15
 1024 891 1024 891 1062 787.5 c 128,-1,16
 1100 684 1100 684 1100 550 c 2,17,-1
 1100 475 l 1,18,-1
 187 475 l 1,19,-1
 187 650 l 1,20,-1
 972 650 l 1,21,-1
 856 600 l 1,22,23
 856 692 856 692 825 760.5 c 128,-1,24
 794 829 794 829 736 866.5 c 128,-1,25
 678 904 678 904 594 904 c 0,26,27
 511 904 511 904 452 866 c 128,-1,28
 393 828 393 828 361 761.5 c 128,-1,29
 329 695 329 695 329 610 c 2,30,-1
 329 493 l 2,31,32
 329 396 329 396 363 324.5 c 128,-1,33
 397 253 397 253 460 215.5 c 128,-1,34
 523 178 523 178 610 178 c 0,35,36
 670 178 670 178 717.5 196 c 128,-1,37
 765 214 765 214 798.5 247 c 128,-1,38
 832 280 832 280 848 326 c 1,39,-1
 1085 302 l 1,40,41
 1062 206 1062 206 995.5 132.5 c 128,-1,42
 929 59 929 59 829 18 c 128,-1,43
 729 -23 729 -23 605 -23 c 0,4,5
EndSplineSet
EndChar

StartChar: eturn
Encoding: 477 477 646
Width: 1172
GlyphClass: 2
Flags: W
AnchorPoint: "Anchor-4" 838 18 basechar 0
AnchorPoint: "Anchor-3" 614 0 basechar 0
AnchorPoint: "Anchor-1" 608 1087 basechar 0
AnchorPoint: "Anchor-0" 610 0 basechar 0
LayerCount: 2
Fore
SplineSet
567 1110 m 0,0,1
 731 1110 731 1110 849.5 1039.5 c 128,-1,2
 968 969 968 969 1032 842.5 c 128,-1,3
 1096 716 1096 716 1096 548 c 0,4,5
 1096 382 1096 382 1031.5 254 c 128,-1,6
 967 126 967 126 851 53.5 c 128,-1,7
 735 -19 735 -19 581 -19 c 0,8,9
 473 -19 473 -19 380 18 c 128,-1,10
 287 55 287 55 218 125.5 c 128,-1,11
 149 196 149 196 110.5 300 c 128,-1,12
 72 404 72 404 72 538 c 2,13,-1
 72 613 l 1,14,-1
 985 613 l 1,15,-1
 985 438 l 1,16,-1
 200 438 l 1,17,-1
 318 487 l 1,18,19
 318 396 318 396 348.5 327.5 c 128,-1,20
 379 259 379 259 437.5 221 c 128,-1,21
 496 183 496 183 579 183 c 0,22,23
 661 183 661 183 720.5 221 c 128,-1,24
 780 259 780 259 811.5 326 c 128,-1,25
 843 393 843 393 843 478 c 2,26,-1
 843 594 l 2,27,28
 843 693 843 693 809.5 763.5 c 128,-1,29
 776 834 776 834 713 871.5 c 128,-1,30
 650 909 650 909 563 909 c 0,31,32
 502 909 502 909 454.5 891.5 c 128,-1,33
 407 874 407 874 374 840.5 c 128,-1,34
 341 807 341 807 324 761 c 1,35,-1
 87 785 l 1,36,37
 111 883 111 883 177 955.5 c 128,-1,38
 243 1028 243 1028 343.5 1069 c 128,-1,39
 444 1110 444 1110 567 1110 c 0,0,1
EndSplineSet
EndChar

StartChar: _part.f_base
Encoding: 1114123 -1 647
Width: 757
GlyphClass: 2
Flags: W
AnchorPoint: "Anchor-1" 400 1521 basechar 0
AnchorPoint: "Anchor-0" 330 0 basechar 0
LayerCount: 2
Fore
SplineSet
202 0 m 1,0,-1
 202 1218 l 2,1,2
 202 1319 202 1319 244 1387.5 c 128,-1,3
 286 1456 286 1456 361 1490.5 c 128,-1,4
 436 1525 436 1525 536 1525 c 0,5,6
 594 1525 594 1525 642 1520 c 128,-1,7
 690 1515 690 1515 709 1510 c 1,8,-1
 683 1307 l 1,9,10
 669 1310 669 1310 640.5 1313 c 128,-1,11
 612 1316 612 1316 586 1316 c 0,12,13
 517 1316 517 1316 487.5 1284 c 128,-1,14
 458 1252 458 1252 458 1187 c 2,15,-1
 458 0 l 1,16,-1
 202 0 l 1,0,-1
EndSplineSet
EndChar

StartChar: f
Encoding: 102 102 648
Width: 756
GlyphClass: 2
Flags: W
AnchorPoint: "Anchor-1" 415 1521 basechar 0
AnchorPoint: "Anchor-0" 344 0 basechar 0
LayerCount: 2
Fore
SplineSet
701 1087 m 1,0,-1
 701 884 l 1,1,-1
 19 884 l 1,2,-1
 19 1087 l 1,3,-1
 701 1087 l 1,0,-1
217 0 m 1,4,-1
 217 1218 l 2,5,6
 217 1319 217 1319 258.5 1387.5 c 128,-1,7
 300 1456 300 1456 375.5 1490.5 c 128,-1,8
 451 1525 451 1525 551 1525 c 0,9,10
 608 1525 608 1525 656 1520 c 128,-1,11
 704 1515 704 1515 724 1510 c 1,12,-1
 698 1307 l 1,13,14
 683 1310 683 1310 654.5 1313 c 128,-1,15
 626 1316 626 1316 599 1316 c 0,16,17
 531 1316 531 1316 502 1284 c 128,-1,18
 473 1252 473 1252 473 1187 c 2,19,-1
 473 0 l 1,20,-1
 217 0 l 1,4,-1
EndSplineSet
Substitution2: "'cv12' Character Variants 12 in Latin lookup 66 subtable" f.1
Substitution2: "'salt' Stylistic Alternatives in Latin lookup 46 subtable" f.1
Substitution2: "'sups' Superscript in Latin lookup 39 subtable" f.sups
Substitution2: "'subs' Subscript in Latin lookup 38 subtable" f.subs
Substitution2: "Single Substitution lookup 36 subtable" f.1
Substitution2: "Single Substitution lookup 35 subtable" f.i.1
Substitution2: "Single Substitution lookup 34 subtable" f.i
Substitution2: "'sinf' Scientific Inferiors in Latin lookup 18 subtable" f.subs
AlternateSubs2: "'aalt' Access All Alternates in Latin lookup 1 subtable" f.sups f.subs
EndChar

StartChar: f.1
Encoding: 60941 60941 649
Width: 664
GlyphClass: 2
Flags: W
AnchorPoint: "Anchor-1" 323 1521 basechar 0
AnchorPoint: "Anchor-0" 253 0 basechar 0
LayerCount: 2
Fore
SplineSet
610 1087 m 1,0,-1
 610 884 l 1,1,-1
 244 884 l 1,2,-1
 244 1087 l 1,3,-1
 610 1087 l 1,0,-1
125 0 m 1,4,-1
 125 1218 l 2,5,6
 125 1319 125 1319 167 1387.5 c 128,-1,7
 209 1456 209 1456 284 1490.5 c 128,-1,8
 359 1525 359 1525 459 1525 c 0,9,10
 517 1525 517 1525 565 1520 c 128,-1,11
 613 1515 613 1515 632 1510 c 1,12,-1
 606 1307 l 1,13,14
 592 1310 592 1310 564 1313 c 128,-1,15
 536 1316 536 1316 509 1316 c 0,16,17
 440 1316 440 1316 410.5 1284 c 128,-1,18
 381 1252 381 1252 381 1187 c 2,19,-1
 381 0 l 1,20,-1
 125 0 l 1,4,-1
EndSplineSet
EndChar

StartChar: f.i
Encoding: 60942 60942 650
Width: 702
GlyphClass: 2
Flags: W
AnchorPoint: "Anchor-1" 414 1521 basechar 0
AnchorPoint: "Anchor-0" 343 0 basechar 0
LayerCount: 2
Fore
SplineSet
216 0 m 1,0,-1
 216 1218 l 2,1,2
 216 1319 216 1319 257.5 1387.5 c 128,-1,3
 299 1456 299 1456 374.5 1490.5 c 128,-1,4
 450 1525 450 1525 550 1525 c 0,5,6
 579 1525 579 1525 606 1523.5 c 128,-1,7
 633 1522 633 1522 658 1520 c 1,8,-1
 649 1313 l 1,9,10
 638 1314 638 1314 625 1315 c 128,-1,11
 612 1316 612 1316 599 1316 c 0,12,13
 530 1316 530 1316 501 1284 c 128,-1,14
 472 1252 472 1252 472 1187 c 2,15,-1
 472 0 l 1,16,-1
 216 0 l 1,0,-1
19 884 m 1,17,-1
 19 1087 l 1,18,-1
 937 1087 l 1,19,-1
 937 884 l 1,20,-1
 19 884 l 1,17,-1
EndSplineSet
Substitution2: "Single Substitution lookup 35 subtable" f.i.1
EndChar

StartChar: f.i.1
Encoding: 60943 60943 651
Width: 613
GlyphClass: 2
Flags: W
AnchorPoint: "Anchor-1" 323 1521 basechar 0
AnchorPoint: "Anchor-0" 253 0 basechar 0
LayerCount: 2
Fore
SplineSet
125 0 m 1,0,-1
 125 1218 l 2,1,2
 125 1319 125 1319 167 1387.5 c 128,-1,3
 209 1456 209 1456 284 1490.5 c 128,-1,4
 359 1525 359 1525 459 1525 c 0,5,6
 488 1525 488 1525 515.5 1523.5 c 128,-1,7
 543 1522 543 1522 567 1520 c 1,8,-1
 559 1313 l 1,9,10
 547 1314 547 1314 534 1315 c 128,-1,11
 521 1316 521 1316 509 1316 c 0,12,13
 440 1316 440 1316 410.5 1284 c 128,-1,14
 381 1252 381 1252 381 1187 c 2,15,-1
 381 0 l 1,16,-1
 125 0 l 1,0,-1
250 884 m 1,17,-1
 250 1087 l 1,18,-1
 860 1087 l 1,19,-1
 860 884 l 1,20,-1
 250 884 l 1,17,-1
EndSplineSet
EndChar

StartChar: g
Encoding: 103 103 659
Width: 1242
GlyphClass: 2
Flags: W
AnchorPoint: "Anchor-1" 600 1087 basechar 0
AnchorPoint: "Anchor-0" 609 -429 basechar 0
LayerCount: 2
Fore
SplineSet
606 -437 m 0,0,1
 469 -437 469 -437 368.5 -399.5 c 128,-1,2
 268 -362 268 -362 206.5 -295 c 128,-1,3
 145 -228 145 -228 124 -140 c 1,4,-1
 358 -101 l 1,5,6
 372 -139 372 -139 404 -171 c 128,-1,7
 436 -203 436 -203 486 -221.5 c 128,-1,8
 536 -240 536 -240 606 -240 c 0,9,10
 725 -240 725 -240 794 -180 c 128,-1,11
 863 -120 863 -120 863 1 c 2,12,-1
 863 187 l 1,13,-1
 852 187 l 1,14,15
 825 136 825 136 783 94.5 c 128,-1,16
 741 53 741 53 679.5 29 c 128,-1,17
 618 5 618 5 535 5 c 0,18,19
 402 5 402 5 298 70 c 128,-1,20
 194 135 194 135 135 256.5 c 128,-1,21
 76 378 76 378 76 547 c 0,22,23
 76 720 76 720 135.5 845 c 128,-1,24
 195 970 195 970 299 1037.5 c 128,-1,25
 403 1105 403 1105 535 1105 c 0,26,27
 620 1105 620 1105 681.5 1079 c 128,-1,28
 743 1053 743 1053 786.5 1010 c 128,-1,29
 830 967 830 967 858 916 c 1,30,-1
 865 916 l 1,31,-1
 865 1087 l 1,32,-1
 1117 1087 l 1,33,-1
 1117 13 l 2,34,35
 1117 -143 1117 -143 1050.5 -243 c 128,-1,36
 984 -343 984 -343 868 -390 c 128,-1,37
 752 -437 752 -437 606 -437 c 0,0,1
601 212 m 0,38,39
 685 212 685 212 745 253 c 128,-1,40
 805 294 805 294 837 370.5 c 128,-1,41
 869 447 869 447 869 550 c 0,42,43
 869 655 869 655 837.5 732 c 128,-1,44
 806 809 806 809 746 852 c 128,-1,45
 686 895 686 895 601 895 c 0,46,47
 519 895 519 895 459.5 852 c 128,-1,48
 400 809 400 809 368.5 732 c 128,-1,49
 337 655 337 655 337 550 c 256,50,51
 337 445 337 445 368.5 369 c 128,-1,52
 400 293 400 293 459 252.5 c 128,-1,53
 518 212 518 212 601 212 c 0,38,39
EndSplineSet
Substitution2: "'smcp' Lowercase to Small Capitals in Latin lookup 69 subtable" g.sc
Substitution2: "'sups' Superscript in Latin lookup 39 subtable" g.sups
Substitution2: "'subs' Subscript in Latin lookup 38 subtable" g.subs
Substitution2: "'sinf' Scientific Inferiors in Latin lookup 18 subtable" g.subs
AlternateSubs2: "'aalt' Access All Alternates in Latin lookup 1 subtable" g.sc g.sups g.subs
EndChar

StartChar: uni0260
Encoding: 608 608 660
Width: 1242
GlyphClass: 2
Flags: W
AnchorPoint: "Anchor-1" 600 1087 basechar 0
AnchorPoint: "Anchor-0" 609 -429 basechar 0
LayerCount: 2
Fore
SplineSet
860 858 m 1,0,-1
 860 1202 l 2,1,2
 860 1348 860 1348 946 1422.5 c 128,-1,3
 1032 1497 1032 1497 1197 1497 c 0,4,5
 1241 1497 1241 1497 1276.5 1495.5 c 128,-1,6
 1312 1494 1312 1494 1337 1490 c 1,7,-1
 1337 1289 l 1,8,9
 1319 1291 1319 1291 1291.5 1291.5 c 128,-1,10
 1264 1292 1264 1292 1241 1292 c 0,11,12
 1176 1292 1176 1292 1146.5 1269.5 c 128,-1,13
 1117 1247 1117 1247 1117 1198 c 2,14,-1
 1117 858 l 1,15,-1
 860 858 l 1,0,-1
606 -437 m 0,16,17
 469 -437 469 -437 368.5 -399.5 c 128,-1,18
 268 -362 268 -362 206.5 -295 c 128,-1,19
 145 -228 145 -228 124 -140 c 1,20,-1
 358 -101 l 1,21,22
 372 -139 372 -139 404 -171 c 128,-1,23
 436 -203 436 -203 486 -221.5 c 128,-1,24
 536 -240 536 -240 606 -240 c 0,25,26
 725 -240 725 -240 794 -180 c 128,-1,27
 863 -120 863 -120 863 1 c 2,28,-1
 863 187 l 1,29,-1
 852 187 l 1,30,31
 825 136 825 136 783 94.5 c 128,-1,32
 741 53 741 53 679.5 29 c 128,-1,33
 618 5 618 5 535 5 c 0,34,35
 402 5 402 5 298 70 c 128,-1,36
 194 135 194 135 135 256.5 c 128,-1,37
 76 378 76 378 76 547 c 0,38,39
 76 720 76 720 135.5 845 c 128,-1,40
 195 970 195 970 299 1037.5 c 128,-1,41
 403 1105 403 1105 535 1105 c 0,42,43
 620 1105 620 1105 681.5 1079 c 128,-1,44
 743 1053 743 1053 786.5 1010 c 128,-1,45
 830 967 830 967 858 916 c 1,46,-1
 865 916 l 1,47,-1
 865 1087 l 1,48,-1
 1117 1087 l 1,49,-1
 1117 13 l 2,50,51
 1117 -143 1117 -143 1050.5 -243 c 128,-1,52
 984 -343 984 -343 868 -390 c 128,-1,53
 752 -437 752 -437 606 -437 c 0,16,17
601 212 m 0,54,55
 685 212 685 212 745 253 c 128,-1,56
 805 294 805 294 837 370.5 c 128,-1,57
 869 447 869 447 869 550 c 0,58,59
 869 655 869 655 837.5 732 c 128,-1,60
 806 809 806 809 746 852 c 128,-1,61
 686 895 686 895 601 895 c 0,62,63
 519 895 519 895 459.5 852 c 128,-1,64
 400 809 400 809 368.5 732 c 128,-1,65
 337 655 337 655 337 550 c 256,66,67
 337 445 337 445 368.5 369 c 128,-1,68
 400 293 400 293 459 252.5 c 128,-1,69
 518 212 518 212 601 212 c 0,54,55
EndSplineSet
Substitution2: "'smcp' Lowercase to Small Capitals in Latin lookup 69 subtable" uni0260.sc
Substitution2: "'c2sc' Capitals to Small Capitals in Latin lookup 68 subtable" uni0260.sc
Substitution2: "'aalt' Access All Alternates in Latin lookup 0 subtable" uni0260.sc
EndChar

StartChar: g.sc
Encoding: 610 610 669
Width: 1119
GlyphClass: 2
Flags: W
AnchorPoint: "Anchor-1" 567 1087 basechar 0
AnchorPoint: "Anchor-0" 565 0 basechar 0
LayerCount: 2
Fore
SplineSet
577 -16 m 0,0,1
 422 -16 422 -16 303.5 53 c 128,-1,2
 185 122 185 122 119.5 247.5 c 128,-1,3
 54 373 54 373 54 543 c 0,4,5
 54 718 54 718 123 844 c 128,-1,6
 192 970 192 970 309.5 1036.5 c 128,-1,7
 427 1103 427 1103 574 1103 c 0,8,9
 698 1103 698 1103 800.5 1056 c 128,-1,10
 903 1009 903 1009 970 925 c 128,-1,11
 1037 841 1037 841 1051 728 c 1,12,-1
 796 728 l 1,13,14
 783 777 783 777 753.5 811.5 c 128,-1,15
 724 846 724 846 680.5 864 c 128,-1,16
 637 882 637 882 579 882 c 0,17,18
 497 882 497 882 436 842.5 c 128,-1,19
 375 803 375 803 341.5 727 c 128,-1,20
 308 651 308 651 308 544 c 0,21,22
 308 438 308 438 341 362 c 128,-1,23
 374 286 374 286 435 245.5 c 128,-1,24
 496 205 496 205 581 205 c 0,25,26
 690 205 690 205 753.5 261 c 128,-1,27
 817 317 817 317 817 409 c 1,28,-1
 869 403 l 1,29,-1
 597 403 l 1,30,-1
 597 590 l 1,31,-1
 1060 590 l 1,32,-1
 1060 444 l 2,33,34
 1060 303 1060 303 998 200 c 128,-1,35
 936 97 936 97 827 40.5 c 128,-1,36
 718 -16 718 -16 577 -16 c 0,0,1
EndSplineSet
EndChar

StartChar: uni0260.sc
Encoding: 60947 60947 670
Width: 1216
GlyphClass: 2
Flags: W
AnchorPoint: "Anchor-1" 567 1087 basechar 0
AnchorPoint: "Anchor-0" 565 0 basechar 0
LayerCount: 2
Fore
SplineSet
883 728 m 1,0,-1
 849 942 l 2,1,2
 832 1038 832 1038 851.5 1109 c 128,-1,3
 871 1180 871 1180 931.5 1219.5 c 128,-1,4
 992 1259 992 1259 1094 1259 c 0,5,6
 1132 1259 1132 1259 1161.5 1257 c 128,-1,7
 1191 1255 1191 1255 1217 1252 c 1,8,-1
 1217 1052 l 1,9,10
 1198 1053 1198 1053 1176.5 1053.5 c 128,-1,11
 1155 1054 1155 1054 1138 1054 c 0,12,13
 1072 1054 1072 1054 1049 1018 c 128,-1,14
 1026 982 1026 982 1043 888 c 1,15,-1
 1051 728 l 1,16,-1
 883 728 l 1,0,-1
577 -16 m 0,17,18
 422 -16 422 -16 303.5 53 c 128,-1,19
 185 122 185 122 119.5 247.5 c 128,-1,20
 54 373 54 373 54 543 c 0,21,22
 54 718 54 718 123 844 c 128,-1,23
 192 970 192 970 309.5 1036.5 c 128,-1,24
 427 1103 427 1103 574 1103 c 0,25,26
 698 1103 698 1103 800.5 1056 c 128,-1,27
 903 1009 903 1009 970 925 c 128,-1,28
 1037 841 1037 841 1051 728 c 1,29,-1
 796 728 l 1,30,31
 783 777 783 777 753.5 811.5 c 128,-1,32
 724 846 724 846 680.5 864 c 128,-1,33
 637 882 637 882 579 882 c 0,34,35
 497 882 497 882 436 842.5 c 128,-1,36
 375 803 375 803 341.5 727 c 128,-1,37
 308 651 308 651 308 544 c 0,38,39
 308 438 308 438 341 362 c 128,-1,40
 374 286 374 286 435 245.5 c 128,-1,41
 496 205 496 205 581 205 c 0,42,43
 690 205 690 205 753.5 261 c 128,-1,44
 817 317 817 317 817 409 c 1,45,-1
 869 403 l 1,46,-1
 597 403 l 1,47,-1
 597 590 l 1,48,-1
 1060 590 l 1,49,-1
 1060 444 l 2,50,51
 1060 303 1060 303 998 200 c 128,-1,52
 936 97 936 97 827 40.5 c 128,-1,53
 718 -16 718 -16 577 -16 c 0,17,18
EndSplineSet
EndChar

StartChar: h
Encoding: 104 104 671
Width: 1214
GlyphClass: 2
Flags: W
AnchorPoint: "Anchor-3" 252 0 basechar 0
AnchorPoint: "Anchor-1" 252 1490 basechar 0
AnchorPoint: "Anchor-0" 607 0 basechar 0
LayerCount: 2
Fore
SplineSet
381 626 m 2,0,-1
 381 0 l 1,1,-1
 125 0 l 1,2,-1
 125 1490 l 1,3,-1
 379 1490 l 1,4,-1
 379 815 l 1,5,-1
 340 815 l 1,6,7
 388 958 388 958 480 1031.5 c 128,-1,8
 572 1105 572 1105 709 1105 c 0,9,10
 822 1105 822 1105 907.5 1056.5 c 128,-1,11
 993 1008 993 1008 1041 914.5 c 128,-1,12
 1089 821 1089 821 1089 685 c 2,13,-1
 1089 0 l 1,14,-1
 832 0 l 1,15,-1
 832 646 l 2,16,17
 832 760 832 760 775 821.5 c 128,-1,18
 718 883 718 883 616 883 c 0,19,20
 549 883 549 883 496 854.5 c 128,-1,21
 443 826 443 826 412 769.5 c 128,-1,22
 381 713 381 713 381 626 c 2,0,-1
EndSplineSet
Substitution2: "'smcp' Lowercase to Small Capitals in Latin lookup 69 subtable" h.sc
Substitution2: "'sups' Superscript in Latin lookup 39 subtable" h.sups
Substitution2: "'subs' Subscript in Latin lookup 38 subtable" h.subs
Substitution2: "'sinf' Scientific Inferiors in Latin lookup 18 subtable" h.subs
AlternateSubs2: "'aalt' Access All Alternates in Latin lookup 1 subtable" h.sups h.subs h.sc
EndChar

StartChar: uni0452
Encoding: 1106 1106 674
Width: 1214
GlyphClass: 2
Flags: W
AnchorPoint: "Anchor-3" 252 0 basechar 0
AnchorPoint: "Anchor-1" 252 1490 basechar 0
AnchorPoint: "Anchor-0" 607 0 basechar 0
LayerCount: 2
Fore
SplineSet
759 -425 m 0,0,1
 715 -425 715 -425 678.5 -423 c 128,-1,2
 642 -421 642 -421 616 -418 c 1,3,-1
 616 -217 l 1,4,5
 635 -218 635 -218 662.5 -219 c 128,-1,6
 690 -220 690 -220 713 -220 c 0,7,8
 777 -220 777 -220 804.5 -197.5 c 128,-1,9
 832 -175 832 -175 832 -125 c 2,10,-1
 832 0 l 1,11,-1
 1089 0 l 1,12,-1
 1089 -129 l 2,13,14
 1089 -275 1089 -275 1006.5 -350 c 128,-1,15
 924 -425 924 -425 759 -425 c 0,0,1
381 626 m 2,16,-1
 381 0 l 1,17,-1
 125 0 l 1,18,-1
 125 1490 l 1,19,-1
 379 1490 l 1,20,-1
 379 815 l 1,21,-1
 340 815 l 1,22,23
 388 958 388 958 480 1031.5 c 128,-1,24
 572 1105 572 1105 709 1105 c 0,25,26
 822 1105 822 1105 907.5 1056.5 c 128,-1,27
 993 1008 993 1008 1041 914.5 c 128,-1,28
 1089 821 1089 821 1089 685 c 2,29,-1
 1089 0 l 1,30,-1
 832 0 l 1,31,-1
 832 646 l 2,32,33
 832 760 832 760 775 821.5 c 128,-1,34
 718 883 718 883 616 883 c 0,35,36
 549 883 549 883 496 854.5 c 128,-1,37
 443 826 443 826 412 769.5 c 128,-1,38
 381 713 381 713 381 626 c 2,16,-1
-17 1199 m 1,39,-1
 -17 1367 l 1,40,-1
 690 1367 l 1,41,-1
 690 1199 l 1,42,-1
 -17 1199 l 1,39,-1
EndSplineSet
EndChar

StartChar: uni0266
Encoding: 614 614 675
Width: 1213
GlyphClass: 2
Flags: W
AnchorPoint: "Anchor-1" 607 1087 basechar 0
AnchorPoint: "Anchor-0" 607 0 basechar 0
LayerCount: 2
Fore
SplineSet
125 858 m 1,0,-1
 125 1202 l 2,1,2
 125 1348 125 1348 210.5 1422.5 c 128,-1,3
 296 1497 296 1497 461 1497 c 0,4,5
 505 1497 505 1497 540.5 1495.5 c 128,-1,6
 576 1494 576 1494 601 1490 c 1,7,-1
 601 1289 l 1,8,9
 583 1291 583 1291 555.5 1291.5 c 128,-1,10
 528 1292 528 1292 506 1292 c 0,11,12
 440 1292 440 1292 410.5 1269.5 c 128,-1,13
 381 1247 381 1247 381 1198 c 2,14,-1
 381 858 l 1,15,-1
 125 858 l 1,0,-1
381 626 m 2,16,-1
 381 0 l 1,17,-1
 125 0 l 1,18,-1
 125 1087 l 1,19,-1
 373 1087 l 1,20,-1
 374 815 l 1,21,-1
 340 815 l 1,22,23
 388 958 388 958 480 1031.5 c 128,-1,24
 572 1105 572 1105 709 1105 c 0,25,26
 822 1105 822 1105 907 1056.5 c 128,-1,27
 992 1008 992 1008 1040 914.5 c 128,-1,28
 1088 821 1088 821 1088 685 c 2,29,-1
 1088 0 l 1,30,-1
 832 0 l 1,31,-1
 832 646 l 2,32,33
 832 760 832 760 775 821.5 c 128,-1,34
 718 883 718 883 616 883 c 0,35,36
 549 883 549 883 496 854.5 c 128,-1,37
 443 826 443 826 412 769.5 c 128,-1,38
 381 713 381 713 381 626 c 2,16,-1
EndSplineSet
EndChar

StartChar: uni0267
Encoding: 615 615 676
Width: 1213
GlyphClass: 2
Flags: W
AnchorPoint: "Anchor-1" 607 1087 basechar 0
AnchorPoint: "Anchor-0" 607 0 basechar 0
LayerCount: 2
Fore
SplineSet
759 -425 m 0,0,1
 715 -425 715 -425 678.5 -423 c 128,-1,2
 642 -421 642 -421 616 -418 c 1,3,-1
 616 -217 l 1,4,5
 635 -218 635 -218 662.5 -219 c 128,-1,6
 690 -220 690 -220 713 -220 c 0,7,8
 777 -220 777 -220 804.5 -197.5 c 128,-1,9
 832 -175 832 -175 832 -125 c 2,10,-1
 832 0 l 1,11,-1
 1089 0 l 1,12,-1
 1089 -129 l 2,13,14
 1089 -275 1089 -275 1006.5 -350 c 128,-1,15
 924 -425 924 -425 759 -425 c 0,0,1
381 626 m 2,16,-1
 381 0 l 1,17,-1
 125 0 l 1,18,-1
 125 1087 l 1,19,-1
 373 1087 l 1,20,-1
 374 815 l 1,21,-1
 340 815 l 1,22,23
 388 958 388 958 480 1031.5 c 128,-1,24
 572 1105 572 1105 709 1105 c 0,25,26
 822 1105 822 1105 907 1056.5 c 128,-1,27
 992 1008 992 1008 1040 914.5 c 128,-1,28
 1088 821 1088 821 1088 685 c 2,29,-1
 1088 0 l 1,30,-1
 832 0 l 1,31,-1
 832 646 l 2,32,33
 832 760 832 760 775 821.5 c 128,-1,34
 718 883 718 883 616 883 c 0,35,36
 549 883 549 883 496 854.5 c 128,-1,37
 443 826 443 826 412 769.5 c 128,-1,38
 381 713 381 713 381 626 c 2,16,-1
125 858 m 1,39,-1
 125 1202 l 2,40,41
 125 1348 125 1348 210.5 1422.5 c 128,-1,42
 296 1497 296 1497 461 1497 c 0,43,44
 505 1497 505 1497 540.5 1495.5 c 128,-1,45
 576 1494 576 1494 601 1490 c 1,46,-1
 601 1289 l 1,47,48
 583 1291 583 1291 555.5 1291.5 c 128,-1,49
 528 1292 528 1292 506 1292 c 0,50,51
 440 1292 440 1292 410.5 1269.5 c 128,-1,52
 381 1247 381 1247 381 1198 c 2,53,-1
 381 858 l 1,54,-1
 125 858 l 1,39,-1
EndSplineSet
EndChar

StartChar: uni0195
Encoding: 405 405 677
Width: 1957
Flags: W
LayerCount: 2
Fore
SplineSet
1267 -21 m 0,0,1
 1140 -21 1140 -21 1045 31.5 c 128,-1,2
 950 84 950 84 898 186 c 128,-1,3
 846 288 846 288 846 438 c 2,4,-1
 846 647 l 2,5,6
 846 763 846 763 786.5 824.5 c 128,-1,7
 727 886 727 886 623 886 c 0,8,9
 554 886 554 886 499.5 857.5 c 128,-1,10
 445 829 445 829 413 772.5 c 128,-1,11
 381 716 381 716 381 630 c 2,12,-1
 381 0 l 1,13,-1
 125 0 l 1,14,-1
 125 1490 l 1,15,-1
 378 1490 l 1,16,-1
 378 901 l 1,17,-1
 387 901 l 1,18,19
 424 993 424 993 506 1049 c 128,-1,20
 588 1105 588 1105 714 1105 c 0,21,22
 827 1105 827 1105 915 1056 c 128,-1,23
 1003 1007 1003 1007 1053 913.5 c 128,-1,24
 1103 820 1103 820 1103 685 c 2,25,-1
 1103 438 l 2,26,27
 1103 341 1103 341 1130.5 289.5 c 128,-1,28
 1158 238 1158 238 1198.5 217.5 c 128,-1,29
 1239 197 1239 197 1279 197 c 0,30,31
 1367 197 1367 197 1433.5 279 c 128,-1,32
 1500 361 1500 361 1537.5 534.5 c 128,-1,33
 1575 708 1575 708 1575 983 c 2,34,-1
 1575 1087 l 1,35,-1
 1833 1087 l 1,36,-1
 1833 983 l 2,37,38
 1833 636 1833 636 1767 414 c 128,-1,39
 1701 192 1701 192 1575 85.5 c 128,-1,40
 1449 -21 1449 -21 1267 -21 c 0,0,1
EndSplineSet
EndChar

StartChar: hturn
Encoding: 613 613 678
Width: 1214
GlyphClass: 2
Flags: W
AnchorPoint: "Anchor-3" 961 1087 basechar 0
AnchorPoint: "Anchor-1" 605 1087 basechar 0
AnchorPoint: "Anchor-0" 607 1087 basechar 0
LayerCount: 2
Fore
SplineSet
833 461 m 2,0,-1
 833 1087 l 1,1,-1
 1089 1087 l 1,2,-1
 1089 -403 l 1,3,-1
 835 -403 l 1,4,-1
 835 273 l 1,5,-1
 874 273 l 1,6,7
 826 131 826 131 734 56.5 c 128,-1,8
 642 -18 642 -18 505 -18 c 0,9,10
 392 -18 392 -18 306 31 c 128,-1,11
 220 80 220 80 172.5 174 c 128,-1,12
 125 268 125 268 125 402 c 2,13,-1
 125 1087 l 1,14,-1
 382 1087 l 1,15,-1
 382 442 l 2,16,17
 382 328 382 328 439 266 c 128,-1,18
 496 204 496 204 598 204 c 0,19,20
 666 204 666 204 718.5 232.5 c 128,-1,21
 771 261 771 261 802 318.5 c 128,-1,22
 833 376 833 376 833 461 c 2,0,-1
EndSplineSet
EndChar

StartChar: hturnlthook
Encoding: 686 686 679
Width: 1336
Flags: W
LayerCount: 2
Fore
SplineSet
957 -418 m 1,0,-1
 957 273 l 1,1,-1
 996 273 l 1,2,3
 947 129 947 129 855 55.5 c 128,-1,4
 763 -18 763 -18 627 -18 c 0,5,6
 514 -18 514 -18 428 31 c 128,-1,7
 342 80 342 80 294.5 174 c 128,-1,8
 247 268 247 268 247 402 c 2,9,-1
 247 768 l 2,10,11
 247 838 247 838 207 863.5 c 128,-1,12
 167 889 167 889 99 889 c 0,13,14
 87 889 87 889 72.5 888.5 c 128,-1,15
 58 888 58 888 44 887.5 c 128,-1,16
 30 887 30 887 19 886 c 1,17,-1
 19 1089 l 1,18,19
 46 1092 46 1092 80 1093 c 128,-1,20
 114 1094 114 1094 154 1094 c 0,21,22
 232 1094 232 1094 296 1075.5 c 128,-1,23
 360 1057 360 1057 406.5 1019 c 128,-1,24
 453 981 453 981 478 921.5 c 128,-1,25
 503 862 503 862 503 780 c 2,26,-1
 503 442 l 2,27,28
 503 328 503 328 560.5 266 c 128,-1,29
 618 204 618 204 720 204 c 0,30,31
 787 204 787 204 840 232.5 c 128,-1,32
 893 261 893 261 923.5 318.5 c 128,-1,33
 954 376 954 376 954 461 c 2,34,-1
 954 1087 l 1,35,-1
 1211 1087 l 1,36,-1
 1211 -418 l 1,37,-1
 957 -418 l 1,0,-1
EndSplineSet
EndChar

StartChar: hturnhook2
Encoding: 687 687 680
Width: 1337
Flags: W
LayerCount: 2
Fore
SplineSet
1273 -425 m 0,0,1
 1117 -425 1117 -425 1037 -352 c 128,-1,2
 957 -279 957 -279 957 -140 c 2,3,-1
 957 273 l 1,4,-1
 996 273 l 1,5,6
 947 129 947 129 855 55.5 c 128,-1,7
 763 -18 763 -18 627 -18 c 0,8,9
 514 -18 514 -18 428 31 c 128,-1,10
 342 80 342 80 294.5 174 c 128,-1,11
 247 268 247 268 247 402 c 2,12,-1
 247 768 l 2,13,14
 247 838 247 838 207 863.5 c 128,-1,15
 167 889 167 889 99 889 c 0,16,17
 87 889 87 889 72.5 888.5 c 128,-1,18
 58 888 58 888 44 887.5 c 128,-1,19
 30 887 30 887 19 886 c 1,20,-1
 19 1089 l 1,21,22
 46 1092 46 1092 80 1093 c 128,-1,23
 114 1094 114 1094 154 1094 c 0,24,25
 232 1094 232 1094 296 1075.5 c 128,-1,26
 360 1057 360 1057 406.5 1019 c 128,-1,27
 453 981 453 981 478 921.5 c 128,-1,28
 503 862 503 862 503 780 c 2,29,-1
 503 442 l 2,30,31
 503 328 503 328 560.5 266 c 128,-1,32
 618 204 618 204 720 204 c 0,33,34
 787 204 787 204 840 232.5 c 128,-1,35
 893 261 893 261 923.5 318.5 c 128,-1,36
 954 376 954 376 954 461 c 2,37,-1
 954 1087 l 1,38,-1
 1211 1087 l 1,39,-1
 1211 -130 l 2,40,41
 1211 -178 1211 -178 1238 -199.5 c 128,-1,42
 1265 -221 1265 -221 1328 -221 c 0,43,44
 1350 -221 1350 -221 1379.5 -220.5 c 128,-1,45
 1409 -220 1409 -220 1429 -219 c 1,46,-1
 1429 -418 l 1,47,48
 1412 -420 1412 -420 1386 -421.5 c 128,-1,49
 1360 -423 1360 -423 1331 -424 c 128,-1,50
 1302 -425 1302 -425 1273 -425 c 0,0,1
EndSplineSet
EndChar

StartChar: dotlessi
Encoding: 305 305 691
Width: 506
GlyphClass: 2
Flags: W
AnchorPoint: "Anchor-4" 381 0 basechar 0
AnchorPoint: "Anchor-1" 253 1087 basechar 0
AnchorPoint: "Anchor-0" 254 0 basechar 0
LayerCount: 2
Fore
SplineSet
125 0 m 1,0,-1
 125 1087 l 1,1,-1
 381 1087 l 1,2,-1
 381 0 l 1,3,-1
 125 0 l 1,0,-1
EndSplineSet
EndChar

StartChar: uni0237
Encoding: 567 567 713
Width: 506
GlyphClass: 2
Flags: W
AnchorPoint: "Anchor-1" 254 1087 basechar 0
AnchorPoint: "Anchor-0" 196 -436 basechar 0
LayerCount: 2
Fore
SplineSet
125 1087 m 1,0,-1
 381 1087 l 1,1,-1
 381 -87 l 2,2,3
 382 -194 382 -194 340 -268 c 128,-1,4
 298 -342 298 -342 218.5 -380 c 128,-1,5
 139 -418 139 -418 23 -418 c 2,6,-1
 -54 -418 l 1,7,-1
 -54 -209 l 1,8,-1
 -3 -209 l 2,9,10
 65 -209 65 -209 95 -174.5 c 128,-1,11
 125 -140 125 -140 125 -70 c 2,12,-1
 125 1087 l 1,0,-1
EndSplineSet
EndChar

StartChar: i.sc
Encoding: 60950 60950 720
Width: 679
GlyphClass: 2
Flags: W
AnchorPoint: "Anchor-4" 632 0 basechar 0
AnchorPoint: "Anchor-1" 339 1087 basechar 0
AnchorPoint: "Anchor-0" 339 0 basechar 0
LayerCount: 2
Fore
SplineSet
47 0 m 1,0,-1
 47 208 l 1,1,-1
 212 208 l 1,2,-1
 212 880 l 1,3,-1
 47 880 l 1,4,-1
 47 1087 l 1,5,-1
 632 1087 l 1,6,-1
 632 880 l 1,7,-1
 468 880 l 1,8,-1
 468 208 l 1,9,-1
 632 208 l 1,10,-1
 632 0 l 1,11,-1
 47 0 l 1,0,-1
EndSplineSet
EndChar

StartChar: jcrosstail.ccmp
Encoding: 57423 57423 722
Width: 838
GlyphClass: 2
Flags: W
AnchorPoint: "Anchor-4" 686 0 basechar 0
AnchorPoint: "Anchor-1" 558 1087 basechar 0
AnchorPoint: "Anchor-0" 506 -460 basechar 0
LayerCount: 2
Fore
SplineSet
332 -427 m 0,0,1
 222 -427 222 -427 147.5 -391.5 c 128,-1,2
 73 -356 73 -356 35 -294 c 128,-1,3
 -3 -232 -3 -232 -4 -153 c 0,4,5
 -4 -70 -4 -70 37 -8 c 128,-1,6
 78 54 78 54 152 88 c 128,-1,7
 226 122 226 122 324 122 c 2,8,-1
 932 122 l 1,9,-1
 932 -69 l 1,10,-1
 340 -69 l 2,11,12
 295 -70 295 -70 263 -93 c 128,-1,13
 231 -116 231 -116 231 -161 c 0,14,15
 230 -202 230 -202 258.5 -225 c 128,-1,16
 287 -248 287 -248 328 -248 c 0,17,18
 387 -248 387 -248 409 -206.5 c 128,-1,19
 431 -165 431 -165 431 -120 c 2,20,-1
 431 248 l 1,21,-1
 684 248 l 1,22,-1
 684 -69 l 2,23,24
 684 -138 684 -138 665 -202 c 128,-1,25
 646 -266 646 -266 604.5 -316.5 c 128,-1,26
 563 -367 563 -367 496 -397 c 128,-1,27
 429 -427 429 -427 332 -427 c 0,0,1
430 0 m 1,28,-1
 430 1087 l 1,29,-1
 686 1087 l 1,30,-1
 686 0 l 1,31,-1
 430 0 l 1,28,-1
EndSplineSet
EndChar

StartChar: k
Encoding: 107 107 729
Width: 1133
GlyphClass: 2
Flags: W
AnchorPoint: "Anchor-1" 253 1490 basechar 0
AnchorPoint: "Anchor-0" 584 0 basechar 0
LayerCount: 2
Fore
SplineSet
359 341 m 1,0,-1
 359 648 l 1,1,-1
 392 648 l 1,2,-1
 800 1087 l 1,3,-1
 1103 1087 l 1,4,-1
 612 552 l 1,5,-1
 560 552 l 1,6,-1
 359 341 l 1,0,-1
125 0 m 1,7,-1
 125 1490 l 1,8,-1
 381 1490 l 1,9,-1
 381 0 l 1,10,-1
 125 0 l 1,7,-1
822 0 m 1,11,-1
 456 495 l 1,12,-1
 629 674 l 1,13,-1
 1130 0 l 1,14,-1
 822 0 l 1,11,-1
EndSplineSet
Substitution2: "'sups' Superscript in Latin lookup 39 subtable" k.sups
Substitution2: "'subs' Subscript in Latin lookup 38 subtable" k.subs
Substitution2: "'sinf' Scientific Inferiors in Latin lookup 18 subtable" k.subs
AlternateSubs2: "'aalt' Access All Alternates in Latin lookup 1 subtable" k.sups k.subs
EndChar

StartChar: uni0199
Encoding: 409 409 730
Width: 1133
GlyphClass: 2
Flags: W
AnchorPoint: "Anchor-1" 253 1087 basechar 0
AnchorPoint: "Anchor-0" 584 0 basechar 0
LayerCount: 2
Fore
SplineSet
125 858 m 1,0,-1
 125 1202 l 2,1,2
 125 1348 125 1348 210.5 1422.5 c 128,-1,3
 296 1497 296 1497 461 1497 c 0,4,5
 505 1497 505 1497 540.5 1495.5 c 128,-1,6
 576 1494 576 1494 601 1490 c 1,7,-1
 601 1289 l 1,8,9
 583 1291 583 1291 555.5 1291.5 c 128,-1,10
 528 1292 528 1292 506 1292 c 0,11,12
 440 1292 440 1292 410.5 1269.5 c 128,-1,13
 381 1247 381 1247 381 1198 c 2,14,-1
 381 858 l 1,15,-1
 125 858 l 1,0,-1
359 341 m 1,16,-1
 359 648 l 1,17,-1
 392 648 l 1,18,-1
 800 1087 l 1,19,-1
 1103 1087 l 1,20,-1
 612 552 l 1,21,-1
 560 552 l 1,22,-1
 359 341 l 1,16,-1
125 0 m 1,23,-1
 125 1087 l 1,24,-1
 381 1087 l 1,25,-1
 381 0 l 1,26,-1
 125 0 l 1,23,-1
822 0 m 1,27,-1
 456 495 l 1,28,-1
 629 674 l 1,29,-1
 1130 0 l 1,30,-1
 822 0 l 1,27,-1
EndSplineSet
EndChar

StartChar: kturn
Encoding: 670 670 736
Width: 1133
GlyphClass: 2
Flags: W
AnchorPoint: "Anchor-1" 581 1087 basechar 0
AnchorPoint: "Anchor-0" 897 -372 basechar 0
LayerCount: 2
Fore
SplineSet
774 746 m 1,0,-1
 774 439 l 1,1,-1
 741 439 l 1,2,-1
 333 0 l 1,3,-1
 29 0 l 1,4,-1
 521 537 l 1,5,-1
 573 537 l 1,6,-1
 774 746 l 1,0,-1
1008 1087 m 1,7,-1
 1008 -403 l 1,8,-1
 752 -403 l 1,9,-1
 752 1087 l 1,10,-1
 1008 1087 l 1,7,-1
311 1087 m 1,11,-1
 677 594 l 1,12,-1
 504 413 l 1,13,-1
 3 1087 l 1,14,-1
 311 1087 l 1,11,-1
EndSplineSet
EndChar

StartChar: k.base
Encoding: 60951 60951 737
Width: 1133
GlyphClass: 2
Flags: W
AnchorPoint: "Anchor-1" 253 1087 basechar 0
AnchorPoint: "Anchor-0" 584 0 basechar 0
LayerCount: 2
Fore
SplineSet
359 341 m 1,0,-1
 359 648 l 1,1,-1
 392 648 l 1,2,-1
 800 1087 l 1,3,-1
 1103 1087 l 1,4,-1
 612 552 l 1,5,-1
 560 552 l 1,6,-1
 359 341 l 1,0,-1
125 0 m 1,7,-1
 125 1087 l 1,8,-1
 381 1087 l 1,9,-1
 381 0 l 1,10,-1
 125 0 l 1,7,-1
822 0 m 1,11,-1
 456 495 l 1,12,-1
 629 674 l 1,13,-1
 1130 0 l 1,14,-1
 822 0 l 1,11,-1
EndSplineSet
EndChar

StartChar: l
Encoding: 1114124 -1 738
Width: 506
GlyphClass: 2
Flags: W
AnchorPoint: "Anchor-1" 253 1490 basechar 0
AnchorPoint: "Anchor-0" 252 0 basechar 0
LayerCount: 2
Fore
SplineSet
381 1490 m 1,0,-1
 381 0 l 1,1,-1
 125 0 l 1,2,-1
 125 1490 l 1,3,-1
 381 1490 l 1,0,-1
EndSplineSet
Substitution2: "'smcp' Lowercase to Small Capitals in Latin lookup 69 subtable" l.sc
Substitution2: "'c2sc' Capitals to Small Capitals in Latin lookup 68 subtable" l.sc
Substitution2: "'cv05' Character Variants 05 in Latin lookup 59 subtable" l.ss02
Substitution2: "'ss04' Style Set 4 in Latin lookup 50 subtable" l.ss02
Substitution2: "'ss02' Style Set 2 in Latin lookup 48 subtable" l.ss02
Substitution2: "'salt' Stylistic Alternatives in Latin lookup 46 subtable" l.ss02
Substitution2: "'sups' Superscript in Latin lookup 39 subtable" l.sups
Substitution2: "'subs' Subscript in Latin lookup 38 subtable" l.subs
Substitution2: "'sinf' Scientific Inferiors in Latin lookup 18 subtable" l.subs
AlternateSubs2: "'aalt' Access All Alternates in Latin lookup 1 subtable" l.sc l.sups l.subs
EndChar

StartChar: lrthook
Encoding: 621 621 742
Width: 506
GlyphClass: 2
Flags: W
AnchorPoint: "Anchor-1" 253 1490 basechar 0
AnchorPoint: "Anchor-0" 252 0 basechar 0
LayerCount: 2
Fore
SplineSet
457 -425 m 0,0,1
 292 -425 292 -425 208.5 -350 c 128,-1,2
 125 -275 125 -275 125 -129 c 2,3,-1
 125 0 l 1,4,-1
 381 0 l 1,5,-1
 381 -125 l 2,6,7
 381 -175 381 -175 409 -197.5 c 128,-1,8
 437 -220 437 -220 501 -220 c 0,9,10
 524 -220 524 -220 551.5 -219 c 128,-1,11
 579 -218 579 -218 598 -217 c 1,12,-1
 598 -418 l 1,13,14
 572 -421 572 -421 536.5 -423 c 128,-1,15
 501 -425 501 -425 457 -425 c 0,0,1
381 1490 m 1,16,-1
 381 0 l 1,17,-1
 125 0 l 1,18,-1
 125 1490 l 1,19,-1
 381 1490 l 1,16,-1
EndSplineSet
EndChar

StartChar: uni026C
Encoding: 1114128 -1 743
Width: 927
Flags: W
LayerCount: 2
Fore
SplineSet
909 558 m 1,0,-1
 324 558 l 2,1,2
 229 558 229 558 156.5 592.5 c 128,-1,3
 84 627 84 627 43.5 688.5 c 128,-1,4
 3 750 3 750 3 833 c 0,5,6
 3 915 3 915 42 980 c 128,-1,7
 81 1045 81 1045 155.5 1082.5 c 128,-1,8
 230 1120 230 1120 335 1120 c 0,9,10
 419 1120 419 1120 480 1093 c 128,-1,11
 541 1066 541 1066 581 1017.5 c 128,-1,12
 621 969 621 969 641 903.5 c 128,-1,13
 661 838 661 838 661 762 c 2,14,-1
 661 433 l 1,15,-1
 436 433 l 1,16,-1
 436 814 l 2,17,18
 436 862 436 862 411 895.5 c 128,-1,19
 386 929 386 929 334 929 c 0,20,21
 306 929 306 929 284 916 c 128,-1,22
 262 903 262 903 249 882.5 c 128,-1,23
 236 862 236 862 236 837 c 0,24,25
 236 803 236 803 265 777 c 128,-1,26
 294 751 294 751 342 751 c 2,27,-1
 909 751 l 1,28,-1
 909 558 l 1,0,-1
694 1490 m 1,29,-1
 694 0 l 1,30,-1
 436 0 l 1,31,-1
 436 1490 l 1,32,-1
 694 1490 l 1,29,-1
EndSplineSet
Substitution2: "'cv05' Character Variants 05 in Latin lookup 59 subtable" uni026C.ss02
Substitution2: "'ss04' Style Set 4 in Latin lookup 50 subtable" uni026C.ss02
Substitution2: "'ss02' Style Set 2 in Latin lookup 48 subtable" uni026C.ss02
Substitution2: "'salt' Stylistic Alternatives in Latin lookup 46 subtable" uni026C.ss02
EndChar

StartChar: uni0234
Encoding: 564 564 744
Width: 826
GlyphClass: 2
Flags: W
AnchorPoint: "Anchor-1" 253 1490 basechar 0
AnchorPoint: "Anchor-0" 252 0 basechar 0
LayerCount: 2
Fore
SplineSet
495 -418 m 0,0,1
 364 -418 364 -418 282.5 -372 c 128,-1,2
 201 -326 201 -326 163 -246.5 c 128,-1,3
 125 -167 125 -167 125 -70 c 2,4,-1
 125 225 l 1,5,-1
 381 225 l 1,6,-1
 381 -121 l 2,7,8
 381 -181 381 -181 416.5 -212.5 c 128,-1,9
 452 -244 452 -244 500 -244 c 0,10,11
 545 -244 545 -244 573 -217.5 c 128,-1,12
 601 -191 601 -191 601 -150 c 0,13,14
 601 -112 601 -112 576.5 -85.5 c 128,-1,15
 552 -59 552 -59 505 -54 c 0,16,17
 472 -50 472 -50 440 -58 c 128,-1,18
 408 -66 408 -66 372.5 -87 c 128,-1,19
 337 -108 337 -108 293 -144 c 2,20,-1
 2 -400 l 1,21,-1
 -128 -245 l 1,22,-1
 139 -12 l 2,23,24
 213 51 213 51 305.5 90 c 128,-1,25
 398 129 398 129 494 129 c 0,26,27
 648 129 648 129 742 49.5 c 128,-1,28
 836 -30 836 -30 836 -157 c 0,29,30
 836 -278 836 -278 746 -348 c 128,-1,31
 656 -418 656 -418 495 -418 c 0,0,1
381 1490 m 1,32,-1
 381 0 l 1,33,-1
 125 0 l 1,34,-1
 125 1490 l 1,35,-1
 381 1490 l 1,32,-1
EndSplineSet
EndChar

StartChar: l.ss02
Encoding: 57424 57424 753
AltUni2: 00006c.ffffffff.0
Width: 570
GlyphClass: 2
Flags: W
AnchorPoint: "Anchor-1" 253 1490 basechar 0
AnchorPoint: "Anchor-0" 315 0 basechar 0
LayerCount: 2
Fore
SplineSet
437 -4 m 0,0,1
 274 -4 274 -4 199.5 63.5 c 128,-1,2
 125 131 125 131 125 273 c 2,3,-1
 125 1490 l 1,4,-1
 381 1490 l 1,5,-1
 381 307 l 2,6,7
 381 249 381 249 400.5 225.5 c 128,-1,8
 420 202 420 202 473 202 c 0,9,10
 490 202 490 202 503 203 c 128,-1,11
 516 204 516 204 525 206 c 1,12,-1
 547 8 l 1,13,14
 526 4 526 4 497.5 0 c 128,-1,15
 469 -4 469 -4 437 -4 c 0,0,1
EndSplineSet
EndChar

StartChar: uni026C.ss02
Encoding: 57428 57428 757
AltUni2: 00026c.ffffffff.0
Width: 926
GlyphClass: 2
Flags: W
AnchorPoint: "Anchor-1" 581 1490 basechar 0
AnchorPoint: "Anchor-0" 642 0 basechar 0
LayerCount: 2
Fore
SplineSet
377 574 m 2,0,1
 263 574 263 574 183 610.5 c 128,-1,2
 103 647 103 647 61 713.5 c 128,-1,3
 19 780 19 780 19 869 c 0,4,5
 19 953 19 953 54.5 1017.5 c 128,-1,6
 90 1082 90 1082 151.5 1118.5 c 128,-1,7
 213 1155 213 1155 291 1155 c 0,8,9
 383 1155 383 1155 436.5 1106.5 c 128,-1,10
 490 1058 490 1058 513 977 c 128,-1,11
 536 896 536 896 536 796 c 2,12,-1
 536 743 l 1,13,-1
 454 743 l 1,14,-1
 454 848 l 2,15,16
 454 894 454 894 426 928 c 128,-1,17
 398 962 398 962 343 962 c 0,18,19
 302 962 302 962 276 935 c 128,-1,20
 250 908 250 908 250 867 c 0,21,22
 250 829 250 829 280 798.5 c 128,-1,23
 310 768 310 768 357 768 c 2,24,-1
 876 771 l 1,25,-1
 876 574 l 1,26,-1
 377 574 l 2,0,1
764 -4 m 0,27,28
 602 -4 602 -4 528 63.5 c 128,-1,29
 454 131 454 131 454 273 c 2,30,-1
 454 1490 l 1,31,-1
 710 1490 l 1,32,-1
 710 307 l 2,33,34
 710 249 710 249 729.5 225.5 c 128,-1,35
 749 202 749 202 800 202 c 0,36,37
 818 202 818 202 831 203 c 128,-1,38
 844 204 844 204 854 206 c 1,39,-1
 876 8 l 1,40,41
 855 4 855 4 826 0 c 128,-1,42
 797 -4 797 -4 764 -4 c 0,27,28
EndSplineSet
EndChar

StartChar: l.sc
Encoding: 60952 60952 767
Width: 963
Flags: W
LayerCount: 2
Fore
SplineSet
125 0 m 1,0,-1
 125 1087 l 1,1,-1
 381 1087 l 1,2,-1
 381 216 l 1,3,-1
 898 216 l 1,4,-1
 898 0 l 1,5,-1
 125 0 l 1,0,-1
EndSplineSet
EndChar

StartChar: m
Encoding: 109 109 768
Width: 1811
GlyphClass: 2
Flags: W
AnchorPoint: "Anchor-1" 906 1087 basechar 0
AnchorPoint: "Anchor-0" 906 0 basechar 0
LayerCount: 2
Fore
SplineSet
125 0 m 1,0,-1
 125 1087 l 1,1,-1
 370 1087 l 1,2,-1
 374 837 l 1,3,-1
 356 837 l 1,4,5
 382 929 382 929 432.5 988.5 c 128,-1,6
 483 1048 483 1048 550 1077.5 c 128,-1,7
 617 1107 617 1107 690 1107 c 0,8,9
 812 1107 812 1107 893.5 1034 c 128,-1,10
 975 961 975 961 1000 831 c 1,11,-1
 968 831 l 1,12,13
 991 919 991 919 1043.5 980.5 c 128,-1,14
 1096 1042 1096 1042 1171 1074.5 c 128,-1,15
 1246 1107 1246 1107 1332 1107 c 0,16,17
 1432 1107 1432 1107 1512.5 1063 c 128,-1,18
 1593 1019 1593 1019 1640 934.5 c 128,-1,19
 1687 850 1687 850 1687 726 c 2,20,-1
 1687 0 l 1,21,-1
 1431 0 l 1,22,-1
 1431 688 l 2,23,24
 1431 791 1431 791 1373.5 840 c 128,-1,25
 1316 889 1316 889 1235 889 c 0,26,27
 1173 889 1173 889 1126.5 861.5 c 128,-1,28
 1080 834 1080 834 1055.5 786.5 c 128,-1,29
 1031 739 1031 739 1031 675 c 2,30,-1
 1031 0 l 1,31,-1
 782 0 l 1,32,-1
 782 700 l 2,33,34
 782 786 782 786 728 837.5 c 128,-1,35
 674 889 674 889 590 889 c 0,36,37
 534 889 534 889 486 862.5 c 128,-1,38
 438 836 438 836 409.5 784.5 c 128,-1,39
 381 733 381 733 381 658 c 2,40,-1
 381 0 l 1,41,-1
 125 0 l 1,0,-1
EndSplineSet
Substitution2: "'smcp' Lowercase to Small Capitals in Latin lookup 69 subtable" m.sc
Substitution2: "'c2sc' Capitals to Small Capitals in Latin lookup 68 subtable" m.sc
Substitution2: "'sups' Superscript in Latin lookup 39 subtable" m.sups
Substitution2: "'subs' Subscript in Latin lookup 38 subtable" m.subs
Substitution2: "'sinf' Scientific Inferiors in Latin lookup 18 subtable" m.subs
AlternateSubs2: "'aalt' Access All Alternates in Latin lookup 1 subtable" m.sups m.subs m.sc
EndChar

StartChar: uni0271
Encoding: 625 625 769
Width: 1811
GlyphClass: 2
Flags: W
AnchorPoint: "Anchor-1" 906 1087 basechar 0
AnchorPoint: "Anchor-0" 906 0 basechar 0
LayerCount: 2
Fore
SplineSet
1356 -425 m 0,0,1
 1313 -425 1313 -425 1276.5 -423 c 128,-1,2
 1240 -421 1240 -421 1215 -418 c 1,3,-1
 1215 -217 l 1,4,5
 1233 -218 1233 -218 1261 -219 c 128,-1,6
 1289 -220 1289 -220 1310 -220 c 0,7,8
 1376 -220 1376 -220 1403.5 -197.5 c 128,-1,9
 1431 -175 1431 -175 1431 -125 c 2,10,-1
 1431 0 l 1,11,-1
 1687 0 l 1,12,-1
 1687 -129 l 2,13,14
 1687 -275 1687 -275 1605 -350 c 128,-1,15
 1523 -425 1523 -425 1356 -425 c 0,0,1
125 0 m 1,16,-1
 125 1087 l 1,17,-1
 370 1087 l 1,18,-1
 374 837 l 1,19,-1
 356 837 l 1,20,21
 382 929 382 929 432.5 988.5 c 128,-1,22
 483 1048 483 1048 550 1077.5 c 128,-1,23
 617 1107 617 1107 690 1107 c 0,24,25
 812 1107 812 1107 893.5 1034 c 128,-1,26
 975 961 975 961 1000 831 c 1,27,-1
 968 831 l 1,28,29
 991 919 991 919 1043.5 980.5 c 128,-1,30
 1096 1042 1096 1042 1171 1074.5 c 128,-1,31
 1246 1107 1246 1107 1333 1107 c 0,32,33
 1433 1107 1433 1107 1513 1063 c 128,-1,34
 1593 1019 1593 1019 1640 934.5 c 128,-1,35
 1687 850 1687 850 1687 726 c 2,36,-1
 1687 0 l 1,37,-1
 1431 0 l 1,38,-1
 1431 688 l 2,39,40
 1431 792 1431 792 1373.5 840.5 c 128,-1,41
 1316 889 1316 889 1236 889 c 0,42,43
 1173 889 1173 889 1126.5 862 c 128,-1,44
 1080 835 1080 835 1055.5 787 c 128,-1,45
 1031 739 1031 739 1031 675 c 2,46,-1
 1031 0 l 1,47,-1
 782 0 l 1,48,-1
 782 700 l 2,49,50
 782 786 782 786 728 837.5 c 128,-1,51
 674 889 674 889 591 889 c 0,52,53
 534 889 534 889 486 862.5 c 128,-1,54
 438 836 438 836 409.5 784.5 c 128,-1,55
 381 733 381 733 381 658 c 2,56,-1
 381 0 l 1,57,-1
 125 0 l 1,16,-1
EndSplineSet
EndChar

StartChar: mturn
Encoding: 623 623 770
Width: 1811
GlyphClass: 2
Flags: W
AnchorPoint: "Anchor-1" 904 1087 basechar 0
AnchorPoint: "Anchor-0" 904 0 basechar 0
LayerCount: 2
Fore
SplineSet
1687 1087 m 1,0,-1
 1687 0 l 1,1,-1
 1443 0 l 1,2,-1
 1438 250 l 1,3,-1
 1457 250 l 1,4,5
 1431 159 1431 159 1380 99 c 128,-1,6
 1329 39 1329 39 1262 9.5 c 128,-1,7
 1195 -20 1195 -20 1121 -20 c 0,8,9
 1001 -20 1001 -20 919.5 53.5 c 128,-1,10
 838 127 838 127 812 256 c 1,11,-1
 844 256 l 1,12,13
 822 169 822 169 769 107 c 128,-1,14
 716 45 716 45 641 12.5 c 128,-1,15
 566 -20 566 -20 480 -20 c 0,16,17
 379 -20 379 -20 298.5 24 c 128,-1,18
 218 68 218 68 171.5 153 c 128,-1,19
 125 238 125 238 125 361 c 2,20,-1
 125 1087 l 1,21,-1
 382 1087 l 1,22,-1
 382 400 l 2,23,24
 382 296 382 296 438.5 247 c 128,-1,25
 495 198 495 198 576 198 c 0,26,27
 640 198 640 198 685.5 225.5 c 128,-1,28
 731 253 731 253 756.5 301 c 128,-1,29
 782 349 782 349 782 412 c 2,30,-1
 782 1087 l 1,31,-1
 1031 1087 l 1,32,-1
 1031 389 l 2,33,34
 1031 302 1031 302 1084.5 250 c 128,-1,35
 1138 198 1138 198 1220 198 c 0,36,37
 1278 198 1278 198 1325.5 225 c 128,-1,38
 1373 252 1373 252 1401.5 303 c 128,-1,39
 1430 354 1430 354 1430 429 c 2,40,-1
 1430 1087 l 1,41,-1
 1687 1087 l 1,0,-1
EndSplineSet
EndChar

StartChar: mturndescend
Encoding: 624 624 771
Width: 1811
GlyphClass: 2
Flags: W
AnchorPoint: "Anchor-1" 904 1087 basechar 0
AnchorPoint: "Anchor-0" 904 0 basechar 0
LayerCount: 2
Fore
SplineSet
1437 -418 m 1,0,-1
 1437 0 l 1,1,-1
 1683 0 l 1,2,-1
 1683 -418 l 1,3,-1
 1437 -418 l 1,0,-1
1687 1087 m 1,4,-1
 1687 0 l 1,5,-1
 1443 0 l 1,6,-1
 1438 250 l 1,7,-1
 1457 250 l 1,8,9
 1431 159 1431 159 1380 99 c 128,-1,10
 1329 39 1329 39 1262 9.5 c 128,-1,11
 1195 -20 1195 -20 1121 -20 c 0,12,13
 1001 -20 1001 -20 919.5 53.5 c 128,-1,14
 838 127 838 127 812 256 c 1,15,-1
 844 256 l 1,16,17
 822 169 822 169 769 107 c 128,-1,18
 716 45 716 45 641 12.5 c 128,-1,19
 566 -20 566 -20 480 -20 c 0,20,21
 379 -20 379 -20 298.5 24 c 128,-1,22
 218 68 218 68 171.5 153 c 128,-1,23
 125 238 125 238 125 361 c 2,24,-1
 125 1087 l 1,25,-1
 382 1087 l 1,26,-1
 382 400 l 2,27,28
 382 296 382 296 438.5 247 c 128,-1,29
 495 198 495 198 576 198 c 0,30,31
 640 198 640 198 685.5 225.5 c 128,-1,32
 731 253 731 253 756.5 301 c 128,-1,33
 782 349 782 349 782 412 c 2,34,-1
 782 1087 l 1,35,-1
 1031 1087 l 1,36,-1
 1031 389 l 2,37,38
 1031 302 1031 302 1084.5 250 c 128,-1,39
 1138 198 1138 198 1220 198 c 0,40,41
 1278 198 1278 198 1325.5 225 c 128,-1,42
 1373 252 1373 252 1401.5 303 c 128,-1,43
 1430 354 1430 354 1430 429 c 2,44,-1
 1430 1087 l 1,45,-1
 1687 1087 l 1,4,-1
EndSplineSet
EndChar

StartChar: n
Encoding: 110 110 775
Width: 1213
GlyphClass: 2
Flags: W
AnchorPoint: "Anchor-1" 607 1087 basechar 0
AnchorPoint: "Anchor-0" 607 0 basechar 0
LayerCount: 2
Fore
SplineSet
381 626 m 2,0,-1
 381 0 l 1,1,-1
 125 0 l 1,2,-1
 125 1087 l 1,3,-1
 373 1087 l 1,4,-1
 374 815 l 1,5,-1
 340 815 l 1,6,7
 388 958 388 958 480 1031.5 c 128,-1,8
 572 1105 572 1105 709 1105 c 0,9,10
 822 1105 822 1105 907 1056.5 c 128,-1,11
 992 1008 992 1008 1040 914.5 c 128,-1,12
 1088 821 1088 821 1088 685 c 2,13,-1
 1088 0 l 1,14,-1
 832 0 l 1,15,-1
 832 646 l 2,16,17
 832 760 832 760 775 821.5 c 128,-1,18
 718 883 718 883 616 883 c 0,19,20
 549 883 549 883 496 854.5 c 128,-1,21
 443 826 443 826 412 769.5 c 128,-1,22
 381 713 381 713 381 626 c 2,0,-1
EndSplineSet
Substitution2: "'smcp' Lowercase to Small Capitals in Latin lookup 69 subtable" n.sc
Substitution2: "'c2sc' Capitals to Small Capitals in Latin lookup 68 subtable" n.sc
Substitution2: "'sups' Superscript in Latin lookup 39 subtable" n.sups
Substitution2: "'subs' Subscript in Latin lookup 38 subtable" n.subs
Substitution2: "'numr' Numerators in Latin lookup 19 subtable" n.numr
Substitution2: "'sinf' Scientific Inferiors in Latin lookup 18 subtable" n.subs
AlternateSubs2: "'aalt' Access All Alternates in Latin lookup 1 subtable" n.sc n.numr n.sups n.subs
EndChar

StartChar: nrthook
Encoding: 627 627 777
Width: 1213
GlyphClass: 2
Flags: W
AnchorPoint: "Anchor-1" 607 1087 basechar 0
AnchorPoint: "Anchor-0" 607 0 basechar 0
LayerCount: 2
Fore
SplineSet
1165 -425 m 0,0,1
 999 -425 999 -425 916 -350 c 128,-1,2
 833 -275 833 -275 833 -129 c 2,3,-1
 833 0 l 1,4,-1
 1089 0 l 1,5,-1
 1089 -125 l 2,6,7
 1089 -175 1089 -175 1116.5 -197.5 c 128,-1,8
 1144 -220 1144 -220 1209 -220 c 0,9,10
 1232 -220 1232 -220 1259 -219 c 128,-1,11
 1286 -218 1286 -218 1305 -217 c 1,12,-1
 1305 -418 l 1,13,14
 1279 -421 1279 -421 1243.5 -423 c 128,-1,15
 1208 -425 1208 -425 1165 -425 c 0,0,1
381 626 m 2,16,-1
 381 0 l 1,17,-1
 125 0 l 1,18,-1
 125 1087 l 1,19,-1
 373 1087 l 1,20,-1
 374 815 l 1,21,-1
 340 815 l 1,22,23
 388 958 388 958 480 1031.5 c 128,-1,24
 572 1105 572 1105 709 1105 c 0,25,26
 822 1105 822 1105 907 1056.5 c 128,-1,27
 992 1008 992 1008 1040 914.5 c 128,-1,28
 1088 821 1088 821 1088 685 c 2,29,-1
 1088 0 l 1,30,-1
 832 0 l 1,31,-1
 832 646 l 2,32,33
 832 760 832 760 775 821.5 c 128,-1,34
 718 883 718 883 616 883 c 0,35,36
 549 883 549 883 496 854.5 c 128,-1,37
 443 826 443 826 412 769.5 c 128,-1,38
 381 713 381 713 381 626 c 2,16,-1
EndSplineSet
EndChar

StartChar: eng
Encoding: 331 331 778
Width: 1213
GlyphClass: 2
Flags: W
AnchorPoint: "Anchor-1" 607 1087 basechar 0
AnchorPoint: "Anchor-0" 607 0 basechar 0
LayerCount: 2
Fore
SplineSet
620 -418 m 1,0,-1
 620 -206 l 1,1,2
 642 -209 642 -209 669 -209.5 c 128,-1,3
 696 -210 696 -210 715 -210 c 0,4,5
 780 -210 780 -210 806 -187.5 c 128,-1,6
 832 -165 832 -165 832 -115 c 2,7,-1
 832 0 l 1,8,-1
 1089 0 l 1,9,-1
 1089 -129 l 2,10,11
 1089 -275 1089 -275 1005.5 -350 c 128,-1,12
 922 -425 922 -425 755 -425 c 0,13,14
 712 -425 712 -425 678.5 -423 c 128,-1,15
 645 -421 645 -421 620 -418 c 1,0,-1
381 626 m 2,16,-1
 381 0 l 1,17,-1
 125 0 l 1,18,-1
 125 1087 l 1,19,-1
 373 1087 l 1,20,-1
 374 815 l 1,21,-1
 340 815 l 1,22,23
 388 958 388 958 480 1031.5 c 128,-1,24
 572 1105 572 1105 709 1105 c 0,25,26
 822 1105 822 1105 907 1056.5 c 128,-1,27
 992 1008 992 1008 1040 914.5 c 128,-1,28
 1088 821 1088 821 1088 685 c 2,29,-1
 1088 0 l 1,30,-1
 832 0 l 1,31,-1
 832 646 l 2,32,33
 832 760 832 760 775 821.5 c 128,-1,34
 718 883 718 883 616 883 c 0,35,36
 549 883 549 883 496 854.5 c 128,-1,37
 443 826 443 826 412 769.5 c 128,-1,38
 381 713 381 713 381 626 c 2,16,-1
EndSplineSet
EndChar

StartChar: uni0235
Encoding: 565 565 779
Width: 1533
GlyphClass: 2
Flags: W
AnchorPoint: "Anchor-1" 607 1087 basechar 0
AnchorPoint: "Anchor-0" 607 0 basechar 0
LayerCount: 2
Fore
SplineSet
1203 -418 m 0,0,1
 1072 -418 1072 -418 990 -372 c 128,-1,2
 908 -326 908 -326 870.5 -246.5 c 128,-1,3
 833 -167 833 -167 833 -70 c 2,4,-1
 833 225 l 1,5,-1
 1089 225 l 1,6,-1
 1089 -121 l 2,7,8
 1089 -181 1089 -181 1124 -212.5 c 128,-1,9
 1159 -244 1159 -244 1208 -244 c 0,10,11
 1252 -244 1252 -244 1280.5 -217.5 c 128,-1,12
 1309 -191 1309 -191 1309 -150 c 0,13,14
 1309 -112 1309 -112 1284 -85.5 c 128,-1,15
 1259 -59 1259 -59 1212 -54 c 0,16,17
 1180 -50 1180 -50 1148 -58 c 128,-1,18
 1116 -66 1116 -66 1080.5 -87 c 128,-1,19
 1045 -108 1045 -108 1001 -144 c 2,20,-1
 709 -400 l 1,21,-1
 578 -245 l 1,22,-1
 847 -12 l 2,23,24
 919 51 919 51 1012.5 90 c 128,-1,25
 1106 129 1106 129 1202 129 c 0,26,27
 1356 129 1356 129 1449 49.5 c 128,-1,28
 1542 -30 1542 -30 1542 -157 c 0,29,30
 1542 -278 1542 -278 1453 -348 c 128,-1,31
 1364 -418 1364 -418 1203 -418 c 0,0,1
381 626 m 2,32,-1
 381 0 l 1,33,-1
 125 0 l 1,34,-1
 125 1087 l 1,35,-1
 373 1087 l 1,36,-1
 374 815 l 1,37,-1
 340 815 l 1,38,39
 388 958 388 958 480 1031.5 c 128,-1,40
 572 1105 572 1105 709 1105 c 0,41,42
 822 1105 822 1105 907 1056.5 c 128,-1,43
 992 1008 992 1008 1040 914.5 c 128,-1,44
 1088 821 1088 821 1088 685 c 2,45,-1
 1088 0 l 1,46,-1
 832 0 l 1,47,-1
 832 646 l 2,48,49
 832 760 832 760 775 821.5 c 128,-1,50
 718 883 718 883 616 883 c 0,51,52
 549 883 549 883 496 854.5 c 128,-1,53
 443 826 443 826 412 769.5 c 128,-1,54
 381 713 381 713 381 626 c 2,32,-1
EndSplineSet
EndChar

StartChar: nlfthook
Encoding: 626 626 780
Width: 1213
GlyphClass: 2
Flags: W
AnchorPoint: "Anchor-1" 607 1087 basechar 0
AnchorPoint: "Anchor-0" 607 0 basechar 0
LayerCount: 2
Fore
SplineSet
52 -425 m 0,0,1
 8 -425 8 -425 -29 -423 c 128,-1,2
 -66 -421 -66 -421 -91 -418 c 1,3,-1
 -91 -217 l 1,4,5
 -72 -218 -72 -218 -44.5 -219 c 128,-1,6
 -17 -220 -17 -220 5 -220 c 0,7,8
 70 -220 70 -220 97.5 -197.5 c 128,-1,9
 125 -175 125 -175 125 -125 c 2,10,-1
 125 0 l 1,11,-1
 382 0 l 1,12,-1
 382 -129 l 2,13,14
 382 -275 382 -275 299.5 -350 c 128,-1,15
 217 -425 217 -425 52 -425 c 0,0,1
381 626 m 2,16,-1
 381 0 l 1,17,-1
 125 0 l 1,18,-1
 125 1087 l 1,19,-1
 373 1087 l 1,20,-1
 374 815 l 1,21,-1
 340 815 l 1,22,23
 388 958 388 958 480 1031.5 c 128,-1,24
 572 1105 572 1105 709 1105 c 0,25,26
 822 1105 822 1105 907 1056.5 c 128,-1,27
 992 1008 992 1008 1040 914.5 c 128,-1,28
 1088 821 1088 821 1088 685 c 2,29,-1
 1088 0 l 1,30,-1
 832 0 l 1,31,-1
 832 646 l 2,32,33
 832 760 832 760 775 821.5 c 128,-1,34
 718 883 718 883 616 883 c 0,35,36
 549 883 549 883 496 854.5 c 128,-1,37
 443 826 443 826 412 769.5 c 128,-1,38
 381 713 381 713 381 626 c 2,16,-1
EndSplineSet
EndChar

StartChar: n.sc
Encoding: 60953 60953 791
Width: 1266
GlyphClass: 2
Flags: W
AnchorPoint: "Anchor-1" 634 1087 basechar 0
AnchorPoint: "Anchor-0" 634 0 basechar 0
LayerCount: 2
Fore
SplineSet
125 0 m 1,0,-1
 125 1087 l 1,1,-1
 405 1087 l 1,2,-1
 740 572 l 2,3,4
 802 477 802 477 848.5 394.5 c 128,-1,5
 895 312 895 312 938 232 c 1,6,-1
 896 232 l 1,7,8
 895 287 895 287 894 341 c 128,-1,9
 893 395 893 395 892.5 451.5 c 128,-1,10
 892 508 892 508 892 572 c 2,11,-1
 892 1087 l 1,12,-1
 1142 1087 l 1,13,-1
 1142 0 l 1,14,-1
 865 0 l 1,15,-1
 529 518 l 2,16,17
 467 612 467 612 419.5 695 c 128,-1,18
 372 778 372 778 328 857 c 1,19,-1
 371 857 l 1,20,21
 373 775 373 775 374 694 c 128,-1,22
 375 613 375 613 375 518 c 2,23,-1
 375 0 l 1,24,-1
 125 0 l 1,0,-1
EndSplineSet
EndChar

StartChar: o
Encoding: 111 111 792
Width: 1207
GlyphClass: 2
Flags: W
AnchorPoint: "Anchor-4" 1131 540 basechar 0
AnchorPoint: "Anchor-1" 604 1087 basechar 0
AnchorPoint: "Anchor-0" 604 0 basechar 0
LayerCount: 2
Fore
SplineSet
604 -23 m 0,0,1
 445 -23 445 -23 326.5 48 c 128,-1,2
 208 119 208 119 142 246 c 128,-1,3
 76 373 76 373 76 540 c 0,4,5
 76 710 76 710 142 837 c 128,-1,6
 208 964 208 964 326.5 1035 c 128,-1,7
 445 1106 445 1106 604 1106 c 0,8,9
 764 1106 764 1106 882.5 1035 c 128,-1,10
 1001 964 1001 964 1066 837 c 128,-1,11
 1131 710 1131 710 1131 540 c 0,12,13
 1131 373 1131 373 1066 246 c 128,-1,14
 1001 119 1001 119 882.5 48 c 128,-1,15
 764 -23 764 -23 604 -23 c 0,0,1
604 188 m 256,16,17
 690 188 690 188 749.5 233 c 128,-1,18
 809 278 809 278 840 358 c 128,-1,19
 871 438 871 438 871 540 c 0,20,21
 871 645 871 645 840 724.5 c 128,-1,22
 809 804 809 804 749.5 850 c 128,-1,23
 690 896 690 896 604 896 c 256,24,25
 518 896 518 896 458.5 850.5 c 128,-1,26
 399 805 399 805 368 725.5 c 128,-1,27
 337 646 337 646 337 540 c 0,28,29
 337 437 337 437 368 357.5 c 128,-1,30
 399 278 399 278 458.5 233 c 128,-1,31
 518 188 518 188 604 188 c 256,16,17
EndSplineSet
Substitution2: "Single Substitution lookup 44 subtable" ordmasculine
Substitution2: "'sups' Superscript in Latin lookup 39 subtable" o.sups
Substitution2: "'subs' Subscript in Latin lookup 38 subtable" o.subs
Substitution2: "'sinf' Scientific Inferiors in Latin lookup 18 subtable" o.subs
AlternateSubs2: "'aalt' Access All Alternates in Latin lookup 1 subtable" ordmasculine o.sups o.subs
EndChar

StartChar: ohorn
Encoding: 417 417 796
Width: 1205
GlyphClass: 2
Flags: W
AnchorPoint: "Anchor-4" 1131 540 basechar 0
AnchorPoint: "Anchor-1" 604 1087 basechar 0
AnchorPoint: "Anchor-0" 604 0 basechar 0
LayerCount: 2
Fore
SplineSet
603 957 m 1,0,-1
 603 1106 l 1,1,2
 645 1106 645 1106 681 1104 c 128,-1,3
 717 1102 717 1102 751.5 1098.5 c 128,-1,4
 786 1095 786 1095 825 1092.5 c 128,-1,5
 864 1090 864 1090 913 1090 c 0,6,7
 955 1090 955 1090 955 1129 c 2,8,-1
 955 1331 l 1,9,-1
 1168 1331 l 1,10,-1
 1168 1143 l 2,11,12
 1168 1053 1168 1053 1113 1005 c 128,-1,13
 1058 957 1058 957 955 957 c 0,14,15
 869 957 869 957 778.5 957 c 128,-1,16
 688 957 688 957 603 957 c 1,0,-1
604 -23 m 0,17,18
 445 -23 445 -23 326.5 48 c 128,-1,19
 208 119 208 119 142 246 c 128,-1,20
 76 373 76 373 76 540 c 0,21,22
 76 710 76 710 142 837 c 128,-1,23
 208 964 208 964 326.5 1035 c 128,-1,24
 445 1106 445 1106 604 1106 c 0,25,26
 764 1106 764 1106 882.5 1035 c 128,-1,27
 1001 964 1001 964 1066 837 c 128,-1,28
 1131 710 1131 710 1131 540 c 0,29,30
 1131 373 1131 373 1066 246 c 128,-1,31
 1001 119 1001 119 882.5 48 c 128,-1,32
 764 -23 764 -23 604 -23 c 0,17,18
604 188 m 256,33,34
 690 188 690 188 749.5 233 c 128,-1,35
 809 278 809 278 840 358 c 128,-1,36
 871 438 871 438 871 540 c 0,37,38
 871 645 871 645 840 724.5 c 128,-1,39
 809 804 809 804 749.5 850 c 128,-1,40
 690 896 690 896 604 896 c 256,41,42
 518 896 518 896 458.5 850.5 c 128,-1,43
 399 805 399 805 368 725.5 c 128,-1,44
 337 646 337 646 337 540 c 0,45,46
 337 437 337 437 368 357.5 c 128,-1,47
 399 278 399 278 458.5 233 c 128,-1,48
 518 188 518 188 604 188 c 256,33,34
EndSplineSet
EndChar

StartChar: uni1EE1
Encoding: 7905 7905 826
Width: 1205
GlyphClass: 2
Flags: W
AnchorPoint: "Anchor-4" 1131 540 basechar 0
AnchorPoint: "Anchor-1" 605 1497 basechar 0
AnchorPoint: "Anchor-0" 604 0 basechar 0
LayerCount: 2
Fore
SplineSet
604 -23 m 0,0,1
 445 -23 445 -23 326.5 48 c 128,-1,2
 208 119 208 119 142 246 c 128,-1,3
 76 373 76 373 76 540 c 0,4,5
 76 710 76 710 142 837 c 128,-1,6
 208 964 208 964 326.5 1035 c 128,-1,7
 445 1106 445 1106 604 1106 c 0,8,9
 764 1106 764 1106 882.5 1035 c 128,-1,10
 1001 964 1001 964 1066 837 c 128,-1,11
 1131 710 1131 710 1131 540 c 0,12,13
 1131 373 1131 373 1066 246 c 128,-1,14
 1001 119 1001 119 882.5 48 c 128,-1,15
 764 -23 764 -23 604 -23 c 0,0,1
604 188 m 256,16,17
 690 188 690 188 749.5 233 c 128,-1,18
 809 278 809 278 840 358 c 128,-1,19
 871 438 871 438 871 540 c 0,20,21
 871 645 871 645 840 724.5 c 128,-1,22
 809 804 809 804 749.5 850 c 128,-1,23
 690 896 690 896 604 896 c 256,24,25
 518 896 518 896 458.5 850.5 c 128,-1,26
 399 805 399 805 368 725.5 c 128,-1,27
 337 646 337 646 337 540 c 0,28,29
 337 437 337 437 368 357.5 c 128,-1,30
 399 278 399 278 458.5 233 c 128,-1,31
 518 188 518 188 604 188 c 256,16,17
603 957 m 1,32,-1
 603 1106 l 1,33,34
 645 1106 645 1106 681 1104 c 128,-1,35
 717 1102 717 1102 751.5 1098.5 c 128,-1,36
 786 1095 786 1095 825 1092.5 c 128,-1,37
 864 1090 864 1090 913 1090 c 0,38,39
 955 1090 955 1090 955 1129 c 2,40,-1
 955 1331 l 1,41,-1
 1168 1331 l 1,42,-1
 1168 1143 l 2,43,44
 1168 1053 1168 1053 1113 1005 c 128,-1,45
 1058 957 1058 957 955 957 c 0,46,47
 869 957 869 957 778.5 957 c 128,-1,48
 688 957 688 957 603 957 c 1,32,-1
726 1277 m 0,49,50
 687 1277 687 1277 655 1290 c 128,-1,51
 623 1303 623 1303 595 1320 c 128,-1,52
 567 1337 567 1337 544 1349.5 c 128,-1,53
 521 1362 521 1362 502 1362 c 0,54,55
 477 1362 477 1362 464 1338 c 128,-1,56
 451 1314 451 1314 449 1282 c 1,57,-1
 319 1282 l 1,58,59
 322 1381 322 1381 364.5 1439.5 c 128,-1,60
 407 1498 407 1498 485 1498 c 0,61,62
 523 1498 523 1498 554.5 1484.5 c 128,-1,63
 586 1471 586 1471 612 1454.5 c 128,-1,64
 638 1438 638 1438 661 1425 c 128,-1,65
 684 1412 684 1412 707 1412 c 0,66,67
 734 1412 734 1412 746.5 1432 c 128,-1,68
 759 1452 759 1452 763 1493 c 1,69,-1
 890 1493 l 1,70,71
 887 1393 887 1393 842.5 1335 c 128,-1,72
 798 1277 798 1277 726 1277 c 0,49,50
EndSplineSet
Ligature2: "'ccmp' Glyph Composition/Decomposition in Latin lookup 6 subtable" ohorn tildecomb
EndChar

StartChar: obar
Encoding: 629 629 839
Width: 1207
GlyphClass: 2
Flags: W
AnchorPoint: "Anchor-4" 1131 540 basechar 0
AnchorPoint: "Anchor-1" 604 1087 basechar 0
AnchorPoint: "Anchor-0" 604 0 basechar 0
LayerCount: 2
Fore
SplineSet
977 619 m 1,0,-1
 977 468 l 1,1,-1
 231 468 l 1,2,-1
 231 619 l 1,3,-1
 977 619 l 1,0,-1
604 -23 m 0,4,5
 445 -23 445 -23 326.5 48 c 128,-1,6
 208 119 208 119 142 246 c 128,-1,7
 76 373 76 373 76 540 c 0,8,9
 76 710 76 710 142 837 c 128,-1,10
 208 964 208 964 326.5 1035 c 128,-1,11
 445 1106 445 1106 604 1106 c 0,12,13
 764 1106 764 1106 882.5 1035 c 128,-1,14
 1001 964 1001 964 1066 837 c 128,-1,15
 1131 710 1131 710 1131 540 c 0,16,17
 1131 373 1131 373 1066 246 c 128,-1,18
 1001 119 1001 119 882.5 48 c 128,-1,19
 764 -23 764 -23 604 -23 c 0,4,5
604 188 m 256,20,21
 690 188 690 188 749.5 233 c 128,-1,22
 809 278 809 278 840 358 c 128,-1,23
 871 438 871 438 871 540 c 0,24,25
 871 645 871 645 840 724.5 c 128,-1,26
 809 804 809 804 749.5 850 c 128,-1,27
 690 896 690 896 604 896 c 256,28,29
 518 896 518 896 458.5 850.5 c 128,-1,30
 399 805 399 805 368 725.5 c 128,-1,31
 337 646 337 646 337 540 c 0,32,33
 337 437 337 437 368 357.5 c 128,-1,34
 399 278 399 278 458.5 233 c 128,-1,35
 518 188 518 188 604 188 c 256,20,21
EndSplineSet
EndChar

StartChar: oe.sc
Encoding: 60954 60954 843
Width: 1631
Flags: W
LayerCount: 2
Fore
SplineSet
589 0 m 2,0,1
 429 0 429 0 314 70.5 c 128,-1,2
 199 141 199 141 137.5 263 c 128,-1,3
 76 385 76 385 76 539 c 2,4,-1
 76 551 l 2,5,6
 76 705 76 705 137 826 c 128,-1,7
 198 947 198 947 312 1017 c 128,-1,8
 426 1087 426 1087 585 1087 c 2,9,-1
 947 1087 l 1,10,-1
 947 884 l 1,11,-1
 593 884 l 2,12,13
 512 884 512 884 453 840 c 128,-1,14
 394 796 394 796 362.5 720.5 c 128,-1,15
 331 645 331 645 331 551 c 2,16,-1
 331 539 l 2,17,18
 331 444 331 444 363.5 368.5 c 128,-1,19
 396 293 396 293 455.5 248.5 c 128,-1,20
 515 204 515 204 597 204 c 2,21,-1
 947 204 l 1,22,-1
 947 0 l 1,23,-1
 589 0 l 2,0,1
948 0 m 1,24,-1
 948 204 l 1,25,-1
 1585 204 l 1,26,-1
 1585 0 l 1,27,-1
 948 0 l 1,24,-1
793 0 m 1,28,-1
 793 1087 l 1,29,-1
 1035 1087 l 1,30,-1
 1035 0 l 1,31,-1
 793 0 l 1,28,-1
948 454 m 1,32,-1
 948 649 l 1,33,-1
 1496 649 l 1,34,-1
 1496 454 l 1,35,-1
 948 454 l 1,32,-1
948 884 m 1,36,-1
 948 1087 l 1,37,-1
 1585 1087 l 1,38,-1
 1585 884 l 1,39,-1
 948 884 l 1,36,-1
EndSplineSet
EndChar

StartChar: p
Encoding: 112 112 845
Width: 1240
GlyphClass: 2
Flags: W
AnchorPoint: "Anchor-1" 665 1087 basechar 0
AnchorPoint: "Anchor-0" 253 -414 basechar 0
LayerCount: 2
Fore
SplineSet
125 -418 m 1,0,-1
 125 1087 l 1,1,-1
 376 1087 l 1,2,-1
 376 921 l 1,3,-1
 386 921 l 1,4,5
 413 969 413 969 456 1011 c 128,-1,6
 499 1053 499 1053 561 1079 c 128,-1,7
 623 1105 623 1105 706 1105 c 0,8,9
 839 1105 839 1105 942.5 1037 c 128,-1,10
 1046 969 1046 969 1105 843 c 128,-1,11
 1164 717 1164 717 1164 543 c 256,12,13
 1164 369 1164 369 1106 243 c 128,-1,14
 1048 117 1048 117 944.5 48 c 128,-1,15
 841 -21 841 -21 706 -21 c 0,16,17
 624 -21 624 -21 562 5.5 c 128,-1,18
 500 32 500 32 457.5 75 c 128,-1,19
 415 118 415 118 388 168 c 1,20,-1
 381 168 l 1,21,-1
 381 -418 l 1,22,-1
 125 -418 l 1,0,-1
640 192 m 0,23,24
 724 192 724 192 782.5 235.5 c 128,-1,25
 841 279 841 279 872.5 358 c 128,-1,26
 904 437 904 437 904 543 c 0,27,28
 904 650 904 650 873 728.5 c 128,-1,29
 842 807 842 807 783 850.5 c 128,-1,30
 724 894 724 894 640 894 c 0,31,32
 557 894 557 894 496.5 850.5 c 128,-1,33
 436 807 436 807 404 728.5 c 128,-1,34
 372 650 372 650 372 543 c 0,35,36
 372 439 372 439 404 359.5 c 128,-1,37
 436 280 436 280 497 236 c 128,-1,38
 558 192 558 192 640 192 c 0,23,24
EndSplineSet
Substitution2: "'sups' Superscript in Latin lookup 39 subtable" p.sups
Substitution2: "'subs' Subscript in Latin lookup 38 subtable" p.subs
Substitution2: "'sinf' Scientific Inferiors in Latin lookup 18 subtable" p.subs
AlternateSubs2: "'aalt' Access All Alternates in Latin lookup 1 subtable" p.sups p.subs
EndChar

StartChar: uni048F
Encoding: 1167 1167 846
Width: 1225
GlyphClass: 2
Flags: W
AnchorPoint: "Anchor-1" 670 1087 basechar 0
AnchorPoint: "Anchor-0" 258 -414 basechar 0
LayerCount: 2
Fore
SplineSet
756 428 m 1,0,-1
 1130 -7 l 1,1,-1
 1019 -102 l 1,2,-1
 645 333 l 1,3,-1
 756 428 l 1,0,-1
129 -418 m 1,4,-1
 129 1087 l 1,5,-1
 381 1087 l 1,6,-1
 381 921 l 1,7,-1
 391 921 l 1,8,9
 418 969 418 969 460.5 1011 c 128,-1,10
 503 1053 503 1053 565 1079 c 128,-1,11
 627 1105 627 1105 711 1105 c 0,12,13
 844 1105 844 1105 947.5 1037 c 128,-1,14
 1051 969 1051 969 1110 843 c 128,-1,15
 1169 717 1169 717 1169 543 c 256,16,17
 1169 369 1169 369 1110.5 243 c 128,-1,18
 1052 117 1052 117 949 48 c 128,-1,19
 846 -21 846 -21 710 -21 c 0,20,21
 628 -21 628 -21 566.5 5.5 c 128,-1,22
 505 32 505 32 462.5 75 c 128,-1,23
 420 118 420 118 392 168 c 1,24,-1
 385 168 l 1,25,-1
 385 -418 l 1,26,-1
 129 -418 l 1,4,-1
645 192 m 256,27,28
 728 192 728 192 786.5 235.5 c 128,-1,29
 845 279 845 279 877 358 c 128,-1,30
 909 437 909 437 909 543 c 0,31,32
 909 650 909 650 877.5 728.5 c 128,-1,33
 846 807 846 807 787 850.5 c 128,-1,34
 728 894 728 894 645 894 c 0,35,36
 561 894 561 894 501 850.5 c 128,-1,37
 441 807 441 807 408.5 728.5 c 128,-1,38
 376 650 376 650 376 543 c 0,39,40
 376 439 376 439 408.5 359.5 c 128,-1,41
 441 280 441 280 501.5 236 c 128,-1,42
 562 192 562 192 645 192 c 256,27,28
EndSplineSet
EndChar

StartChar: uni01A5
Encoding: 421 421 847
Width: 1240
GlyphClass: 2
Flags: W
AnchorPoint: "Anchor-1" 665 1087 basechar 0
AnchorPoint: "Anchor-0" 253 -414 basechar 0
LayerCount: 2
Fore
SplineSet
125 858 m 1,0,-1
 125 1202 l 2,1,2
 125 1348 125 1348 210.5 1422.5 c 128,-1,3
 296 1497 296 1497 461 1497 c 0,4,5
 505 1497 505 1497 540.5 1495.5 c 128,-1,6
 576 1494 576 1494 601 1490 c 1,7,-1
 601 1289 l 1,8,9
 583 1291 583 1291 555.5 1291.5 c 128,-1,10
 528 1292 528 1292 506 1292 c 0,11,12
 440 1292 440 1292 410.5 1269.5 c 128,-1,13
 381 1247 381 1247 381 1198 c 2,14,-1
 381 858 l 1,15,-1
 125 858 l 1,0,-1
125 -418 m 1,16,-1
 125 1087 l 1,17,-1
 376 1087 l 1,18,-1
 376 921 l 1,19,-1
 386 921 l 1,20,21
 413 969 413 969 456 1011 c 128,-1,22
 499 1053 499 1053 561 1079 c 128,-1,23
 623 1105 623 1105 706 1105 c 0,24,25
 839 1105 839 1105 942.5 1037 c 128,-1,26
 1046 969 1046 969 1105 843 c 128,-1,27
 1164 717 1164 717 1164 543 c 256,28,29
 1164 369 1164 369 1106 243 c 128,-1,30
 1048 117 1048 117 944.5 48 c 128,-1,31
 841 -21 841 -21 706 -21 c 0,32,33
 624 -21 624 -21 562 5.5 c 128,-1,34
 500 32 500 32 457.5 75 c 128,-1,35
 415 118 415 118 388 168 c 1,36,-1
 381 168 l 1,37,-1
 381 -418 l 1,38,-1
 125 -418 l 1,16,-1
640 192 m 0,39,40
 724 192 724 192 782.5 235.5 c 128,-1,41
 841 279 841 279 872.5 358 c 128,-1,42
 904 437 904 437 904 543 c 0,43,44
 904 650 904 650 873 728.5 c 128,-1,45
 842 807 842 807 783 850.5 c 128,-1,46
 724 894 724 894 640 894 c 0,47,48
 557 894 557 894 496.5 850.5 c 128,-1,49
 436 807 436 807 404 728.5 c 128,-1,50
 372 650 372 650 372 543 c 0,51,52
 372 439 372 439 404 359.5 c 128,-1,53
 436 280 436 280 497 236 c 128,-1,54
 558 192 558 192 640 192 c 0,39,40
EndSplineSet
EndChar

StartChar: q
Encoding: 113 113 851
Width: 1240
GlyphClass: 2
Flags: W
AnchorPoint: "Anchor-1" 620 1087 basechar 0
AnchorPoint: "Anchor-0" 988 -414 basechar 0
LayerCount: 2
Fore
SplineSet
1115 -418 m 1,0,-1
 859 -418 l 1,1,-1
 859 168 l 1,2,-1
 852 168 l 1,3,4
 826 118 826 118 783.5 75 c 128,-1,5
 741 32 741 32 680 5.5 c 128,-1,6
 619 -21 619 -21 536 -21 c 0,7,8
 401 -21 401 -21 297 48 c 128,-1,9
 193 117 193 117 134.5 243 c 128,-1,10
 76 369 76 369 76 543 c 256,11,12
 76 717 76 717 135.5 843 c 128,-1,13
 195 969 195 969 298.5 1037 c 128,-1,14
 402 1105 402 1105 534 1105 c 0,15,16
 618 1105 618 1105 680.5 1079 c 128,-1,17
 743 1053 743 1053 785.5 1011 c 128,-1,18
 828 969 828 969 854 921 c 1,19,-1
 864 921 l 1,20,-1
 864 1087 l 1,21,-1
 1115 1087 l 1,22,-1
 1115 -418 l 1,0,-1
600 192 m 0,23,24
 684 192 684 192 744 236 c 128,-1,25
 804 280 804 280 836.5 359.5 c 128,-1,26
 869 439 869 439 869 543 c 0,27,28
 869 650 869 650 837 728.5 c 128,-1,29
 805 807 805 807 745 850.5 c 128,-1,30
 685 894 685 894 600 894 c 0,31,32
 518 894 518 894 459 850.5 c 128,-1,33
 400 807 400 807 368.5 728.5 c 128,-1,34
 337 650 337 650 337 543 c 0,35,36
 337 437 337 437 368.5 358 c 128,-1,37
 400 279 400 279 459.5 235.5 c 128,-1,38
 519 192 519 192 600 192 c 0,23,24
EndSplineSet
Substitution2: "'sups' Superscript in Latin lookup 39 subtable" q.sups
Substitution2: "'subs' Subscript in Latin lookup 38 subtable" q.subs
Substitution2: "'sinf' Scientific Inferiors in Latin lookup 18 subtable" q.subs
AlternateSubs2: "'aalt' Access All Alternates in Latin lookup 1 subtable" q.sups q.subs
EndChar

StartChar: uni02A0
Encoding: 672 672 852
Width: 1240
GlyphClass: 2
Flags: W
AnchorPoint: "Anchor-1" 620 1087 basechar 0
AnchorPoint: "Anchor-0" 988 -414 basechar 0
LayerCount: 2
Fore
SplineSet
857 858 m 1,0,-1
 857 1202 l 2,1,2
 857 1348 857 1348 942.5 1422.5 c 128,-1,3
 1028 1497 1028 1497 1193 1497 c 0,4,5
 1237 1497 1237 1497 1272.5 1495.5 c 128,-1,6
 1308 1494 1308 1494 1333 1490 c 1,7,-1
 1333 1289 l 1,8,9
 1315 1291 1315 1291 1287.5 1291.5 c 128,-1,10
 1260 1292 1260 1292 1237 1292 c 0,11,12
 1172 1292 1172 1292 1142.5 1269.5 c 128,-1,13
 1113 1247 1113 1247 1113 1198 c 2,14,-1
 1113 858 l 1,15,-1
 857 858 l 1,0,-1
1115 -418 m 1,16,-1
 859 -418 l 1,17,-1
 859 168 l 1,18,-1
 852 168 l 1,19,20
 826 118 826 118 783.5 75 c 128,-1,21
 741 32 741 32 680 5.5 c 128,-1,22
 619 -21 619 -21 536 -21 c 0,23,24
 401 -21 401 -21 297 48 c 128,-1,25
 193 117 193 117 134.5 243 c 128,-1,26
 76 369 76 369 76 543 c 256,27,28
 76 717 76 717 135.5 843 c 128,-1,29
 195 969 195 969 298.5 1037 c 128,-1,30
 402 1105 402 1105 534 1105 c 0,31,32
 618 1105 618 1105 680.5 1079 c 128,-1,33
 743 1053 743 1053 785.5 1011 c 128,-1,34
 828 969 828 969 854 921 c 1,35,-1
 864 921 l 1,36,-1
 864 1087 l 1,37,-1
 1115 1087 l 1,38,-1
 1115 -418 l 1,16,-1
600 192 m 0,39,40
 684 192 684 192 744 236 c 128,-1,41
 804 280 804 280 836.5 359.5 c 128,-1,42
 869 439 869 439 869 543 c 0,43,44
 869 650 869 650 837 728.5 c 128,-1,45
 805 807 805 807 745 850.5 c 128,-1,46
 685 894 685 894 600 894 c 0,47,48
 518 894 518 894 459 850.5 c 128,-1,49
 400 807 400 807 368.5 728.5 c 128,-1,50
 337 650 337 650 337 543 c 0,51,52
 337 437 337 437 368.5 358 c 128,-1,53
 400 279 400 279 459.5 235.5 c 128,-1,54
 519 192 519 192 600 192 c 0,39,40
EndSplineSet
EndChar

StartChar: qrthook
Encoding: 587 587 853
Width: 1240
GlyphClass: 2
Flags: W
AnchorPoint: "Anchor-4" 1115 0 basechar 0
AnchorPoint: "Anchor-1" 609 1087 basechar 0
AnchorPoint: "Anchor-0" 610 0 basechar 0
LayerCount: 2
Fore
SplineSet
1191 -425 m 0,0,1
 1026 -425 1026 -425 943.5 -350 c 128,-1,2
 861 -275 861 -275 861 -129 c 2,3,-1
 861 194 l 1,4,-1
 1115 194 l 1,5,-1
 1115 -125 l 2,6,7
 1115 -175 1115 -175 1142.5 -197.5 c 128,-1,8
 1170 -220 1170 -220 1235 -220 c 0,9,10
 1258 -220 1258 -220 1285.5 -219 c 128,-1,11
 1313 -218 1313 -218 1331 -217 c 1,12,-1
 1331 -418 l 1,13,14
 1306 -421 1306 -421 1270.5 -423 c 128,-1,15
 1235 -425 1235 -425 1191 -425 c 0,0,1
535 -21 m 0,16,17
 401 -21 401 -21 297.5 48 c 128,-1,18
 194 117 194 117 135 243 c 128,-1,19
 76 369 76 369 76 543 c 256,20,21
 76 717 76 717 135.5 843 c 128,-1,22
 195 969 195 969 299 1037 c 128,-1,23
 403 1105 403 1105 535 1105 c 0,24,25
 620 1105 620 1105 681.5 1079 c 128,-1,26
 743 1053 743 1053 785.5 1011 c 128,-1,27
 828 969 828 969 855 921 c 1,28,-1
 862 921 l 1,29,-1
 862 1087 l 1,30,-1
 1115 1087 l 1,31,-1
 1115 0 l 1,32,-1
 862 0 l 1,33,-1
 862 168 l 1,34,-1
 855 168 l 1,35,36
 828 118 828 118 785 75 c 128,-1,37
 742 32 742 32 680 5.5 c 128,-1,38
 618 -21 618 -21 535 -21 c 0,16,17
601 192 m 0,39,40
 685 192 685 192 745 236 c 128,-1,41
 805 280 805 280 837 359.5 c 128,-1,42
 869 439 869 439 869 543 c 0,43,44
 869 650 869 650 837.5 728.5 c 128,-1,45
 806 807 806 807 746 850.5 c 128,-1,46
 686 894 686 894 601 894 c 0,47,48
 519 894 519 894 459.5 850.5 c 128,-1,49
 400 807 400 807 368.5 729 c 128,-1,50
 337 651 337 651 337 543 c 0,51,52
 337 437 337 437 368.5 358 c 128,-1,53
 400 279 400 279 459 235.5 c 128,-1,54
 518 192 518 192 601 192 c 0,39,40
EndSplineSet
EndChar

StartChar: r
Encoding: 114 114 854
Width: 772
GlyphClass: 2
Flags: W
AnchorPoint: "Anchor-1" 425 1087 basechar 0
AnchorPoint: "Anchor-0" 253 0 basechar 0
LayerCount: 2
Fore
SplineSet
125 0 m 1,0,-1
 125 1087 l 1,1,-1
 372 1087 l 1,2,-1
 372 906 l 1,3,-1
 380 906 l 1,4,5
 410 1001 410 1001 479 1050.5 c 128,-1,6
 548 1100 548 1100 646 1100 c 0,7,8
 670 1100 670 1100 694 1098 c 128,-1,9
 718 1096 718 1096 735 1095 c 1,10,-1
 735 863 l 1,11,12
 720 867 720 867 685 870 c 128,-1,13
 650 873 650 873 615 873 c 0,14,15
 548 873 548 873 495 844 c 128,-1,16
 442 815 442 815 411.5 760 c 128,-1,17
 381 705 381 705 381 628 c 2,18,-1
 381 0 l 1,19,-1
 125 0 l 1,0,-1
EndSplineSet
Substitution2: "'smcp' Lowercase to Small Capitals in Latin lookup 69 subtable" r.sc
Substitution2: "'c2sc' Capitals to Small Capitals in Latin lookup 68 subtable" r.sc
Substitution2: "'sups' Superscript in Latin lookup 39 subtable" r.sups
Substitution2: "'subs' Subscript in Latin lookup 38 subtable" r.subs
Substitution2: "'sinf' Scientific Inferiors in Latin lookup 18 subtable" r.subs
AlternateSubs2: "'aalt' Access All Alternates in Latin lookup 1 subtable" r.sc r.sups r.subs
EndChar

StartChar: rrthook
Encoding: 57437 57437 855
Width: 772
GlyphClass: 2
Flags: W
AnchorPoint: "Anchor-1" 425 1087 basechar 0
AnchorPoint: "Anchor-0" 253 0 basechar 0
LayerCount: 2
Fore
SplineSet
457 -425 m 0,0,1
 292 -425 292 -425 208.5 -350 c 128,-1,2
 125 -275 125 -275 125 -129 c 2,3,-1
 125 0 l 1,4,-1
 381 0 l 1,5,-1
 381 -125 l 2,6,7
 381 -175 381 -175 409 -197.5 c 128,-1,8
 437 -220 437 -220 501 -220 c 0,9,10
 524 -220 524 -220 551.5 -219 c 128,-1,11
 579 -218 579 -218 598 -217 c 1,12,-1
 598 -418 l 1,13,14
 572 -421 572 -421 536.5 -423 c 128,-1,15
 501 -425 501 -425 457 -425 c 0,0,1
125 0 m 1,16,-1
 125 1087 l 1,17,-1
 372 1087 l 1,18,-1
 372 906 l 1,19,-1
 380 906 l 1,20,21
 410 1001 410 1001 479 1050.5 c 128,-1,22
 548 1100 548 1100 646 1100 c 0,23,24
 670 1100 670 1100 694 1098 c 128,-1,25
 718 1096 718 1096 735 1095 c 1,26,-1
 735 863 l 1,27,28
 720 867 720 867 685 870 c 128,-1,29
 650 873 650 873 615 873 c 0,30,31
 548 873 548 873 495 844 c 128,-1,32
 442 815 442 815 411.5 760 c 128,-1,33
 381 705 381 705 381 628 c 2,34,-1
 381 0 l 1,35,-1
 125 0 l 1,16,-1
EndSplineSet
EndChar

StartChar: rturn
Encoding: 633 633 857
Width: 772
GlyphClass: 2
Flags: W
AnchorPoint: "Anchor-1" 518 1087 basechar 0
AnchorPoint: "Anchor-0" 393 0 basechar 0
LayerCount: 2
Fore
SplineSet
647 1087 m 1,0,-1
 647 0 l 1,1,-1
 400 0 l 1,2,-1
 400 181 l 1,3,-1
 392 181 l 1,4,5
 362 88 362 88 293 37.5 c 128,-1,6
 224 -13 224 -13 126 -13 c 0,7,8
 102 -13 102 -13 78 -10.5 c 128,-1,9
 54 -8 54 -8 36 -6 c 1,10,-1
 36 224 l 1,11,12
 52 221 52 221 87 217.5 c 128,-1,13
 122 214 122 214 157 214 c 0,14,15
 224 214 224 214 277 243.5 c 128,-1,16
 330 273 330 273 360.5 328 c 128,-1,17
 391 383 391 383 391 459 c 2,18,-1
 391 1087 l 1,19,-1
 647 1087 l 1,0,-1
EndSplineSet
EndChar

StartChar: rturnrthook
Encoding: 635 635 858
Width: 772
GlyphClass: 2
Flags: W
AnchorPoint: "Anchor-1" 518 1087 basechar 0
AnchorPoint: "Anchor-0" 393 0 basechar 0
LayerCount: 2
Fore
SplineSet
705 -425 m 0,0,1
 551 -425 551 -425 473.5 -352 c 128,-1,2
 396 -279 396 -279 396 -140 c 2,3,-1
 396 0 l 1,4,-1
 644 0 l 1,5,-1
 644 -130 l 2,6,7
 644 -178 644 -178 670.5 -199.5 c 128,-1,8
 697 -221 697 -221 760 -221 c 0,9,10
 782 -221 782 -221 811.5 -220.5 c 128,-1,11
 841 -220 841 -220 859 -219 c 1,12,-1
 859 -418 l 1,13,14
 843 -420 843 -420 818 -421.5 c 128,-1,15
 793 -423 793 -423 764 -424 c 128,-1,16
 735 -425 735 -425 705 -425 c 0,0,1
647 1087 m 1,17,-1
 647 0 l 1,18,-1
 400 0 l 1,19,-1
 400 181 l 1,20,-1
 392 181 l 1,21,22
 362 88 362 88 293 37.5 c 128,-1,23
 224 -13 224 -13 126 -13 c 0,24,25
 102 -13 102 -13 78 -10.5 c 128,-1,26
 54 -8 54 -8 36 -6 c 1,27,-1
 36 224 l 1,28,29
 52 221 52 221 87 217.5 c 128,-1,30
 122 214 122 214 157 214 c 0,31,32
 224 214 224 214 277 243.5 c 128,-1,33
 330 273 330 273 360.5 328 c 128,-1,34
 391 383 391 383 391 459 c 2,35,-1
 391 1087 l 1,36,-1
 647 1087 l 1,17,-1
EndSplineSet
EndChar

StartChar: rfishhookrev
Encoding: 639 639 859
Width: 736
Flags: W
LayerCount: 2
Fore
SplineSet
611 0 m 1,0,-1
 355 0 l 1,1,-1
 355 667 l 2,2,3
 355 747 355 747 328.5 791.5 c 128,-1,4
 302 836 302 836 255.5 855 c 128,-1,5
 209 874 209 874 151 874 c 0,6,7
 115 874 115 874 86 873 c 128,-1,8
 57 872 57 872 36 870 c 1,9,-1
 36 1091 l 1,10,11
 47 1093 47 1093 67 1094 c 128,-1,12
 87 1095 87 1095 114 1096 c 128,-1,13
 141 1097 141 1097 169 1097 c 0,14,15
 294 1097 294 1097 394 1055 c 128,-1,16
 494 1013 494 1013 552.5 921.5 c 128,-1,17
 611 830 611 830 611 682 c 2,18,-1
 611 0 l 1,0,-1
EndSplineSet
EndChar

StartChar: uni027E
Encoding: 638 638 860
Width: 736
Flags: W
LayerCount: 2
Fore
SplineSet
125 0 m 1,0,-1
 125 682 l 2,1,2
 125 830 125 830 183.5 921.5 c 128,-1,3
 242 1013 242 1013 342.5 1055 c 128,-1,4
 443 1097 443 1097 568 1097 c 0,5,6
 596 1097 596 1097 622.5 1096 c 128,-1,7
 649 1095 649 1095 669 1094 c 128,-1,8
 689 1093 689 1093 700 1091 c 1,9,-1
 700 870 l 1,10,11
 680 872 680 872 650.5 873 c 128,-1,12
 621 874 621 874 585 874 c 0,13,14
 528 874 528 874 482 855 c 128,-1,15
 436 836 436 836 408.5 791.5 c 128,-1,16
 381 747 381 747 381 667 c 2,17,-1
 381 0 l 1,18,-1
 125 0 l 1,0,-1
EndSplineSet
EndChar

StartChar: rdescend
Encoding: 57438 57438 861
Width: 772
GlyphClass: 2
Flags: W
AnchorPoint: "Anchor-1" 425 1087 basechar 0
AnchorPoint: "Anchor-0" 253 0 basechar 0
LayerCount: 2
Fore
SplineSet
125 -418 m 1,0,-1
 125 0 l 1,1,-1
 378 0 l 1,2,-1
 378 -418 l 1,3,-1
 125 -418 l 1,0,-1
125 0 m 1,4,-1
 125 1087 l 1,5,-1
 372 1087 l 1,6,-1
 372 906 l 1,7,-1
 380 906 l 1,8,9
 410 1001 410 1001 479 1050.5 c 128,-1,10
 548 1100 548 1100 646 1100 c 0,11,12
 670 1100 670 1100 694 1098 c 128,-1,13
 718 1096 718 1096 735 1095 c 1,14,-1
 735 863 l 1,15,16
 720 867 720 867 685 870 c 128,-1,17
 650 873 650 873 615 873 c 0,18,19
 548 873 548 873 495 844 c 128,-1,20
 442 815 442 815 411.5 760 c 128,-1,21
 381 705 381 705 381 628 c 2,22,-1
 381 0 l 1,23,-1
 125 0 l 1,4,-1
EndSplineSet
EndChar

StartChar: r.sc
Encoding: 60955 60955 871
Width: 1142
Flags: W
LayerCount: 2
Fore
SplineSet
125 0 m 1,0,-1
 125 1087 l 1,1,-1
 624 1087 l 2,2,3
 837 1087 837 1087 951.5 990 c 128,-1,4
 1066 893 1066 893 1066 726 c 0,5,6
 1066 564 1066 564 949.5 470.5 c 128,-1,7
 833 377 833 377 617 377 c 2,8,-1
 267 377 l 1,9,-1
 267 568 l 1,10,-1
 590 568 l 2,11,12
 706 568 706 568 759.5 606.5 c 128,-1,13
 813 645 813 645 813 724 c 256,14,15
 813 803 813 803 761 842 c 128,-1,16
 709 881 709 881 593 881 c 2,17,-1
 372 881 l 1,18,-1
 372 0 l 1,19,-1
 125 0 l 1,0,-1
831 0 m 1,20,-1
 524 489 l 1,21,-1
 800 489 l 1,22,-1
 1114 0 l 1,23,-1
 831 0 l 1,20,-1
EndSplineSet
EndChar

StartChar: rinv.sc
Encoding: 60956 60956 872
Width: 1142
Flags: W
LayerCount: 2
Fore
SplineSet
125 0 m 1,0,-1
 125 1087 l 1,1,-1
 372 1087 l 1,2,-1
 372 207 l 1,3,-1
 593 207 l 2,4,5
 709 207 709 207 761 246.5 c 128,-1,6
 813 286 813 286 813 365 c 0,7,8
 813 442 813 442 759.5 481 c 128,-1,9
 706 520 706 520 590 520 c 2,10,-1
 267 520 l 1,11,-1
 267 710 l 1,12,-1
 617 710 l 2,13,14
 833 710 833 710 949.5 617 c 128,-1,15
 1066 524 1066 524 1066 362 c 0,16,17
 1066 195 1066 195 951.5 97.5 c 128,-1,18
 837 0 837 0 624 0 c 2,19,-1
 125 0 l 1,0,-1
524 598 m 1,20,-1
 831 1087 l 1,21,-1
 1114 1087 l 1,22,-1
 800 598 l 1,23,-1
 524 598 l 1,20,-1
EndSplineSet
EndChar

StartChar: s
Encoding: 115 115 873
Width: 1080
GlyphClass: 2
Flags: W
AnchorPoint: "Anchor-3" 547 0 basechar 0
AnchorPoint: "Anchor-1" 544 1087 basechar 0
AnchorPoint: "Anchor-0" 545 0 basechar 0
LayerCount: 2
Fore
SplineSet
544 -24 m 0,0,1
 415 -24 415 -24 315 15 c 128,-1,2
 215 54 215 54 152 128.5 c 128,-1,3
 89 203 89 203 75 311 c 1,4,-1
 322 333 l 1,5,6
 337 253 337 253 393.5 211.5 c 128,-1,7
 450 170 450 170 544 170 c 256,8,9
 638 170 638 170 692.5 207.5 c 128,-1,10
 747 245 747 245 747 302 c 0,11,12
 747 350 747 350 709 380 c 128,-1,13
 671 410 671 410 599 426 c 2,14,-1
 414 465 l 2,15,16
 259 497 259 497 180.5 574.5 c 128,-1,17
 102 652 102 652 102 774 c 0,18,19
 102 874 102 874 157 948.5 c 128,-1,20
 212 1023 212 1023 311 1064.5 c 128,-1,21
 410 1106 410 1106 541 1106 c 0,22,23
 668 1106 668 1106 762.5 1066.5 c 128,-1,24
 857 1027 857 1027 913 955.5 c 128,-1,25
 969 884 969 884 982 786 c 1,26,-1
 748 763 l 1,27,28
 737 828 737 828 685.5 871.5 c 128,-1,29
 634 915 634 915 545 915 c 0,30,31
 463 915 463 915 411 878 c 128,-1,32
 359 841 359 841 359 786 c 0,33,34
 359 738 359 738 395.5 707 c 128,-1,35
 432 676 432 676 508 659 c 2,36,-1
 699 620 l 2,37,38
 857 586 857 586 932.5 513 c 128,-1,39
 1008 440 1008 440 1008 324 c 0,40,41
 1008 219 1008 219 948.5 141 c 128,-1,42
 889 63 889 63 784.5 19.5 c 128,-1,43
 680 -24 680 -24 544 -24 c 0,0,1
EndSplineSet
Substitution2: "'sups' Superscript in Latin lookup 39 subtable" s.sups
Substitution2: "'subs' Subscript in Latin lookup 38 subtable" s.subs
Substitution2: "'sinf' Scientific Inferiors in Latin lookup 18 subtable" s.subs
AlternateSubs2: "'aalt' Access All Alternates in Latin lookup 1 subtable" s.sups s.subs
EndChar

StartChar: srthook
Encoding: 642 642 874
Width: 1080
GlyphClass: 2
Flags: W
AnchorPoint: "Anchor-3" 547 0 basechar 0
AnchorPoint: "Anchor-1" 544 1087 basechar 0
AnchorPoint: "Anchor-0" 545 0 basechar 0
LayerCount: 2
Fore
SplineSet
390 -425 m 0,0,1
 236 -425 236 -425 155.5 -352.5 c 128,-1,2
 75 -280 75 -280 75 -140 c 2,3,-1
 75 311 l 1,4,-1
 308 315 l 1,5,-1
 308 -130 l 2,6,7
 308 -178 308 -178 338.5 -200 c 128,-1,8
 369 -222 369 -222 436 -222 c 0,9,10
 450 -222 450 -222 471.5 -221 c 128,-1,11
 493 -220 493 -220 514 -219.5 c 128,-1,12
 535 -219 535 -219 547 -219 c 1,13,-1
 547 -418 l 1,14,15
 530 -420 530 -420 504.5 -421.5 c 128,-1,16
 479 -423 479 -423 449.5 -424 c 128,-1,17
 420 -425 420 -425 390 -425 c 0,0,1
544 -24 m 0,18,19
 415 -24 415 -24 315 15 c 128,-1,20
 215 54 215 54 152 128.5 c 128,-1,21
 89 203 89 203 75 311 c 1,22,-1
 322 333 l 1,23,24
 337 253 337 253 393.5 211.5 c 128,-1,25
 450 170 450 170 544 170 c 256,26,27
 638 170 638 170 692.5 207.5 c 128,-1,28
 747 245 747 245 747 302 c 0,29,30
 747 350 747 350 709 380 c 128,-1,31
 671 410 671 410 599 426 c 2,32,-1
 414 465 l 2,33,34
 259 497 259 497 180.5 574.5 c 128,-1,35
 102 652 102 652 102 774 c 0,36,37
 102 874 102 874 157 948.5 c 128,-1,38
 212 1023 212 1023 311 1064.5 c 128,-1,39
 410 1106 410 1106 541 1106 c 0,40,41
 668 1106 668 1106 762.5 1066.5 c 128,-1,42
 857 1027 857 1027 913 955.5 c 128,-1,43
 969 884 969 884 982 786 c 1,44,-1
 748 763 l 1,45,46
 737 828 737 828 685.5 871.5 c 128,-1,47
 634 915 634 915 545 915 c 0,48,49
 463 915 463 915 411 878 c 128,-1,50
 359 841 359 841 359 786 c 0,51,52
 359 738 359 738 395.5 707 c 128,-1,53
 432 676 432 676 508 659 c 2,54,-1
 699 620 l 2,55,56
 857 586 857 586 932.5 513 c 128,-1,57
 1008 440 1008 440 1008 324 c 0,58,59
 1008 219 1008 219 948.5 141 c 128,-1,60
 889 63 889 63 784.5 19.5 c 128,-1,61
 680 -24 680 -24 544 -24 c 0,18,19
EndSplineSet
EndChar

StartChar: uni023F
Encoding: 575 575 875
Width: 1080
GlyphClass: 2
Flags: W
AnchorPoint: "Anchor-3" 547 0 basechar 0
AnchorPoint: "Anchor-1" 544 1087 basechar 0
AnchorPoint: "Anchor-0" 545 0 basechar 0
LayerCount: 2
Fore
SplineSet
280 281 m 1,0,1
 368 116 368 116 427 14 c 128,-1,2
 486 -88 486 -88 525.5 -141.5 c 128,-1,3
 565 -195 565 -195 595 -214.5 c 128,-1,4
 625 -234 625 -234 656 -234 c 0,5,6
 710 -234 710 -234 752.5 -209 c 128,-1,7
 795 -184 795 -184 824 -158 c 1,8,-1
 906 -301 l 1,9,10
 864 -340 864 -340 797.5 -379 c 128,-1,11
 731 -418 731 -418 650 -418 c 0,12,13
 571 -418 571 -418 511.5 -383 c 128,-1,14
 452 -348 452 -348 405 -288.5 c 128,-1,15
 358 -229 358 -229 315 -158 c 2,16,-1
 116 189 l 1,17,-1
 280 281 l 1,0,1
544 -24 m 0,18,19
 415 -24 415 -24 315 15 c 128,-1,20
 215 54 215 54 152 128.5 c 128,-1,21
 89 203 89 203 75 311 c 1,22,-1
 322 333 l 1,23,24
 337 253 337 253 393.5 211.5 c 128,-1,25
 450 170 450 170 544 170 c 256,26,27
 638 170 638 170 692.5 207.5 c 128,-1,28
 747 245 747 245 747 302 c 0,29,30
 747 350 747 350 709 380 c 128,-1,31
 671 410 671 410 599 426 c 2,32,-1
 414 465 l 2,33,34
 259 497 259 497 180.5 574.5 c 128,-1,35
 102 652 102 652 102 774 c 0,36,37
 102 874 102 874 157 948.5 c 128,-1,38
 212 1023 212 1023 311 1064.5 c 128,-1,39
 410 1106 410 1106 541 1106 c 0,40,41
 668 1106 668 1106 762.5 1066.5 c 128,-1,42
 857 1027 857 1027 913 955.5 c 128,-1,43
 969 884 969 884 982 786 c 1,44,-1
 748 763 l 1,45,46
 737 828 737 828 685.5 871.5 c 128,-1,47
 634 915 634 915 545 915 c 0,48,49
 463 915 463 915 411 878 c 128,-1,50
 359 841 359 841 359 786 c 0,51,52
 359 738 359 738 395.5 707 c 128,-1,53
 432 676 432 676 508 659 c 2,54,-1
 699 620 l 2,55,56
 857 586 857 586 932.5 513 c 128,-1,57
 1008 440 1008 440 1008 324 c 0,58,59
 1008 219 1008 219 948.5 141 c 128,-1,60
 889 63 889 63 784.5 19.5 c 128,-1,61
 680 -24 680 -24 544 -24 c 0,18,19
EndSplineSet
EndChar

